<?xml version="1.0" encoding="UTF-8" standalone="no"?><!DOCTYPE svg PUBLIC "-//W3C//DTD SVG 1.1//EN" "http://www.w3.org/Graphics/SVG/1.1/DTD/svg11.dtd"><svg width="100%" height="100%" viewBox="0 0 169 187" version="1.1" xmlns="http://www.w3.org/2000/svg" xmlns:xlink="http://www.w3.org/1999/xlink" xml:space="preserve" xmlns:serif="http://www.serif.com/" style="fill-rule:evenodd;clip-rule:evenodd;stroke-linejoin:round;stroke-miterlimit:2;"><path d="M139.168,186.72l0,-39.047c0,0 20.578,-27.672 27.446,-56.401c4.702,-19.672 2.208,-38.688 -6.334,-54.232c-16.449,-29.933 -47.11,-38.495 -71.781,-36.877c-14.344,0.941 -32.871,5.21 -44.336,15.185c-17.286,15.039 -14.854,40.474 -23.223,49.893c-8.954,10.075 -20.409,26.031 -21.113,34.708c-0.661,8.153 12.368,11.054 16.89,17.354c2.815,7.954 -1.777,24.945 -0.285,33.796c3.518,7.231 14.36,7.421 21.397,9.59c5.393,1.662 21.112,0 21.112,0l0,26.031l80.227,0Z" style="fill:#202020;"/></svg>