<?xml version="1.0" encoding="UTF-8" standalone="no"?><!DOCTYPE svg PUBLIC "-//W3C//DTD SVG 1.1//EN" "http://www.w3.org/Graphics/SVG/1.1/DTD/svg11.dtd"><svg width="100%" height="100%" viewBox="0 0 7 7" version="1.1" xmlns="http://www.w3.org/2000/svg" xmlns:xlink="http://www.w3.org/1999/xlink" xml:space="preserve" xmlns:serif="http://www.serif.com/" style="fill-rule:evenodd;clip-rule:evenodd;stroke-linejoin:round;stroke-miterlimit:2;"><g id="Pulsion"><path d="M1.493,6.96l0,-1.455c0,0 -0.769,-1.032 -1.026,-2.102c-0.176,-0.734 -0.082,-1.442 0.237,-2.022c0.614,-1.115 1.76,-1.434 2.682,-1.374c0.536,0.035 1.228,0.194 1.656,0.566c0.646,0.56 0.555,1.508 0.868,1.859c0.334,0.376 0.762,0.971 0.789,1.294c0.024,0.304 -0.462,0.412 -0.631,0.647c-0.106,0.296 0.055,0.802 0,1.132c-0.132,0.269 -0.526,0.404 -0.789,0.485c-0.202,0.062 -0.789,0 -0.789,0l0,0.97l-2.997,0Z" style="fill:#f00;"/></g></svg>