<?xml version="1.0" encoding="UTF-8" standalone="no"?><!DOCTYPE svg PUBLIC "-//W3C//DTD SVG 1.1//EN" "http://www.w3.org/Graphics/SVG/1.1/DTD/svg11.dtd"><svg width="100%" height="100%" viewBox="0 0 84 84" version="1.1" xmlns="http://www.w3.org/2000/svg" xmlns:xlink="http://www.w3.org/1999/xlink" xml:space="preserve" xmlns:serif="http://www.serif.com/" style="fill-rule:evenodd;clip-rule:evenodd;stroke-linejoin:round;stroke-miterlimit:2;"><g><path d="M76.282,84l0,-3.965c0,-5.42 -1.232,-10.605 -3.662,-15.412c-1.215,-2.403 -2.727,-4.666 -4.479,-6.727l-18.073,26.104l26.214,0Z" style="fill:#f00;fill-rule:nonzero;"/><path d="M11.445,64.496c-2.473,4.841 -3.727,10.069 -3.727,15.539l0,3.965l26.753,0l-18.461,-26.281c-1.785,2.072 -3.326,4.351 -4.565,6.777Z" style="fill:#f00;fill-rule:nonzero;"/><path d="M40.168,84l-6.099,-31.717c-7.653,-3.191 -13.069,-10.702 -13.187,-19.471l-11.535,0l10.468,13.872l-5.743,0l26.096,37.316Z" style="fill:#f00;fill-rule:nonzero;"/><path d="M74.881,32.812l-11.206,0c-0.117,8.763 -5.527,16.271 -13.173,19.466l-6.098,31.722l25.713,-37.316l-5.704,0l10.468,-13.872Z" style="fill:#f00;fill-rule:nonzero;"/><path d="M45.389,53.695c-1.016,0.149 -2.054,0.227 -3.11,0.227c-1.052,0 -2.086,-0.078 -3.097,-0.225l3.103,18.456l3.104,-18.458Z" style="fill:#f00;fill-rule:nonzero;"/><path d="M42.279,49.164c9.176,0 16.642,-7.466 16.642,-16.642c0,-1.644 -0.244,-3.267 -0.713,-4.82l-31.859,0c-0.469,1.553 -0.713,3.176 -0.713,4.82c0,9.176 7.466,16.642 16.643,16.642Z" style="fill:#f00;fill-rule:nonzero;"/><path d="M65.995,22.786l0,-4.915l-7.943,0l-1.537,-12.681c-0.263,-2.164 -1.687,-3.998 -3.719,-4.788c-2.031,-0.79 -4.32,-0.399 -5.975,1.019l-3.903,3.347c-0.37,0.317 -0.908,0.317 -1.279,0l-3.903,-3.346c-1.655,-1.419 -3.945,-1.809 -5.975,-1.02c-2.032,0.79 -3.456,2.624 -3.719,4.788l-1.537,12.681l-7.943,0l0,4.915l47.433,0l0,0Z" style="fill:#f00;fill-rule:nonzero;"/></g></svg>