<?xml version="1.0" encoding="UTF-8" standalone="no"?><!DOCTYPE svg PUBLIC "-//W3C//DTD SVG 1.1//EN" "http://www.w3.org/Graphics/SVG/1.1/DTD/svg11.dtd"><svg width="100%" height="100%" viewBox="0 0 130 130" version="1.1" xmlns="http://www.w3.org/2000/svg" xmlns:xlink="http://www.w3.org/1999/xlink" xml:space="preserve" xmlns:serif="http://www.serif.com/" style="fill-rule:evenodd;clip-rule:evenodd;stroke-linejoin:round;stroke-miterlimit:2;"><g><path d="M65.429,85.671c-7.584,-3.555 -13.272,-7.584 -16.59,-12.087l25.122,0c1.422,0 2.37,-0.948 2.37,-2.37c0,-1.422 -0.948,-2.37 -2.37,-2.37l-27.492,0c-0.474,-1.659 -0.948,-3.081 -0.948,-4.74c0,-7.347 6.162,-13.035 11.139,-16.59c1.185,-0.711 1.422,-2.133 0.711,-3.318c-0.711,-1.185 -2.133,-1.422 -3.318,-0.711c-8.769,6.162 -13.272,13.272 -13.272,20.619c0,9.954 8.058,19.197 22.752,25.833c8.769,4.029 14.931,9.006 18.012,14.457l-26.544,0c-1.422,0 -2.37,0.948 -2.37,2.37c0,1.422 0.948,2.37 2.37,2.37l28.203,0c0.237,0.711 0.237,1.658 0.237,2.369l0,2.37c0,1.422 0.948,2.37 2.37,2.37c1.422,0 2.37,-0.948 2.37,-2.37l0,-2.37c0,-9.953 -8.058,-19.196 -22.752,-25.832Z" style="fill:#f00;fill-rule:nonzero;"/><path d="M57.371,91.596c-0.711,-1.185 -2.133,-1.422 -3.318,-0.711c-8.769,6.162 -13.272,13.272 -13.272,20.619l0,2.37c0,1.422 0.948,2.369 2.37,2.369c1.422,0 2.37,-0.948 2.37,-2.369l0,-2.37c0,-7.347 6.162,-13.035 11.139,-16.59c1.185,-0.711 1.422,-2.133 0.711,-3.318Z" style="fill:#f00;fill-rule:nonzero;"/><path d="M65.429,38.271c-8.769,-4.029 -14.931,-9.006 -18.012,-14.457l26.544,0c1.422,0 2.37,-0.948 2.37,-2.37c0,-1.422 -0.948,-2.37 -2.37,-2.37l-28.203,0c-0.237,-0.711 -0.237,-1.659 -0.237,-2.37l0,-2.37c0,-1.422 -0.948,-2.37 -2.37,-2.37c-1.422,0 -2.37,0.948 -2.37,2.37l0,2.37c0,9.954 8.058,19.197 22.752,25.832c7.584,3.556 13.272,7.584 16.59,12.087l-25.122,0c-1.422,0 -2.37,0.948 -2.37,2.37c0,1.422 0.948,2.37 2.37,2.37l27.492,0c0.474,1.659 0.948,3.081 0.948,4.74c0,7.347 -6.162,13.272 -11.376,16.827c-1.185,0.711 -1.422,2.133 -0.711,3.318c0.474,0.711 1.185,0.948 1.896,0.948c0.474,0 0.948,-0.237 1.422,-0.474c8.769,-5.925 13.509,-13.035 13.509,-20.618c0,-9.954 -8.058,-19.197 -22.752,-25.833Z" style="fill:#f00;fill-rule:nonzero;"/><path d="M85.811,11.964c-1.422,0 -2.37,0.948 -2.37,2.37l0,2.37c0,7.347 -6.162,13.272 -11.376,16.827c-1.185,0.711 -1.422,2.133 -0.711,3.318c0.474,0.711 1.185,0.948 1.896,0.948c0.474,0 0.948,-0.237 1.422,-0.474c8.769,-5.925 13.509,-13.035 13.509,-20.619l0,-2.37c0,-1.422 -0.948,-2.37 -2.37,-2.37Z" style="fill:#f00;fill-rule:nonzero;"/></g></svg>