<?xml version="1.0" encoding="UTF-8" standalone="no"?><!DOCTYPE svg PUBLIC "-//W3C//DTD SVG 1.1//EN" "http://www.w3.org/Graphics/SVG/1.1/DTD/svg11.dtd"><svg width="100%" height="100%" viewBox="0 0 150 150" version="1.1" xmlns="http://www.w3.org/2000/svg" xmlns:xlink="http://www.w3.org/1999/xlink" xml:space="preserve" xmlns:serif="http://www.serif.com/" style="fill-rule:evenodd;clip-rule:evenodd;stroke-linejoin:round;stroke-miterlimit:2;"><g><path d="M72.183,14.552l0.433,0.002l0.432,0.003l0.433,0.005l0.432,0.006l0.432,0.007l0.432,0.008l0.432,0.01l0.432,0.01l0.431,0.013l0.43,0.013l0.43,0.015l0.43,0.015l0.429,0.018l0.429,0.018l0.427,0.02l0.427,0.021l0.426,0.022l0.425,0.024l0.425,0.024l0.423,0.026l0.422,0.028l0.421,0.028l0.42,0.03l0.419,0.031l0.417,0.033l0.417,0.033l0.414,0.035l0.414,0.037l0.411,0.037l0.411,0.039l0.408,0.04l0.407,0.041l0.406,0.043l0.403,0.044l0.402,0.045l0.4,0.047l0.398,0.048l0.396,0.049l0.394,0.05l0.392,0.052l0.39,0.053l0.387,0.055l0.386,0.056l0.383,0.057l0.381,0.058l0.378,0.06l0.376,0.062l0.374,0.062l0.371,0.064l0.369,0.066l0.366,0.066l0.363,0.069l0.361,0.069l0.358,0.071l0.356,0.073l0.352,0.074l0.35,0.075l0.347,0.077l0.344,0.079l0.342,0.08l0.338,0.082l0.335,0.083l0.333,0.085l0.329,0.087l0.327,0.088l0.323,0.09l0.32,0.092l0.318,0.093l0.314,0.096l0.311,0.097l0.308,0.099l0.305,0.102l0.302,0.103l0.298,0.106l0.296,0.107l0.293,0.11l0.289,0.113l0.287,0.115l0.277,0.115l0.147,0.063l0.14,0.06l0.139,0.062l0.138,0.062l0.138,0.062l0.137,0.064l0.137,0.065l0.135,0.065l0.135,0.066l0.134,0.067l0.133,0.068l0.133,0.068l0.132,0.07l0.131,0.071l0.131,0.072l0.13,0.073l0.129,0.074l0.129,0.075l0.128,0.076l0.127,0.077l0.127,0.079l0.126,0.08l0.125,0.081l0.125,0.083l0.123,0.084l0.124,0.085l0.122,0.088l0.122,0.088l0.121,0.091l0.121,0.092l0.119,0.093l0.119,0.096l0.119,0.098l0.117,0.099l0.117,0.102l0.115,0.103l0.115,0.106l0.114,0.108l0.113,0.111l0.112,0.112l0.111,0.116l0.11,0.118l0.109,0.12l0.107,0.124l0.106,0.125l0.105,0.129l0.103,0.132l0.101,0.135l0.1,0.138l0.098,0.141l0.095,0.144l0.094,0.147l0.092,0.15l0.088,0.154l0.087,0.157l0.083,0.159l0.08,0.164l0.078,0.166l0.074,0.169l0.07,0.173l0.067,0.175l0.063,0.178l0.059,0.18l0.055,0.183l0.05,0.186l0.046,0.187l0.041,0.189l0.037,0.191l0.031,0.193l0.027,0.194l0.022,0.195l0.016,0.195l0.011,0.196l0.007,0.196l0.001,0.197l-0.004,0.196l-0.009,0.196l-0.014,0.194l-0.019,0.194l-0.024,0.193l-0.029,0.191l-0.033,0.19l-0.038,0.187l-0.042,0.186l-0.046,0.184l-0.05,0.182l-0.054,0.18l-0.058,0.177l-0.061,0.175l-0.065,0.172l-0.068,0.17l-0.071,0.167l-0.074,0.166l-0.077,0.162l-0.08,0.16l-0.082,0.158l-0.085,0.155l-0.087,0.153l-0.09,0.151l-0.082,0.132l-0.387,0.614l-0.378,0.595l-0.377,0.593l-0.378,0.59l-0.377,0.588l-0.377,0.585l-0.376,0.582l-0.377,0.58l-0.376,0.578l-0.376,0.575l-0.376,0.572l-0.376,0.57l-0.375,0.567l-0.375,0.565l-0.375,0.563l-0.375,0.56l-0.374,0.557l-0.374,0.555l-0.373,0.553l-0.374,0.55l-0.372,0.547l-0.373,0.545l-0.372,0.543l-0.372,0.54l-0.371,0.538l-0.371,0.536l-0.371,0.533l-0.37,0.53l-0.37,0.529l-0.369,0.525l-0.369,0.524l-0.369,0.521l-0.368,0.519l-0.367,0.516l-0.367,0.514l-0.366,0.512l-0.366,0.509l-0.366,0.507l-0.365,0.505l-0.364,0.502l-0.364,0.5l-0.363,0.498l-0.362,0.496l-0.362,0.493l-0.362,0.491l-0.361,0.488l-0.36,0.487l-0.359,0.484l-0.359,0.482l-0.358,0.479l-0.358,0.477l-0.357,0.476l-0.356,0.472l-0.355,0.471l-0.355,0.469l-0.355,0.467l-0.705,0.925l-0.702,0.917l-0.7,0.908l-0.696,0.9l-0.693,0.891l-0.69,0.882l-0.686,0.875l-0.683,0.865l-0.679,0.858l-0.675,0.849l-0.544,0.681l0.562,0.705l0.643,0.808l0.64,0.805l0.638,0.804l0.634,0.802l0.632,0.8l0.628,0.798l0.625,0.795l0.621,0.793l0.617,0.79l0.614,0.788l0.609,0.785l0.605,0.781l0.6,0.779l0.595,0.775l0.591,0.772l0.585,0.768l0.58,0.765l0.574,0.761l0.569,0.757l0.563,0.753l0.556,0.749l0.551,0.745l0.544,0.74l0.537,0.736l0.53,0.731l0.523,0.725l0.26,0.363l0.257,0.361l0.255,0.359l0.254,0.358l0.251,0.356l0.25,0.355l0.248,0.354l0.246,0.353l0.243,0.351l0.242,0.35l0.24,0.349l0.238,0.348l0.235,0.346l0.234,0.344l0.231,0.344l0.23,0.341l0.227,0.341l0.225,0.339l0.222,0.338l0.221,0.336l0.218,0.335l0.216,0.333l0.214,0.332l0.211,0.331l0.21,0.329l0.206,0.327l0.205,0.327l0.202,0.324l0.199,0.323l0.197,0.322l0.195,0.32l0.192,0.319l0.19,0.317l0.187,0.316l0.185,0.314l0.182,0.313l0.179,0.311l0.177,0.309l0.174,0.309l0.172,0.306l0.169,0.306l0.166,0.303l0.164,0.303l0.16,0.301l0.159,0.299l0.155,0.298l0.152,0.297l0.15,0.295l0.147,0.294l0.144,0.292l0.141,0.291l0.138,0.29l0.135,0.289l0.132,0.287l0.129,0.286l0.127,0.285l0.123,0.283l0.12,0.283l0.117,0.281l0.114,0.281l0.111,0.279l0.107,0.279l0.104,0.278l0.101,0.276l0.098,0.277l0.094,0.275l0.091,0.275l0.087,0.275l0.084,0.274l0.08,0.273l0.076,0.274l0.072,0.273l0.069,0.273l0.063,0.265l0.032,0.145l0.03,0.137l0.029,0.137l0.028,0.137l0.026,0.137l0.026,0.137l0.024,0.138l0.023,0.137l0.022,0.138l0.021,0.138l0.02,0.138l0.018,0.138l0.018,0.139l0.016,0.139l0.014,0.139l0.013,0.139l0.012,0.14l0.011,0.14l0.009,0.141l0.008,0.14l0.006,0.141l0.004,0.142l0.003,0.142l0.002,0.148l-0.001,0.16l-0.003,0.167l-0.007,0.167l-0.009,0.166l-0.012,0.166l-0.014,0.166l-0.018,0.166l-0.02,0.165l-0.023,0.164l-0.026,0.164l-0.028,0.163l-0.032,0.163l-0.034,0.162l-0.036,0.161l-0.04,0.159l-0.041,0.16l-0.045,0.158l-0.047,0.156l-0.049,0.156l-0.052,0.155l-0.054,0.153l-0.057,0.152l-0.059,0.151l-0.061,0.149l-0.063,0.148l-0.066,0.147l-0.067,0.145l-0.07,0.143l-0.072,0.142l-0.073,0.141l-0.076,0.139l-0.077,0.137l-0.079,0.136l-0.08,0.134l-0.083,0.133l-0.084,0.131l-0.085,0.13l-0.087,0.128l-0.089,0.126l-0.09,0.125l-0.091,0.123l-0.093,0.122l-0.094,0.12l-0.096,0.118l-0.096,0.117l-0.098,0.116l-0.099,0.114l-0.1,0.112l-0.101,0.112l-0.103,0.109l-0.103,0.108l-0.104,0.107l-0.105,0.106l-0.107,0.104l-0.107,0.103l-0.108,0.102l-0.109,0.1l-0.11,0.099l-0.11,0.097l-0.112,0.097l-0.113,0.095l-0.113,0.094l-0.114,0.093l-0.115,0.092l-0.115,0.091l-0.116,0.089l-0.118,0.088l-0.117,0.088l-0.119,0.086l-0.119,0.086l-0.12,0.084l-0.121,0.083l-0.121,0.083l-0.122,0.081l-0.123,0.08l-0.124,0.08l-0.124,0.078l-0.125,0.078l-0.125,0.077l-0.126,0.076l-0.127,0.075l-0.127,0.075l-0.128,0.073l-0.129,0.073l-0.129,0.072l-0.13,0.071l-0.131,0.07l-0.138,0.073l-0.257,0.134l-0.267,0.134l-0.269,0.131l-0.272,0.129l-0.274,0.126l-0.277,0.124l-0.278,0.12l-0.282,0.119l-0.284,0.116l-0.286,0.114l-0.288,0.112l-0.291,0.109l-0.293,0.107l-0.295,0.105l-0.298,0.103l-0.299,0.101l-0.303,0.099l-0.304,0.097l-0.306,0.095l-0.309,0.093l-0.311,0.092l-0.313,0.089l-0.315,0.087l-0.317,0.086l-0.319,0.084l-0.322,0.082l-0.323,0.081l-0.325,0.078l-0.327,0.077l-0.33,0.075l-0.331,0.074l-0.333,0.072l-0.335,0.07l-0.337,0.068l-0.338,0.067l-0.341,0.066l-0.342,0.063l-0.343,0.062l-0.346,0.061l-0.347,0.059l-0.349,0.057l-0.35,0.056l-0.352,0.054l-0.354,0.053l-0.354,0.051l-0.357,0.05l-0.358,0.048l-0.359,0.046l-0.36,0.046l-0.362,0.043l-0.363,0.042l-0.365,0.041l-0.365,0.039l-0.367,0.037l-0.368,0.037l-0.369,0.034l-0.37,0.033l-0.372,0.032l-0.372,0.03l-0.373,0.029l-0.374,0.027l-0.375,0.026l-0.376,0.025l-0.376,0.023l-0.378,0.021l-0.378,0.02l-0.378,0.019l-0.38,0.017l-0.38,0.016l-0.381,0.014l-0.381,0.013l-0.382,0.011l-0.382,0.01l-0.382,0.009l-0.383,0.007l-0.384,0.005l-0.384,0.005l-0.383,0.003l-0.385,0.001l-0.384,0l-0.385,-0.001l-0.384,-0.003l-0.385,-0.005l-0.385,-0.005l-0.385,-0.007l-0.384,-0.009l-0.385,-0.01l-0.385,-0.011l-0.384,-0.013l-0.384,-0.014l-0.384,-0.016l-0.384,-0.017l-0.383,-0.018l-0.383,-0.02l-0.383,-0.021l-0.382,-0.023l-0.382,-0.024l-0.382,-0.025l-0.38,-0.027l-0.38,-0.029l-0.38,-0.03l-0.379,-0.031l-0.378,-0.032l-0.378,-0.034l-0.376,-0.036l-0.376,-0.037l-0.375,-0.038l-0.374,-0.04l-0.374,-0.041l-0.372,-0.043l-0.371,-0.044l-0.371,-0.045l-0.369,-0.047l-0.368,-0.049l-0.367,-0.05l-0.366,-0.051l-0.364,-0.053l-0.363,-0.054l-0.362,-0.056l-0.361,-0.057l-0.359,-0.058l-0.358,-0.06l-0.357,-0.062l-0.355,-0.063l-0.354,-0.065l-0.352,-0.066l-0.35,-0.067l-0.349,-0.069l-0.347,-0.071l-0.346,-0.072l-0.344,-0.074l-0.342,-0.075l-0.34,-0.077l-0.339,-0.078l-0.337,-0.08l-0.335,-0.082l-0.333,-0.083l-0.331,-0.084l-0.329,-0.087l-0.328,-0.088l-0.325,-0.089l-0.323,-0.092l-0.321,-0.093l-0.32,-0.094l-0.317,-0.097l-0.315,-0.098l-0.312,-0.1l-0.311,-0.102l-0.309,-0.103l-0.306,-0.106l-0.304,-0.107l-0.302,-0.109l-0.299,-0.111l-0.297,-0.113l-0.295,-0.115l-0.293,-0.117l-0.29,-0.119l-0.288,-0.122l-0.285,-0.123l-0.283,-0.126l-0.28,-0.127l-0.279,-0.131l-0.275,-0.132l-0.273,-0.135l-0.271,-0.138l-0.268,-0.14l-0.265,-0.142l-0.257,-0.142l-0.137,-0.078l-0.13,-0.074l-0.129,-0.075l-0.128,-0.076l-0.128,-0.077l-0.128,-0.077l-0.126,-0.079l-0.126,-0.079l-0.125,-0.079l-0.125,-0.081l-0.124,-0.081l-0.123,-0.083l-0.122,-0.083l-0.122,-0.084l-0.121,-0.085l-0.12,-0.085l-0.12,-0.087l-0.119,-0.088l-0.118,-0.088l-0.117,-0.09l-0.117,-0.09l-0.116,-0.092l-0.115,-0.092l-0.114,-0.094l-0.113,-0.094l-0.113,-0.096l-0.112,-0.097l-0.111,-0.098l-0.11,-0.099l-0.11,-0.1l-0.108,-0.101l-0.108,-0.103l-0.106,-0.103l-0.106,-0.105l-0.105,-0.107l-0.103,-0.107l-0.103,-0.109l-0.102,-0.11l-0.101,-0.111l-0.099,-0.113l-0.099,-0.114l-0.097,-0.115l-0.096,-0.117l-0.095,-0.118l-0.094,-0.12l-0.093,-0.121l-0.091,-0.123l-0.09,-0.124l-0.089,-0.125l-0.087,-0.127l-0.085,-0.128l-0.085,-0.13l-0.082,-0.132l-0.082,-0.132l-0.079,-0.135l-0.078,-0.136l-0.076,-0.137l-0.074,-0.139l-0.073,-0.14l-0.071,-0.142l-0.069,-0.143l-0.066,-0.145l-0.065,-0.146l-0.063,-0.147l-0.061,-0.149l-0.058,-0.15l-0.057,-0.151l-0.054,-0.153l-0.051,-0.154l-0.05,-0.155l-0.047,-0.156l-0.045,-0.157l-0.042,-0.158l-0.039,-0.16l-0.037,-0.16l-0.035,-0.161l-0.032,-0.162l-0.029,-0.163l-0.027,-0.163l-0.024,-0.164l-0.021,-0.164l-0.018,-0.166l-0.016,-0.165l-0.013,-0.166l-0.01,-0.166l-0.008,-0.167l-0.005,-0.166l-0.002,-0.167l0.001,-0.252l0.005,-0.252l0.009,-0.251l0.013,-0.251l0.017,-0.251l0.02,-0.25l0.025,-0.25l0.027,-0.249l0.032,-0.249l0.035,-0.248l0.038,-0.248l0.042,-0.248l0.045,-0.246l0.048,-0.247l0.052,-0.246l0.054,-0.245l0.058,-0.245l0.061,-0.244l0.064,-0.244l0.067,-0.244l0.069,-0.243l0.073,-0.242l0.075,-0.243l0.078,-0.242l0.081,-0.241l0.083,-0.241l0.086,-0.241l0.089,-0.241l0.091,-0.24l0.094,-0.241l0.096,-0.24l0.099,-0.24l0.101,-0.24l0.103,-0.239l0.106,-0.24l0.109,-0.24l0.11,-0.239l0.113,-0.24l0.115,-0.24l0.117,-0.24l0.12,-0.24l0.122,-0.24l0.124,-0.24l0.126,-0.24l0.128,-0.241l0.131,-0.241l0.133,-0.241l0.134,-0.242l0.137,-0.242l0.139,-0.242l0.141,-0.243l0.143,-0.243l0.145,-0.244l0.147,-0.244l0.149,-0.244l0.151,-0.245l0.153,-0.246l0.155,-0.246l0.157,-0.247l0.159,-0.247l0.161,-0.248l0.163,-0.248l0.165,-0.25l0.166,-0.25l0.169,-0.25l0.171,-0.251l0.172,-0.253l0.174,-0.252l0.176,-0.254l0.178,-0.254l0.18,-0.256l0.182,-0.256l0.183,-0.257l0.186,-0.258l0.187,-0.258l0.189,-0.26l0.191,-0.26l0.192,-0.262l0.195,-0.262l0.196,-0.263l0.198,-0.265l0.199,-0.265l0.202,-0.266l0.205,-0.27l0.41,-0.535l0.418,-0.542l0.425,-0.547l0.432,-0.551l0.439,-0.555l0.445,-0.56l0.452,-0.565l0.458,-0.57l0.465,-0.574l0.471,-0.58l0.477,-0.585l0.484,-0.59l0.49,-0.595l0.496,-0.6l0.501,-0.606l0.508,-0.612l0.514,-0.617l0.52,-0.624l1.055,-1.262l1.079,-1.287l2.221,-2.646l1.142,-1.361l1.162,-1.388l1.182,-1.414l0.598,-0.716l0.602,-0.724l0.607,-0.73l0.612,-0.738l0.616,-0.744l0.62,-0.752l0.625,-0.759l0.388,-0.472l-0.406,-0.504l-1.311,-1.631l-2.628,-3.265l-1.313,-1.632l-1.31,-1.631l-1.306,-1.628l-1.3,-1.624l-0.648,-0.811l-0.645,-0.809l-0.643,-0.808l-0.641,-0.806l-0.638,-0.804l-0.636,-0.802l-0.632,-0.8l-0.629,-0.798l-0.626,-0.796l-0.622,-0.793l-0.618,-0.791l-0.615,-0.788l-0.61,-0.785l-0.606,-0.782l-0.601,-0.779l-0.597,-0.776l-0.591,-0.772l-0.587,-0.769l-0.581,-0.766l-0.576,-0.761l-0.57,-0.758l-0.565,-0.754l-0.558,-0.749l-0.552,-0.746l-0.545,-0.741l-0.539,-0.736l-0.533,-0.732l-0.524,-0.726l-0.261,-0.363l-0.258,-0.361l-0.256,-0.359l-0.255,-0.358l-0.252,-0.357l-0.251,-0.356l-0.248,-0.354l-0.247,-0.353l-0.245,-0.352l-0.243,-0.351l-0.241,-0.349l-0.238,-0.348l-0.237,-0.346l-0.235,-0.345l-0.232,-0.344l-0.24,-0.356l-0.086,-0.13l-0.093,-0.146l-0.091,-0.149l-0.089,-0.15l-0.087,-0.153l-0.084,-0.154l-0.082,-0.157l-0.079,-0.159l-0.076,-0.162l-0.074,-0.164l-0.071,-0.166l-0.068,-0.169l-0.065,-0.17l-0.061,-0.174l-0.058,-0.175l-0.055,-0.178l-0.051,-0.18l-0.047,-0.182l-0.043,-0.184l-0.038,-0.186l-0.035,-0.188l-0.03,-0.19l-0.026,-0.191l-0.02,-0.192l-0.016,-0.193l-0.012,-0.195l-0.006,-0.195l-0.001,-0.195l0.003,-0.196l0.009,-0.195l0.014,-0.196l0.019,-0.194l0.024,-0.194l0.029,-0.193l0.033,-0.192l0.039,-0.19l0.043,-0.189l0.048,-0.187l0.052,-0.184l0.057,-0.182l0.061,-0.18l0.064,-0.177l0.069,-0.175l0.072,-0.171l0.076,-0.169l0.079,-0.165l0.082,-0.163l0.085,-0.159l0.088,-0.156l0.09,-0.153l0.093,-0.15l0.096,-0.147l0.097,-0.143l0.099,-0.141l0.102,-0.137l0.103,-0.134l0.104,-0.132l0.106,-0.128l0.108,-0.125l0.109,-0.123l0.11,-0.12l0.112,-0.117l0.112,-0.115l0.114,-0.112l0.115,-0.11l0.115,-0.107l0.117,-0.105l0.117,-0.103l0.118,-0.101l0.119,-0.099l0.12,-0.096l0.12,-0.095l0.122,-0.093l0.121,-0.091l0.123,-0.09l0.123,-0.087l0.124,-0.086l0.125,-0.085l0.125,-0.083l0.126,-0.082l0.127,-0.08l0.127,-0.078l0.128,-0.078l0.129,-0.076l0.129,-0.075l0.13,-0.074l0.131,-0.073l0.131,-0.071l0.132,-0.07l0.133,-0.07l0.133,-0.068l0.134,-0.068l0.134,-0.066l0.136,-0.066l0.136,-0.064l0.137,-0.064l0.137,-0.063l0.138,-0.062l0.139,-0.061l0.14,-0.06l0.14,-0.06l0.141,-0.059l0.142,-0.058l0.149,-0.06l0.28,-0.11l0.29,-0.11l0.293,-0.108l0.297,-0.105l0.299,-0.103l0.302,-0.1l0.305,-0.099l0.308,-0.096l0.312,-0.094l0.314,-0.092l0.318,-0.09l0.32,-0.088l0.323,-0.086l0.327,-0.085l0.329,-0.082l0.333,-0.081l0.335,-0.079l0.338,-0.078l0.341,-0.076l0.345,-0.074l0.346,-0.073l0.35,-0.071l0.353,-0.069l0.355,-0.068l0.358,-0.066l0.36,-0.065l0.364,-0.063l0.366,-0.062l0.368,-0.061l0.371,-0.059l0.374,-0.057l0.375,-0.056l0.379,-0.055l0.38,-0.053l0.383,-0.052l0.386,-0.05l0.387,-0.049l0.39,-0.048l0.391,-0.046l0.394,-0.045l0.396,-0.044l0.398,-0.042l0.399,-0.041l0.402,-0.039l0.403,-0.038l0.405,-0.037l0.407,-0.036l0.409,-0.034l0.41,-0.033l0.411,-0.031l0.413,-0.03l0.415,-0.029l0.416,-0.028l0.417,-0.026l0.419,-0.025l0.42,-0.024l0.421,-0.022l0.422,-0.021l0.423,-0.02l0.424,-0.018l0.425,-0.018l0.426,-0.016l0.427,-0.014l0.427,-0.013l0.429,-0.013l0.428,-0.01l0.43,-0.01l0.43,-0.008l0.431,-0.007l0.431,-0.006l0.431,-0.004l0.432,-0.003l0.432,-0.002l0.432,-0.001l0.432,0.001Zm1.448,64.956l-0.624,0.753l-0.618,0.746l-0.613,0.738l-0.608,0.73l-0.603,0.723l-1.189,1.423l-1.168,1.394l-1.145,1.365l-2.22,2.644l-1.072,1.28l-1.048,1.253l-0.513,0.615l-0.507,0.609l-0.5,0.602l-0.493,0.596l-0.486,0.589l-0.479,0.582l-0.472,0.576l-0.465,0.569l-0.457,0.562l-0.45,0.556l-0.442,0.549l-0.434,0.543l-0.426,0.537l-0.419,0.53l-0.411,0.523l-0.402,0.518l-0.394,0.51l-0.388,0.507l-0.188,0.248l-0.188,0.248l-0.186,0.246l-0.183,0.245l-0.181,0.244l-0.179,0.241l-0.177,0.241l-0.175,0.238l-0.173,0.237l-0.17,0.236l-0.168,0.233l-0.166,0.233l-0.163,0.23l-0.162,0.229l-0.159,0.227l-0.157,0.226l-0.154,0.224l-0.152,0.223l-0.15,0.221l-0.148,0.219l-0.145,0.217l-0.142,0.216l-0.141,0.215l-0.138,0.212l-0.135,0.211l-0.134,0.21l-0.13,0.207l-0.129,0.206l-0.126,0.204l-0.123,0.203l-0.121,0.201l-0.119,0.199l-0.116,0.197l-0.113,0.196l-0.112,0.194l-0.108,0.192l-0.106,0.19l-0.104,0.189l-0.101,0.187l-0.099,0.184l-0.096,0.184l-0.093,0.181l-0.091,0.179l-0.089,0.178l-0.086,0.176l-0.083,0.173l-0.081,0.172l-0.079,0.17l-0.076,0.168l-0.073,0.166l-0.071,0.165l-0.068,0.162l-0.066,0.16l-0.063,0.158l-0.061,0.156l-0.059,0.154l-0.056,0.152l-0.053,0.15l-0.051,0.148l-0.049,0.145l-0.046,0.144l-0.044,0.141l-0.042,0.14l-0.039,0.137l-0.037,0.135l-0.035,0.133l-0.033,0.131l-0.03,0.129l-0.028,0.126l-0.026,0.124l-0.024,0.123l-0.022,0.12l-0.02,0.118l-0.018,0.116l-0.016,0.114l-0.014,0.111l-0.012,0.11l-0.011,0.108l-0.009,0.106l-0.006,0.104l-0.006,0.102l-0.003,0.1l-0.002,0.099l-0.001,0.096l0.001,0.02l0.002,0.021l0.002,0.018l0.005,0.021l0.005,0.018l0.005,0.016l0.007,0.017l0.008,0.02l0.009,0.022l0.013,0.026l0.007,0.014l0.007,0.015l0.009,0.016l0.009,0.017l0.01,0.017l0.011,0.018l0.012,0.019l0.012,0.02l0.014,0.021l0.014,0.022l0.016,0.022l0.016,0.024l0.018,0.024l0.018,0.025l0.02,0.026l0.021,0.026l0.022,0.028l0.023,0.028l0.024,0.029l0.026,0.029l0.027,0.03l0.028,0.031l0.029,0.032l0.031,0.033l0.031,0.032l0.033,0.034l0.035,0.034l0.036,0.035l0.037,0.035l0.038,0.036l0.04,0.037l0.041,0.037l0.042,0.037l0.044,0.038l0.045,0.038l0.047,0.039l0.048,0.039l0.049,0.039l0.05,0.04l0.052,0.041l0.053,0.04l0.055,0.041l0.056,0.041l0.057,0.042l0.059,0.042l0.059,0.042l0.062,0.042l0.062,0.042l0.064,0.043l0.065,0.043l0.067,0.043l0.068,0.043l0.069,0.043l0.07,0.044l0.072,0.044l0.072,0.043l0.075,0.044l0.075,0.044l0.077,0.044l0.071,0.04l0.166,0.092l0.165,0.088l0.169,0.089l0.174,0.088l0.178,0.088l0.183,0.088l0.188,0.088l0.192,0.088l0.196,0.087l0.201,0.087l0.205,0.086l0.209,0.086l0.213,0.085l0.217,0.085l0.221,0.084l0.225,0.083l0.229,0.083l0.232,0.082l0.237,0.081l0.239,0.081l0.244,0.08l0.246,0.078l0.251,0.078l0.253,0.077l0.257,0.077l0.26,0.075l0.263,0.074l0.266,0.074l0.269,0.072l0.272,0.071l0.276,0.071l0.277,0.069l0.281,0.068l0.283,0.068l0.286,0.066l0.289,0.065l0.291,0.064l0.294,0.063l0.296,0.062l0.298,0.06l0.301,0.06l0.303,0.058l0.305,0.058l0.307,0.056l0.31,0.055l0.311,0.053l0.314,0.053l0.315,0.051l0.317,0.051l0.319,0.049l0.321,0.048l0.322,0.046l0.324,0.046l0.326,0.044l0.327,0.043l0.328,0.042l0.33,0.04l0.332,0.04l0.332,0.038l0.334,0.037l0.336,0.035l0.336,0.035l0.338,0.033l0.338,0.032l0.34,0.03l0.34,0.03l0.342,0.028l0.342,0.027l0.343,0.025l0.344,0.025l0.345,0.023l0.345,0.021l0.346,0.021l0.346,0.019l0.347,0.018l0.347,0.017l0.348,0.015l0.348,0.014l0.349,0.013l0.348,0.012l0.349,0.01l0.349,0.009l0.349,0.008l0.349,0.006l0.349,0.005l0.349,0.004l0.349,0.003l0.349,0.001l0.348,0l0.349,-0.001l0.348,-0.003l0.347,-0.004l0.347,-0.005l0.347,-0.006l0.346,-0.008l0.346,-0.009l0.345,-0.01l0.344,-0.012l0.344,-0.013l0.343,-0.014l0.342,-0.015l0.341,-0.017l0.34,-0.018l0.34,-0.02l0.338,-0.02l0.337,-0.022l0.336,-0.023l0.335,-0.025l0.334,-0.025l0.332,-0.027l0.331,-0.029l0.329,-0.029l0.329,-0.031l0.326,-0.032l0.325,-0.033l0.324,-0.035l0.322,-0.036l0.32,-0.037l0.318,-0.038l0.317,-0.04l0.314,-0.04l0.313,-0.043l0.311,-0.043l0.308,-0.044l0.307,-0.046l0.304,-0.047l0.302,-0.048l0.3,-0.049l0.298,-0.051l0.295,-0.052l0.293,-0.052l0.29,-0.055l0.288,-0.055l0.285,-0.056l0.282,-0.058l0.28,-0.058l0.276,-0.06l0.274,-0.061l0.271,-0.062l0.268,-0.063l0.265,-0.064l0.262,-0.065l0.259,-0.066l0.255,-0.067l0.252,-0.068l0.249,-0.069l0.245,-0.07l0.242,-0.071l0.238,-0.072l0.235,-0.073l0.23,-0.073l0.227,-0.074l0.224,-0.076l0.219,-0.075l0.215,-0.077l0.211,-0.077l0.207,-0.078l0.203,-0.079l0.198,-0.079l0.194,-0.079l0.19,-0.08l0.185,-0.08l0.18,-0.081l0.176,-0.081l0.171,-0.081l0.166,-0.081l0.162,-0.081l0.163,-0.084l0.069,-0.037l0.075,-0.041l0.074,-0.04l0.073,-0.04l0.071,-0.041l0.07,-0.04l0.068,-0.04l0.068,-0.04l0.066,-0.04l0.064,-0.039l0.063,-0.039l0.062,-0.04l0.061,-0.039l0.059,-0.039l0.058,-0.038l0.056,-0.038l0.056,-0.038l0.054,-0.038l0.052,-0.038l0.051,-0.037l0.049,-0.037l0.049,-0.036l0.047,-0.036l0.045,-0.036l0.044,-0.035l0.043,-0.035l0.041,-0.034l0.04,-0.034l0.039,-0.034l0.037,-0.032l0.036,-0.033l0.035,-0.032l0.033,-0.031l0.032,-0.03l0.03,-0.03l0.029,-0.029l0.028,-0.029l0.027,-0.028l0.025,-0.027l0.024,-0.027l0.023,-0.025l0.022,-0.025l0.021,-0.025l0.019,-0.023l0.018,-0.023l0.017,-0.022l0.016,-0.02l0.015,-0.02l0.014,-0.02l0.013,-0.018l0.012,-0.018l0.011,-0.016l0.01,-0.016l0.009,-0.015l0.008,-0.014l0.008,-0.013l0.007,-0.013l0.006,-0.011l0.006,-0.01l0.005,-0.01l0.004,-0.01l0.004,-0.008l0.003,-0.007l0.003,-0.007l0.003,-0.006l0.002,-0.005l0.002,-0.005l0.001,-0.004l0.001,-0.004l0.001,-0.003l0.001,-0.003l0.001,-0.002l0,-0.002l0.001,-0.002l0,-0.002l0.001,-0.002l0,-0.001l0,-0.001l0,-0.002l0.001,-0.002l0,-0.001l0,-0.002l0,-0.003l0,-0.003l0.001,-0.003l0,-0.004l0,-0.004l0,-0.011l0,-0.025l-0.001,-0.033l-0.001,-0.034l-0.002,-0.036l-0.002,-0.038l-0.002,-0.04l-0.004,-0.041l-0.003,-0.043l-0.005,-0.045l-0.004,-0.047l-0.006,-0.049l-0.006,-0.049l-0.007,-0.052l-0.008,-0.053l-0.008,-0.055l-0.009,-0.056l-0.01,-0.058l-0.01,-0.06l-0.012,-0.061l-0.012,-0.062l-0.013,-0.064l-0.013,-0.065l-0.015,-0.067l-0.013,-0.06l-0.036,-0.149l-0.036,-0.146l-0.041,-0.151l-0.043,-0.157l-0.047,-0.161l-0.051,-0.166l-0.055,-0.171l-0.057,-0.176l-0.062,-0.18l-0.065,-0.184l-0.069,-0.189l-0.072,-0.193l-0.076,-0.197l-0.08,-0.201l-0.083,-0.205l-0.087,-0.208l-0.09,-0.213l-0.094,-0.215l-0.097,-0.22l-0.101,-0.223l-0.104,-0.226l-0.108,-0.23l-0.111,-0.233l-0.114,-0.236l-0.118,-0.24l-0.121,-0.243l-0.125,-0.245l-0.128,-0.249l-0.131,-0.251l-0.134,-0.255l-0.137,-0.257l-0.141,-0.26l-0.144,-0.263l-0.147,-0.266l-0.15,-0.268l-0.153,-0.271l-0.157,-0.274l-0.159,-0.276l-0.162,-0.278l-0.165,-0.281l-0.168,-0.284l-0.171,-0.286l-0.174,-0.288l-0.177,-0.291l-0.179,-0.293l-0.183,-0.295l-0.185,-0.298l-0.188,-0.299l-0.19,-0.302l-0.193,-0.304l-0.196,-0.306l-0.199,-0.309l-0.201,-0.31l-0.203,-0.312l-0.207,-0.315l-0.208,-0.316l-0.212,-0.318l-0.213,-0.321l-0.216,-0.322l-0.219,-0.324l-0.221,-0.326l-0.223,-0.328l-0.225,-0.329l-0.228,-0.331l-0.23,-0.334l-0.233,-0.334l-0.234,-0.337l-0.237,-0.338l-0.239,-0.34l-0.241,-0.342l-0.243,-0.343l-0.245,-0.344l-0.247,-0.347l-0.248,-0.346l-0.506,-0.702l-0.512,-0.706l-0.52,-0.712l-0.527,-0.718l-0.535,-0.723l-0.541,-0.729l-0.548,-0.733l-0.555,-0.739l-0.561,-0.743l-0.567,-0.748l-0.573,-0.752l-0.579,-0.757l-0.584,-0.76l-0.59,-0.765l-0.594,-0.769l-0.6,-0.772l-0.604,-0.776l-0.609,-0.779l-0.613,-0.783l-0.617,-0.785l-0.621,-0.789l-0.625,-0.791l-0.628,-0.794l-0.632,-0.797l-0.513,-0.645l-0.349,0.424Zm-2.285,-55.263l-0.404,0.002l-0.403,0.002l-0.402,0.005l-0.403,0.005l-0.401,0.006l-0.401,0.008l-0.401,0.009l-0.4,0.01l-0.398,0.011l-0.398,0.012l-0.397,0.014l-0.396,0.015l-0.395,0.016l-0.394,0.017l-0.393,0.018l-0.391,0.02l-0.39,0.021l-0.388,0.021l-0.387,0.024l-0.385,0.024l-0.384,0.025l-0.382,0.027l-0.38,0.028l-0.378,0.029l-0.376,0.03l-0.374,0.031l-0.372,0.032l-0.37,0.034l-0.367,0.035l-0.366,0.036l-0.363,0.037l-0.36,0.038l-0.358,0.039l-0.355,0.041l-0.352,0.041l-0.35,0.043l-0.347,0.044l-0.344,0.045l-0.341,0.046l-0.337,0.047l-0.335,0.049l-0.331,0.049l-0.328,0.051l-0.324,0.051l-0.321,0.053l-0.317,0.053l-0.314,0.055l-0.31,0.056l-0.306,0.057l-0.302,0.057l-0.298,0.059l-0.293,0.06l-0.29,0.06l-0.285,0.062l-0.281,0.062l-0.276,0.063l-0.271,0.065l-0.267,0.064l-0.262,0.066l-0.257,0.067l-0.252,0.067l-0.246,0.068l-0.242,0.068l-0.235,0.069l-0.231,0.07l-0.224,0.07l-0.219,0.07l-0.213,0.071l-0.207,0.071l-0.201,0.071l-0.194,0.071l-0.188,0.072l-0.188,0.074l-0.081,0.032l-0.086,0.036l-0.085,0.035l-0.083,0.035l-0.081,0.035l-0.079,0.035l-0.077,0.035l-0.076,0.035l-0.074,0.034l-0.072,0.034l-0.07,0.034l-0.068,0.034l-0.066,0.033l-0.006,0.003l0.141,0.206l0.226,0.331l0.229,0.332l0.232,0.333l0.233,0.336l0.236,0.337l0.238,0.339l0.24,0.34l0.242,0.343l0.244,0.343l0.246,0.346l0.248,0.347l0.25,0.346l0.507,0.704l0.515,0.707l0.521,0.713l0.53,0.719l0.536,0.724l0.543,0.729l0.55,0.735l0.556,0.739l0.563,0.744l0.569,0.749l0.574,0.753l0.58,0.758l0.586,0.761l0.591,0.766l0.596,0.769l0.601,0.773l0.605,0.777l0.61,0.779l0.614,0.784l0.619,0.786l0.622,0.789l0.625,0.792l0.629,0.794l0.633,0.797l0.635,0.799l0.638,0.801l0.641,0.804l0.643,0.804l1.294,1.617l1.3,1.621l1.307,1.626l1.31,1.629l2.627,3.265l0.397,0.492l0.51,-0.644l0.67,-0.85l0.673,-0.857l0.676,-0.865l0.68,-0.874l0.682,-0.881l0.685,-0.89l0.688,-0.898l0.692,-0.908l0.346,-0.455l0.347,-0.458l0.348,-0.461l0.348,-0.463l0.349,-0.464l0.35,-0.467l0.35,-0.469l0.351,-0.472l0.352,-0.473l0.352,-0.475l0.353,-0.478l0.353,-0.48l0.354,-0.482l0.354,-0.484l0.355,-0.487l0.355,-0.489l0.356,-0.49l0.357,-0.494l0.357,-0.495l0.357,-0.498l0.358,-0.499l0.359,-0.502l0.359,-0.505l0.359,-0.506l0.36,-0.509l0.36,-0.511l0.361,-0.514l0.361,-0.516l0.361,-0.518l0.362,-0.52l0.362,-0.523l0.363,-0.525l0.363,-0.527l0.363,-0.53l0.363,-0.532l0.364,-0.535l0.365,-0.537l0.364,-0.539l0.365,-0.541l0.365,-0.544l0.366,-0.547l0.366,-0.548l0.366,-0.551l0.366,-0.554l0.366,-0.556l0.367,-0.559l0.367,-0.56l0.367,-0.564l0.367,-0.566l0.368,-0.568l0.368,-0.571l0.367,-0.573l0.368,-0.575l0.332,-0.52l-0.028,-0.015l-0.066,-0.034l-0.068,-0.035l-0.07,-0.034l-0.071,-0.036l-0.074,-0.035l-0.075,-0.036l-0.078,-0.036l-0.079,-0.036l-0.08,-0.036l-0.083,-0.036l-0.085,-0.037l-0.079,-0.034l-0.184,-0.076l-0.184,-0.074l-0.191,-0.074l-0.197,-0.074l-0.203,-0.074l-0.21,-0.074l-0.215,-0.074l-0.221,-0.074l-0.227,-0.073l-0.233,-0.073l-0.238,-0.072l-0.243,-0.072l-0.249,-0.071l-0.254,-0.071l-0.259,-0.07l-0.264,-0.069l-0.268,-0.069l-0.273,-0.067l-0.278,-0.068l-0.283,-0.066l-0.286,-0.065l-0.291,-0.065l-0.296,-0.064l-0.299,-0.062l-0.304,-0.062l-0.307,-0.061l-0.311,-0.06l-0.315,-0.06l-0.319,-0.058l-0.322,-0.057l-0.325,-0.056l-0.329,-0.055l-0.333,-0.054l-0.335,-0.053l-0.339,-0.052l-0.342,-0.051l-0.345,-0.05l-0.348,-0.049l-0.35,-0.048l-0.354,-0.047l-0.356,-0.045l-0.359,-0.045l-0.361,-0.044l-0.363,-0.042l-0.367,-0.041l-0.368,-0.04l-0.37,-0.039l-0.373,-0.038l-0.375,-0.037l-0.377,-0.036l-0.379,-0.034l-0.38,-0.034l-0.383,-0.032l-0.384,-0.031l-0.386,-0.03l-0.387,-0.029l-0.389,-0.027l-0.39,-0.027l-0.392,-0.025l-0.393,-0.024l-0.394,-0.023l-0.395,-0.022l-0.396,-0.021l-0.398,-0.019l-0.398,-0.019l-0.399,-0.017l-0.4,-0.016l-0.401,-0.015l-0.401,-0.013l-0.402,-0.013l-0.402,-0.011l-0.403,-0.01l-0.403,-0.009l-0.404,-0.008l-0.404,-0.007l-0.404,-0.005l-0.404,-0.004l-0.404,-0.003l-0.404,-0.002l-0.403,-0.001l-0.404,0.001Z" style="fill:#f00;"/></g></svg>