<?xml version="1.0" encoding="UTF-8" standalone="no"?><!DOCTYPE svg PUBLIC "-//W3C//DTD SVG 1.1//EN" "http://www.w3.org/Graphics/SVG/1.1/DTD/svg11.dtd"><svg width="100%" height="100%" viewBox="0 0 36 36" version="1.1" xmlns="http://www.w3.org/2000/svg" xmlns:xlink="http://www.w3.org/1999/xlink" xml:space="preserve" xmlns:serif="http://www.serif.com/" style="fill-rule:evenodd;clip-rule:evenodd;stroke-linejoin:round;stroke-miterlimit:2;"><clipPath id="_clip1"><rect id="crawling-baby-silhouette" x="0" y="0" width="36" height="36"/></clipPath><g clip-path="url(#_clip1)"><g><path d="M6.385,25.111l-4.231,0c0,0 -2.154,-0.003 -2.154,3.279c0.102,2.12 1.756,2.459 2.051,2.459l8.615,0c0,0 2.158,0.002 2.254,-2.587c0.003,-0.099 0.011,-0.003 0.012,-0.102c0.005,-0.383 0,-2.359 0,-2.359c0.006,-0.281 0.22,-0.6 0.51,-0.6l6.746,0c0.099,0 0.185,0.08 0.194,0.179l1.593,3.604c0.595,1.473 1.751,2.555 3.681,1.86c1.828,-0.658 1.923,-2.106 1.6,-3.123l-3.962,-12.011c-0.596,-1.423 -2.098,-2.253 -3.978,-2.253l-4.034,0l-5.256,0c-5.029,0 -9.248,5.859 -3.536,11.491c0.04,0.091 -0.006,0.163 -0.105,0.163Z" style="fill:#f00;fill-rule:nonzero;"/><circle cx="29.758" cy="11.182" r="6.242" style="fill:#f00;"/></g></g></svg>