<?xml version="1.0" encoding="UTF-8" standalone="no"?><!DOCTYPE svg PUBLIC "-//W3C//DTD SVG 1.1//EN" "http://www.w3.org/Graphics/SVG/1.1/DTD/svg11.dtd"><svg width="100%" height="100%" viewBox="0 0 130 130" version="1.1" xmlns="http://www.w3.org/2000/svg" xmlns:xlink="http://www.w3.org/1999/xlink" xml:space="preserve" xmlns:serif="http://www.serif.com/" style="fill-rule:evenodd;clip-rule:evenodd;stroke-linejoin:round;stroke-miterlimit:2;"><path d="M18.227,20.71l0,39.96c0,37.995 46.773,59.187 46.773,59.187c0,0 46.773,-21.192 46.773,-59.187l0,-39.96c0,0 -16.746,-10.567 -46.773,-10.567c-30.027,0 -46.773,10.567 -46.773,10.567Z" style="fill:#f00;fill-rule:nonzero;"/><g><path d="M88.271,71.641c0,0 -6.236,15.88 -23.271,15.88c-17.035,0 -23.271,-15.88 -23.271,-15.88c0,0 23.271,15.88 46.542,0Z" style="fill:#fff;fill-rule:nonzero;"/><path d="M58.314,43.019c-3.444,-5.986 -12.778,-8.768 -20.849,-6.213c-3.768,1.192 -6.77,3.419 -8.378,6.213l29.227,0Z" style="fill:#fff;fill-rule:nonzero;"/><path d="M100.913,43.019c-3.444,-5.986 -12.779,-8.768 -20.85,-6.213c-3.768,1.192 -6.769,3.419 -8.377,6.213l29.227,0Z" style="fill:#fff;fill-rule:nonzero;"/></g></svg>