<?xml version="1.0" encoding="UTF-8" standalone="no"?><!DOCTYPE svg PUBLIC "-//W3C//DTD SVG 1.1//EN" "http://www.w3.org/Graphics/SVG/1.1/DTD/svg11.dtd"><svg width="100%" height="100%" viewBox="0 0 150 150" version="1.1" xmlns="http://www.w3.org/2000/svg" xmlns:xlink="http://www.w3.org/1999/xlink" xml:space="preserve" xmlns:serif="http://www.serif.com/" style="fill-rule:evenodd;clip-rule:evenodd;stroke-linejoin:round;stroke-miterlimit:2;"><g><g><path d="M6.705,41.477l0.366,0.085l0.366,0.085l0.366,0.087l0.366,0.089l0.366,0.089l0.365,0.091l0.365,0.093l0.365,0.093l0.365,0.095l0.364,0.096l0.364,0.097l0.364,0.099l0.364,0.1l0.363,0.101l0.363,0.103l0.363,0.103l0.363,0.105l0.362,0.106l0.362,0.108l0.361,0.108l0.362,0.11l0.361,0.111l0.36,0.112l0.36,0.113l0.36,0.115l0.36,0.116l0.359,0.117l0.359,0.118l0.358,0.119l0.358,0.12l0.358,0.122l0.357,0.123l0.357,0.123l0.356,0.125l0.356,0.126l0.355,0.128l0.355,0.128l0.355,0.129l0.354,0.131l0.353,0.132l0.354,0.132l0.352,0.134l0.352,0.135l0.352,0.136l0.351,0.137l0.351,0.138l0.35,0.139l0.349,0.14l0.349,0.142l0.349,0.142l0.348,0.143l0.347,0.144l0.347,0.146l0.346,0.146l0.346,0.148l0.345,0.148l0.344,0.149l0.344,0.151l0.343,0.151l0.343,0.153l0.341,0.153l0.342,0.154l0.34,0.155l0.34,0.157l0.34,0.157l0.338,0.158l0.338,0.159l0.337,0.16l0.337,0.161l0.336,0.162l0.335,0.163l0.334,0.164l0.334,0.164l0.333,0.166l0.332,0.166l0.332,0.167l0.33,0.169l0.33,0.169l0.329,0.17l0.329,0.171l0.327,0.171l0.327,0.173l0.326,0.173l0.325,0.175l0.324,0.175l0.324,0.176l0.323,0.177l0.321,0.177l0.321,0.179l0.32,0.179l0.32,0.18l0.318,0.181l0.318,0.182l0.316,0.182l0.316,0.184l0.315,0.184l0.313,0.185l0.313,0.185l0.312,0.187l0.311,0.187l0.31,0.188l0.31,0.189l0.308,0.189l0.307,0.19l0.306,0.191l0.305,0.192l0.305,0.192l0.303,0.194l0.302,0.194l0.301,0.194l0.301,0.196l0.299,0.196l0.298,0.196l0.297,0.198l0.296,0.198l0.295,0.199l0.294,0.199l0.293,0.2l0.291,0.201l0.291,0.202l0.289,0.202l0.289,0.203l0.287,0.203l0.286,0.205l0.285,0.204l0.284,0.206l0.283,0.206l0.281,0.207l0.281,0.207l0.279,0.208l0.278,0.209l0.277,0.209l0.275,0.21l0.275,0.21l0.273,0.211l0.272,0.212l0.271,0.212l0.269,0.213l0.269,0.214l0.267,0.214l0.265,0.214l0.265,0.215l0.263,0.216l0.262,0.216l0.26,0.217l0.26,0.218l0.258,0.218l0.256,0.218l0.256,0.219l0.254,0.22l0.252,0.22l0.252,0.221l0.25,0.221l0.248,0.222l0.248,0.222l0.245,0.223l0.245,0.223l0.243,0.224l0.242,0.224l0.24,0.225l0.239,0.225l0.237,0.226l0.236,0.226l0.234,0.227l0.233,0.228l0.232,0.227l0.23,0.229l0.229,0.229l0.227,0.229l0.225,0.23l0.224,0.23l0.223,0.23l0.221,0.232l0.22,0.231l0.218,0.232l0.216,0.233l0.215,0.233l0.213,0.233l0.212,0.234l0.21,0.235l0.209,0.234l0.206,0.236l0.206,0.235l0.204,0.236l0.202,0.237l0.2,0.237l0.199,0.238l0.197,0.237l0.195,0.239l0.194,0.239l0.192,0.239l0.191,0.239l0.189,0.24l0.187,0.241l0.185,0.241l0.183,0.241l0.182,0.242l0.18,0.242l0.178,0.243l0.177,0.243l0.175,0.243l0.173,0.244l0.171,0.244l0.169,0.245l0.168,0.245l0.165,0.245l0.164,0.246l0.162,0.247l0.16,0.246l0.158,0.247l0.157,0.248l0.154,0.248l0.153,0.248l0.15,0.249l0.149,0.249l0.146,0.25l0.145,0.25l0.143,0.251l0.141,0.25l0.138,0.252l0.137,0.251l0.135,0.252l0.132,0.253l0.131,0.253l0.129,0.253l0.126,0.254l0.124,0.254l0.123,0.255l0.12,0.255l0.118,0.255l0.115,0.256l0.114,0.256l0.111,0.257l0.11,0.257l0.107,0.257l0.104,0.258l0.103,0.258l0.1,0.259l0.098,0.259l0.095,0.259l0.094,0.26l0.091,0.26l0.088,0.261l0.086,0.261l0.084,0.261l0.081,0.262l0.079,0.262l0.077,0.263l0.073,0.262l0.072,0.264l0.069,0.263l0.066,0.264l0.064,0.265l0.061,0.264l0.055,0.249l0.056,0.257l0.053,0.239l0.054,0.238l0.055,0.236l0.055,0.236l0.056,0.233l0.057,0.233l0.058,0.231l0.058,0.229l0.06,0.229l0.059,0.227l0.061,0.225l0.061,0.225l0.062,0.223l0.063,0.221l0.063,0.221l0.064,0.219l0.065,0.217l0.066,0.217l0.066,0.215l0.067,0.213l0.067,0.213l0.068,0.211l0.069,0.209l0.07,0.209l0.07,0.207l0.071,0.206l0.071,0.204l0.072,0.203l0.073,0.202l0.073,0.201l0.074,0.199l0.075,0.199l0.075,0.196l0.076,0.196l0.076,0.194l0.077,0.193l0.078,0.192l0.078,0.191l0.079,0.189l0.079,0.188l0.08,0.186l0.081,0.186l0.081,0.184l0.082,0.183l0.082,0.182l0.083,0.181l0.084,0.179l0.083,0.178l0.085,0.177l0.085,0.176l0.086,0.174l0.086,0.174l0.087,0.172l0.087,0.17l0.088,0.17l0.088,0.169l0.089,0.167l0.089,0.166l0.09,0.165l0.091,0.164l0.09,0.163l0.092,0.161l0.092,0.16l0.092,0.16l0.093,0.158l0.093,0.156l0.094,0.156l0.095,0.155l0.094,0.153l0.096,0.153l0.095,0.151l0.097,0.15l0.096,0.149l0.098,0.148l0.097,0.146l0.098,0.146l0.099,0.145l0.099,0.143l0.099,0.143l0.1,0.141l0.101,0.14l0.1,0.139l0.101,0.138l0.102,0.137l0.102,0.136l0.103,0.135l0.103,0.134l0.103,0.133l0.104,0.132l0.104,0.13l0.105,0.13l0.105,0.129l0.105,0.127l0.106,0.127l0.106,0.126l0.107,0.124l0.107,0.124l0.107,0.122l0.108,0.122l0.108,0.121l0.109,0.119l0.109,0.119l0.109,0.117l0.11,0.117l0.11,0.116l0.111,0.115l0.111,0.113l0.111,0.113l0.112,0.112l0.112,0.111l0.112,0.11l0.113,0.109l0.114,0.108l0.113,0.107l0.114,0.106l0.114,0.106l0.115,0.104l0.115,0.104l0.116,0.102l0.115,0.102l0.117,0.101l0.116,0.1l0.117,0.098l0.117,0.098l0.118,0.098l0.118,0.096l0.118,0.095l0.118,0.095l0.119,0.094l0.12,0.092l0.119,0.092l0.121,0.091l0.12,0.091l0.121,0.089l0.121,0.088l0.121,0.088l0.122,0.087l0.122,0.086l0.122,0.085l0.123,0.084l0.123,0.084l0.124,0.082l0.123,0.082l0.125,0.081l0.124,0.08l0.125,0.079l0.125,0.079l0.125,0.078l0.126,0.076l0.126,0.077l0.127,0.075l0.126,0.074l0.128,0.074l0.127,0.073l0.128,0.072l0.128,0.071l0.128,0.071l0.129,0.07l0.129,0.068l0.129,0.069l0.13,0.067l0.13,0.067l0.13,0.065l0.131,0.065l0.131,0.065l0.131,0.063l0.132,0.063l0.131,0.062l0.133,0.061l0.132,0.061l0.133,0.059l0.133,0.059l0.133,0.058l0.134,0.058l0.134,0.056l0.134,0.056l0.135,0.056l0.135,0.054l0.135,0.054l0.136,0.053l0.135,0.052l0.136,0.051l0.137,0.051l0.136,0.05l0.137,0.049l0.138,0.049l0.137,0.048l0.138,0.047l0.138,0.046l0.138,0.046l0.139,0.044l0.139,0.045l0.139,0.043l0.139,0.043l0.14,0.042l0.14,0.041l0.14,0.041l0.141,0.039l0.14,0.039l0.141,0.039l0.142,0.038l0.141,0.037l0.142,0.036l0.142,0.035l0.142,0.035l0.143,0.034l0.142,0.034l0.144,0.033l0.143,0.032l0.143,0.031l0.144,0.03l0.144,0.03l0.144,0.03l0.145,0.028l0.144,0.028l0.145,0.027l0.145,0.027l0.145,0.025l0.146,0.025l0.146,0.025l0.145,0.023l0.147,0.023l0.146,0.023l0.147,0.021l0.146,0.021l0.147,0.021l0.147,0.019l0.148,0.019l0.147,0.018l0.148,0.018l0.148,0.017l0.148,0.016l0.148,0.015l0.148,0.015l0.149,0.014l0.148,0.014l0.149,0.012l0.15,0.013l0.149,0.011l0.149,0.011l0.15,0.01l0.149,0.009l0.15,0.009l0.15,0.008l0.15,0.008l0.15,0.007l0.151,0.006l0.15,0.005l0.151,0.005l0.151,0.004l0.145,0.004l0.307,0.005l0.303,0.002l0.303,0l0.303,-0.003l0.304,-0.005l0.304,-0.008l0.304,-0.01l0.305,-0.013l0.305,-0.016l0.305,-0.018l0.305,-0.02l0.306,-0.023l0.305,-0.026l0.306,-0.028l0.306,-0.03l0.305,-0.033l0.306,-0.035l0.306,-0.038l0.306,-0.04l0.306,-0.043l0.305,-0.044l0.306,-0.048l0.305,-0.049l0.306,-0.052l0.304,-0.055l0.305,-0.056l0.305,-0.059l0.304,-0.061l0.304,-0.064l0.303,-0.066l0.303,-0.068l0.303,-0.07l0.302,-0.072l0.302,-0.075l0.301,-0.077l0.301,-0.079l0.3,-0.081l0.3,-0.083l0.299,-0.085l0.298,-0.088l0.297,-0.089l0.297,-0.092l0.296,-0.093l0.296,-0.096l0.294,-0.098l0.294,-0.1l0.292,-0.101l0.292,-0.104l0.291,-0.106l0.29,-0.107l0.289,-0.109l0.288,-0.112l0.287,-0.113l0.286,-0.115l0.285,-0.117l0.283,-0.119l0.282,-0.12l0.282,-0.123l0.28,-0.124l0.278,-0.125l0.278,-0.128l0.276,-0.129l0.274,-0.131l0.274,-0.133l0.272,-0.134l0.27,-0.136l0.269,-0.137l0.268,-0.139l0.266,-0.141l0.264,-0.142l0.263,-0.144l0.261,-0.145l0.26,-0.146l0.257,-0.148l0.256,-0.15l0.255,-0.151l0.252,-0.152l0.251,-0.154l0.249,-0.155l0.247,-0.156l0.246,-0.158l0.243,-0.159l0.241,-0.16l0.24,-0.161l0.237,-0.163l0.236,-0.164l0.233,-0.164l0.231,-0.166l0.229,-0.168l0.227,-0.168l0.225,-0.169l0.222,-0.17l0.221,-0.172l0.218,-0.172l0.216,-0.173l0.213,-0.174l0.211,-0.175l0.209,-0.176l0.206,-0.177l0.204,-0.177l0.202,-0.179l0.199,-0.179l0.196,-0.18l0.194,-0.18l0.192,-0.181l0.189,-0.182l0.186,-0.183l0.184,-0.183l0.181,-0.183l0.178,-0.184l0.176,-0.185l0.173,-0.185l0.17,-0.185l0.167,-0.186l0.165,-0.186l0.162,-0.187l0.159,-0.187l0.156,-0.187l0.153,-0.187l0.151,-0.188l0.147,-0.188l0.145,-0.187l0.141,-0.188l0.139,-0.188l0.136,-0.188l0.136,-0.194l0.062,-0.089l0.064,-0.094l0.064,-0.094l0.063,-0.094l0.062,-0.094l0.062,-0.093l0.061,-0.094l2.676,-4.19l8.168,5.218l-2.69,4.212l-0.09,0.139l-0.091,0.139l-0.091,0.138l-0.093,0.138l-0.093,0.137l-0.094,0.137l-0.098,0.142l-0.188,0.266l-0.195,0.271l-0.199,0.268l-0.201,0.267l-0.204,0.266l-0.207,0.264l-0.211,0.262l-0.213,0.26l-0.216,0.259l-0.219,0.258l-0.222,0.256l-0.225,0.254l-0.227,0.252l-0.231,0.251l-0.232,0.25l-0.236,0.247l-0.239,0.246l-0.24,0.244l-0.244,0.243l-0.246,0.241l-0.249,0.24l-0.251,0.237l-0.254,0.236l-0.256,0.235l-0.259,0.233l-0.261,0.231l-0.263,0.229l-0.266,0.228l-0.268,0.226l-0.271,0.224l-0.273,0.222l-0.275,0.221l-0.277,0.219l-0.279,0.217l-0.282,0.216l-0.284,0.214l-0.286,0.212l-0.288,0.21l-0.29,0.208l-0.293,0.207l-0.294,0.204l-0.296,0.203l-0.299,0.201l-0.3,0.2l-0.302,0.197l-0.304,0.196l-0.307,0.193l-0.308,0.192l-0.309,0.19l-0.312,0.188l-0.314,0.186l-0.315,0.184l-0.317,0.182l-0.319,0.18l-0.32,0.178l-0.323,0.176l-0.324,0.175l-0.325,0.172l-0.328,0.17l-0.328,0.168l-0.331,0.166l-0.332,0.164l-0.333,0.161l-0.336,0.16l-0.336,0.158l-0.338,0.155l-0.34,0.153l-0.341,0.152l-0.342,0.148l-0.344,0.147l-0.345,0.145l-0.346,0.142l-0.348,0.14l-0.349,0.138l-0.351,0.135l-0.351,0.133l-0.353,0.131l-0.354,0.129l-0.355,0.126l-0.357,0.124l-0.358,0.121l-0.358,0.119l-0.36,0.117l-0.361,0.114l-0.362,0.112l-0.363,0.109l-0.364,0.107l-0.365,0.104l-0.366,0.102l-0.367,0.099l-0.368,0.096l-0.369,0.094l-0.369,0.092l-0.371,0.088l-0.371,0.087l-0.372,0.083l-0.373,0.081l-0.374,0.078l-0.375,0.075l-0.375,0.073l-0.376,0.07l-0.376,0.067l-0.378,0.064l-0.377,0.061l-0.379,0.059l-0.379,0.056l-0.38,0.053l-0.38,0.049l-0.381,0.047l-0.381,0.044l-0.382,0.041l-0.382,0.038l-0.383,0.035l-0.383,0.032l-0.383,0.029l-0.384,0.026l-0.384,0.023l-0.384,0.019l-0.385,0.017l-0.385,0.013l-0.385,0.01l-0.386,0.006l-0.386,0.004l-0.385,0l-0.386,-0.003l-0.381,-0.007l-0.198,-0.004l-0.193,-0.005l-0.193,-0.007l-0.193,-0.007l-0.194,-0.008l-0.193,-0.008l-0.193,-0.01l-0.193,-0.01l-0.193,-0.012l-0.193,-0.012l-0.193,-0.013l-0.193,-0.014l-0.193,-0.015l-0.193,-0.015l-0.193,-0.017l-0.193,-0.018l-0.193,-0.018l-0.193,-0.019l-0.193,-0.02l-0.193,-0.021l-0.193,-0.022l-0.192,-0.023l-0.193,-0.024l-0.193,-0.025l-0.192,-0.025l-0.193,-0.027l-0.192,-0.027l-0.193,-0.029l-0.192,-0.029l-0.192,-0.03l-0.192,-0.031l-0.192,-0.032l-0.192,-0.033l-0.192,-0.034l-0.192,-0.035l-0.191,-0.036l-0.192,-0.037l-0.191,-0.038l-0.191,-0.039l-0.192,-0.04l-0.191,-0.04l-0.191,-0.042l-0.19,-0.043l-0.191,-0.043l-0.191,-0.045l-0.19,-0.045l-0.19,-0.047l-0.19,-0.048l-0.19,-0.048l-0.19,-0.05l-0.189,-0.05l-0.19,-0.052l-0.189,-0.053l-0.189,-0.053l-0.189,-0.055l-0.189,-0.055l-0.188,-0.057l-0.188,-0.058l-0.188,-0.058l-0.188,-0.06l-0.188,-0.061l-0.187,-0.062l-0.188,-0.062l-0.186,-0.064l-0.187,-0.065l-0.187,-0.066l-0.186,-0.067l-0.186,-0.068l-0.186,-0.069l-0.185,-0.071l-0.186,-0.071l-0.185,-0.072l-0.184,-0.073l-0.185,-0.075l-0.184,-0.075l-0.184,-0.077l-0.184,-0.078l-0.183,-0.078l-0.183,-0.08l-0.182,-0.081l-0.183,-0.082l-0.182,-0.083l-0.182,-0.084l-0.181,-0.085l-0.181,-0.087l-0.181,-0.087l-0.18,-0.089l-0.18,-0.089l-0.18,-0.091l-0.179,-0.092l-0.179,-0.093l-0.179,-0.094l-0.178,-0.095l-0.178,-0.097l-0.177,-0.097l-0.177,-0.099l-0.177,-0.099l-0.176,-0.101l-0.176,-0.102l-0.175,-0.103l-0.175,-0.104l-0.175,-0.105l-0.174,-0.107l-0.174,-0.108l-0.173,-0.108l-0.173,-0.11l-0.172,-0.111l-0.172,-0.112l-0.171,-0.113l-0.171,-0.115l-0.171,-0.115l-0.17,-0.117l-0.169,-0.118l-0.169,-0.119l-0.169,-0.12l-0.168,-0.121l-0.168,-0.123l-0.167,-0.123l-0.166,-0.125l-0.166,-0.126l-0.165,-0.127l-0.165,-0.128l-0.165,-0.13l-0.163,-0.13l-0.164,-0.132l-0.162,-0.133l-0.162,-0.134l-0.162,-0.135l-0.161,-0.136l-0.16,-0.138l-0.16,-0.138l-0.159,-0.14l-0.159,-0.141l-0.158,-0.142l-0.158,-0.144l-0.156,-0.144l-0.157,-0.146l-0.155,-0.147l-0.155,-0.148l-0.154,-0.149l-0.154,-0.15l-0.153,-0.151l-0.153,-0.153l-0.151,-0.154l-0.152,-0.155l-0.15,-0.156l-0.15,-0.157l-0.149,-0.159l-0.148,-0.159l-0.148,-0.161l-0.147,-0.162l-0.147,-0.163l-0.145,-0.164l-0.145,-0.166l-0.145,-0.166l-0.143,-0.168l-0.143,-0.169l-0.142,-0.17l-0.142,-0.171l-0.14,-0.173l-0.141,-0.174l-0.139,-0.174l-0.138,-0.176l-0.138,-0.177l-0.137,-0.179l-0.137,-0.179l-0.135,-0.181l-0.135,-0.181l-0.134,-0.183l-0.133,-0.184l-0.133,-0.186l-0.132,-0.186l-0.131,-0.188l-0.13,-0.188l-0.129,-0.19l-0.129,-0.191l-0.128,-0.192l-0.127,-0.194l-0.126,-0.194l-0.126,-0.196l-0.124,-0.197l-0.124,-0.198l-0.123,-0.199l-0.122,-0.2l-0.122,-0.202l-0.121,-0.203l-0.119,-0.203l-0.119,-0.205l-0.119,-0.207l-0.117,-0.207l-0.116,-0.208l-0.116,-0.21l-0.115,-0.211l-0.114,-0.212l-0.113,-0.213l-0.112,-0.214l-0.112,-0.216l-0.11,-0.216l-0.11,-0.218l-0.109,-0.219l-0.108,-0.22l-0.107,-0.221l-0.107,-0.223l-0.105,-0.223l-0.105,-0.225l-0.103,-0.226l-0.103,-0.227l-0.102,-0.228l-0.101,-0.23l-0.1,-0.231l-0.1,-0.231l-0.098,-0.233l-0.098,-0.234l-0.096,-0.236l-0.096,-0.236l-0.095,-0.238l-0.094,-0.239l-0.093,-0.239l-0.092,-0.242l-0.091,-0.242l-0.091,-0.243l-0.089,-0.245l-0.089,-0.246l-0.087,-0.247l-0.087,-0.248l-0.086,-0.25l-0.084,-0.25l-0.084,-0.252l-0.083,-0.253l-0.082,-0.254l-0.082,-0.255l-0.08,-0.257l-0.079,-0.258l-0.078,-0.258l-0.078,-0.26l-0.076,-0.262l-0.076,-0.262l-0.074,-0.264l-0.074,-0.265l-0.073,-0.266l-0.072,-0.267l-0.07,-0.268l-0.07,-0.27l-0.069,-0.271l-0.068,-0.272l-0.067,-0.273l-0.066,-0.275l-0.065,-0.275l-0.064,-0.277l-0.063,-0.278l-0.062,-0.28l-0.058,-0.264l-0.042,-0.189l-0.04,-0.174l-0.042,-0.175l-0.044,-0.175l-0.046,-0.176l-0.048,-0.176l-0.05,-0.178l-0.051,-0.178l-0.054,-0.178l-0.056,-0.18l-0.058,-0.18l-0.059,-0.18l-0.062,-0.182l-0.063,-0.182l-0.066,-0.182l-0.067,-0.183l-0.07,-0.184l-0.071,-0.185l-0.074,-0.184l-0.075,-0.186l-0.077,-0.186l-0.08,-0.187l-0.081,-0.187l-0.083,-0.188l-0.086,-0.188l-0.087,-0.189l-0.089,-0.19l-0.091,-0.189l-0.093,-0.191l-0.095,-0.191l-0.097,-0.191l-0.099,-0.192l-0.101,-0.192l-0.103,-0.192l-0.105,-0.193l-0.107,-0.194l-0.109,-0.193l-0.11,-0.195l-0.113,-0.194l-0.114,-0.195l-0.117,-0.195l-0.118,-0.196l-0.12,-0.196l-0.122,-0.196l-0.124,-0.196l-0.126,-0.197l-0.128,-0.197l-0.13,-0.197l-0.132,-0.198l-0.133,-0.198l-0.135,-0.198l-0.138,-0.198l-0.139,-0.199l-0.141,-0.198l-0.142,-0.199l-0.145,-0.199l-0.146,-0.199l-0.148,-0.2l-0.15,-0.199l-0.152,-0.2l-0.154,-0.199l-0.155,-0.2l-0.157,-0.2l-0.159,-0.2l-0.161,-0.2l-0.163,-0.2l-0.164,-0.201l-0.166,-0.2l-0.168,-0.2l-0.169,-0.201l-0.171,-0.2l-0.173,-0.201l-0.175,-0.2l-0.176,-0.2l-0.178,-0.201l-0.18,-0.2l-0.181,-0.2l-0.183,-0.201l-0.184,-0.2l-0.187,-0.2l-0.188,-0.2l-0.189,-0.2l-0.191,-0.2l-0.193,-0.2l-0.194,-0.199l-0.196,-0.2l-0.198,-0.199l-0.199,-0.2l-0.201,-0.199l-0.202,-0.199l-0.204,-0.199l-0.205,-0.198l-0.207,-0.199l-0.208,-0.198l-0.21,-0.198l-0.212,-0.198l-0.213,-0.198l-0.214,-0.197l-0.216,-0.197l-0.217,-0.197l-0.219,-0.197l-0.22,-0.196l-0.222,-0.196l-0.223,-0.196l-0.225,-0.196l-0.225,-0.195l-0.228,-0.195l-0.229,-0.195l-0.23,-0.195l-0.231,-0.194l-0.233,-0.194l-0.234,-0.193l-0.236,-0.193l-0.237,-0.193l-0.238,-0.192l-0.24,-0.192l-0.241,-0.192l-0.242,-0.191l-0.243,-0.191l-0.245,-0.191l-0.246,-0.19l-0.248,-0.189l-0.248,-0.19l-0.25,-0.189l-0.251,-0.188l-0.252,-0.188l-0.254,-0.187l-0.255,-0.187l-0.256,-0.187l-0.257,-0.186l-0.258,-0.186l-0.26,-0.185l-0.26,-0.185l-0.262,-0.184l-0.263,-0.184l-0.264,-0.183l-0.265,-0.182l-0.267,-0.182l-0.267,-0.182l-0.269,-0.181l-0.269,-0.181l-0.271,-0.18l-0.272,-0.179l-0.273,-0.179l-0.274,-0.178l-0.275,-0.178l-0.276,-0.177l-0.277,-0.176l-0.278,-0.176l-0.279,-0.175l-0.28,-0.175l-0.281,-0.174l-0.282,-0.173l-0.283,-0.173l-0.284,-0.172l-0.285,-0.172l-0.286,-0.171l-0.287,-0.17l-0.287,-0.169l-0.289,-0.169l-0.289,-0.168l-0.291,-0.168l-0.291,-0.166l-0.292,-0.166l-0.293,-0.166l-0.294,-0.164l-0.295,-0.164l-0.296,-0.163l-0.296,-0.163l-0.297,-0.162l-0.298,-0.161l-0.299,-0.16l-0.3,-0.159l-0.3,-0.159l-0.302,-0.158l-0.302,-0.157l-0.302,-0.156l-0.304,-0.156l-0.304,-0.155l-0.305,-0.154l-0.306,-0.153l-0.306,-0.152l-0.307,-0.152l-0.308,-0.15l-0.308,-0.15l-0.309,-0.149l-0.31,-0.148l-0.311,-0.148l-0.311,-0.146l-0.312,-0.146l-0.312,-0.144l-0.313,-0.144l-0.313,-0.143l-0.315,-0.142l-0.314,-0.141l-0.316,-0.141l-0.316,-0.139l-0.316,-0.138l-0.317,-0.138l-0.318,-0.136l-0.318,-0.136l-0.318,-0.135l-0.319,-0.134l-0.32,-0.132l-0.32,-0.132l-0.321,-0.131l-0.321,-0.13l-0.321,-0.129l-0.322,-0.128l-0.323,-0.127l-0.323,-0.126l-0.323,-0.125l-0.324,-0.124l-0.324,-0.123l-0.324,-0.122l-0.325,-0.121l-0.325,-0.12l-0.326,-0.119l-0.326,-0.118l-0.327,-0.116l-0.326,-0.116l-0.327,-0.115l-0.328,-0.113l-0.327,-0.113l-0.328,-0.111l-0.329,-0.111l-0.328,-0.109l-0.329,-0.108l-0.329,-0.108l-0.33,-0.106l-0.329,-0.105l-0.33,-0.103l-0.33,-0.103l-0.331,-0.102l-0.33,-0.1l-0.331,-0.099l-0.331,-0.098l-0.331,-0.097l-0.331,-0.096l-0.332,-0.095l-0.331,-0.094l-0.332,-0.092l-0.332,-0.091l-0.332,-0.09l-0.332,-0.089l-0.332,-0.087l-0.332,-0.087l-0.333,-0.085l-0.332,-0.084l-0.333,-0.083l-0.332,-0.082l-0.333,-0.08l-0.333,-0.079l-0.332,-0.078l-0.333,-0.077l-5.068,-1.148l2.142,-9.453l5.085,1.152Z" style="fill:#f00;"/><path d="M82.105,20.447l0.457,0.101l0.449,0.102l0.442,0.103l0.435,0.105l0.427,0.106l0.42,0.107l0.413,0.109l0.405,0.11l0.394,0.11l0.202,0.058l0.195,0.057l0.193,0.057l0.192,0.057l0.19,0.058l0.189,0.058l0.186,0.059l0.186,0.059l0.183,0.06l0.182,0.06l0.18,0.061l0.179,0.061l0.177,0.061l0.176,0.062l0.174,0.063l0.173,0.063l0.171,0.064l0.17,0.064l0.168,0.065l0.167,0.065l0.166,0.066l0.164,0.066l0.162,0.068l0.161,0.067l0.16,0.069l0.159,0.069l0.157,0.07l0.156,0.071l0.154,0.071l0.154,0.073l0.152,0.073l0.15,0.073l0.15,0.075l0.148,0.076l0.147,0.077l0.146,0.077l0.145,0.079l0.143,0.079l0.143,0.081l0.141,0.082l0.14,0.082l0.139,0.084l0.138,0.086l0.136,0.086l0.136,0.088l0.134,0.089l0.134,0.091l0.132,0.092l0.131,0.093l0.13,0.095l0.129,0.097l0.128,0.098l0.127,0.1l0.125,0.102l0.125,0.103l0.123,0.106l0.122,0.107l0.12,0.109l0.12,0.111l0.118,0.114l0.116,0.115l0.116,0.118l0.113,0.12l0.113,0.122l0.11,0.124l0.109,0.127l0.107,0.129l0.106,0.132l0.103,0.134l0.102,0.136l0.099,0.139l0.097,0.142l0.095,0.144l0.093,0.146l0.09,0.149l0.087,0.151l0.084,0.154l0.082,0.156l0.079,0.158l0.075,0.16l0.073,0.163l0.069,0.164l0.066,0.167l0.062,0.168l0.058,0.169l0.055,0.172l0.051,0.172l0.047,0.174l0.044,0.175l0.039,0.176l0.035,0.176l0.032,0.178l0.027,0.177l0.024,0.178l0.019,0.178l0.015,0.178l0.012,0.177l0.007,0.177l0.004,0.177l-0.001,0.175l-0.004,0.175l-0.007,0.174l-0.011,0.173l-0.015,0.172l-0.018,0.17l-0.021,0.169l-0.025,0.168l-0.028,0.166l-0.03,0.164l-0.034,0.163l-0.036,0.161l-0.039,0.159l-0.042,0.158l-0.044,0.156l-0.046,0.154l-0.049,0.152l-0.051,0.151l-0.053,0.149l-0.055,0.147l-0.057,0.146l-0.058,0.144l-0.061,0.142l-0.062,0.14l-0.064,0.139l-0.066,0.137l-0.067,0.136l-0.069,0.134l-0.07,0.133l-0.072,0.132l-0.072,0.13l-0.074,0.129l-0.076,0.127l-0.076,0.126l-0.078,0.125l-0.079,0.124l-0.081,0.123l-0.081,0.122l-0.082,0.12l-0.084,0.12l-0.084,0.119l-0.086,0.118l-0.087,0.116l-0.087,0.117l-0.089,0.115l-0.09,0.114l-0.09,0.114l-0.092,0.113l-0.092,0.113l-0.094,0.111l-0.094,0.111l-0.096,0.111l-0.096,0.11l-0.097,0.11l-0.098,0.108l-0.099,0.109l-0.105,0.114l-0.197,0.209l-0.207,0.213l-0.21,0.212l-0.213,0.21l-0.217,0.21l-0.22,0.208l-0.224,0.208l-0.228,0.207l-0.231,0.206l-0.235,0.206l-0.238,0.206l-0.241,0.205l-0.245,0.204l-0.249,0.205l-0.252,0.205l-0.255,0.204l-0.259,0.204l-0.263,0.205l-0.265,0.205l-0.27,0.204l-0.272,0.205l-0.276,0.206l-0.28,0.205l-0.282,0.206l-0.286,0.206l-0.29,0.207l-0.292,0.207l-0.296,0.207l-0.299,0.208l-0.303,0.209l-0.305,0.209l-0.309,0.21l-0.312,0.21l-0.315,0.211l-0.318,0.211l-0.321,0.212l-0.325,0.213l-0.327,0.213l-0.33,0.214l-0.333,0.215l-0.337,0.216l-0.339,0.216l-0.342,0.217l-0.344,0.217l-0.348,0.219l-0.352,0.22l-0.707,0.44l-0.72,0.444l-0.73,0.448l-0.74,0.451l-0.751,0.454l-0.76,0.458l-0.769,0.461l-0.778,0.465l-0.787,0.469l-0.796,0.472l-0.804,0.476l-1.63,0.963l-3.346,1.973l-1.712,1.01l-0.863,0.511l-0.868,0.514l-0.874,0.519l-0.878,0.523l-0.882,0.527l-0.886,0.531l-0.889,0.536l-0.892,0.539l-0.896,0.543l-0.898,0.548l-0.9,0.551l-0.901,0.556l-0.905,0.561l-0.451,0.281l-0.453,0.282l-0.452,0.284l-0.453,0.285l-0.453,0.285l-0.453,0.287l-0.453,0.288l-0.453,0.289l-0.454,0.29l-0.453,0.291l-0.453,0.292l-0.452,0.293l-0.453,0.294l-0.452,0.295l-0.452,0.296l-0.452,0.298l-0.452,0.298l-0.451,0.299l-0.45,0.301l-0.45,0.301l-0.45,0.303l-0.449,0.304l-0.448,0.304l-0.448,0.306l-0.447,0.307l-0.446,0.308l-0.446,0.309l-0.444,0.31l-0.444,0.311l-0.443,0.312l-0.442,0.313l-0.441,0.314l-0.44,0.315l-0.439,0.316l-0.438,0.318l-0.437,0.318l-0.435,0.319l-0.434,0.321l-0.433,0.321l-0.432,0.323l-0.43,0.323l-0.429,0.325l-0.428,0.326l-0.425,0.326l-0.425,0.328l-0.423,0.329l-0.421,0.33l-0.419,0.331l-0.418,0.331l-0.416,0.333l-0.415,0.334l-0.412,0.335l-0.411,0.336l-0.409,0.337l-0.406,0.338l-0.405,0.339l-0.403,0.34l-0.398,0.338l-0.055,0.048l-0.051,0.045l-0.051,0.045l-0.049,0.044l-0.048,0.044l-0.048,0.044l-0.046,0.044l-0.045,0.043l-0.045,0.043l-0.043,0.043l-0.043,0.043l-0.042,0.042l-0.04,0.043l-0.04,0.042l-0.039,0.041l-0.038,0.042l-0.038,0.041l-0.036,0.041l-0.036,0.041l-0.035,0.04l-0.034,0.04l-0.033,0.04l-0.033,0.04l-0.031,0.04l-0.031,0.039l-0.031,0.039l-0.029,0.039l-0.029,0.039l-0.029,0.038l-0.027,0.038l-0.027,0.038l-0.026,0.038l-0.026,0.038l-0.025,0.037l-0.024,0.037l-0.024,0.037l-0.024,0.037l-0.022,0.037l-0.023,0.037l-0.021,0.036l-0.021,0.036l-0.021,0.037l-0.02,0.036l-0.02,0.036l-0.019,0.036l-0.019,0.035l-0.018,0.036l-0.018,0.036l-0.017,0.035l-0.017,0.036l-0.017,0.035l-0.016,0.036l-0.016,0.036l-0.015,0.035l-0.015,0.036l-0.011,0.025l-0.032,0.082l-0.027,0.071l-0.025,0.072l-0.025,0.072l-0.023,0.073l-0.021,0.074l-0.021,0.074l-0.019,0.075l-0.019,0.076l-0.017,0.077l-0.016,0.079l-0.014,0.079l-0.014,0.08l-0.013,0.082l-0.011,0.083l-0.01,0.085l-0.009,0.086l-0.008,0.088l-0.007,0.089l-0.005,0.091l-0.004,0.092l-0.003,0.095l-0.002,0.095l0,0.098l0.001,0.099l0.003,0.101l0.004,0.103l0.005,0.105l0.007,0.106l0.008,0.109l0.009,0.11l0.011,0.111l0.013,0.114l0.014,0.115l0.015,0.117l0.017,0.119l0.018,0.12l0.02,0.122l0.022,0.124l0.023,0.125l0.024,0.127l0.026,0.129l0.028,0.13l0.029,0.132l0.031,0.134l0.032,0.134l0.033,0.137l0.035,0.138l0.036,0.139l0.038,0.141l0.039,0.142l0.041,0.143l0.042,0.145l0.044,0.146l0.044,0.148l0.046,0.149l0.048,0.15l0.049,0.151l0.05,0.152l0.051,0.154l0.052,0.155l0.054,0.156l0.055,0.157l0.054,0.154l0.117,0.324l0.12,0.324l0.123,0.328l0.127,0.333l0.131,0.336l0.134,0.339l0.138,0.344l0.14,0.346l0.142,0.351l0.145,0.352l0.296,0.72l0.302,0.73l0.305,0.74l0.154,0.378l0.154,0.379l0.153,0.381l0.153,0.385l0.153,0.388l0.151,0.391l0.151,0.394l0.148,0.397l0.145,0.396l0.074,0.205l0.072,0.202l0.072,0.203l0.07,0.203l0.07,0.205l0.07,0.205l0.068,0.206l0.068,0.207l0.066,0.207l0.066,0.209l0.065,0.209l0.064,0.21l0.063,0.211l0.061,0.212l0.061,0.212l0.059,0.214l0.059,0.214l0.056,0.216l0.056,0.216l0.054,0.217l0.053,0.218l0.051,0.219l0.05,0.22l0.048,0.221l0.046,0.221l0.045,0.223l0.043,0.224l0.042,0.224l0.039,0.226l0.037,0.226l0.036,0.228l0.033,0.228l0.032,0.229l0.029,0.231l0.027,0.231l0.024,0.232l0.023,0.233l0.019,0.235l0.018,0.235l0.014,0.236l0.013,0.237l0.009,0.238l0.007,0.238l0.004,0.24l0,0.24l-0.002,0.242l-0.005,0.242l-0.008,0.243l-0.012,0.243l-0.014,0.244l-0.018,0.245l-0.022,0.246l-0.025,0.246l-0.028,0.247l-0.032,0.247l-0.036,0.247l-0.039,0.248l-0.043,0.249l-0.047,0.248l-0.051,0.249l-0.055,0.249l-0.058,0.249l-0.063,0.249l-0.067,0.249l-0.071,0.249l-0.075,0.248l-0.079,0.249l-0.083,0.248l-0.088,0.247l-0.091,0.247l-0.096,0.247l-0.097,0.237l-0.056,0.131l-0.052,0.123l-0.054,0.122l-0.055,0.122l-0.056,0.122l-0.057,0.122l-0.059,0.121l-0.059,0.122l-0.06,0.121l-0.062,0.12l-0.062,0.121l-0.063,0.12l-0.065,0.12l-0.066,0.12l-0.067,0.119l-0.067,0.119l-0.069,0.119l-0.07,0.118l-0.071,0.119l-0.072,0.118l-0.073,0.117l-0.074,0.117l-0.076,0.117l-0.076,0.117l-0.077,0.116l-0.079,0.116l-0.079,0.115l-0.081,0.115l-0.081,0.115l-0.083,0.115l-0.083,0.114l-0.085,0.113l-0.085,0.114l-0.087,0.113l-0.088,0.112l-0.089,0.112l-0.089,0.112l-0.091,0.112l-0.092,0.11l-0.093,0.111l-0.094,0.11l-0.094,0.11l-0.096,0.11l-0.097,0.109l-0.098,0.108l-0.099,0.108l-0.1,0.108l-0.101,0.108l-0.102,0.107l-0.103,0.106l-0.103,0.107l-0.105,0.105l-0.106,0.106l-0.107,0.105l-0.108,0.105l-0.109,0.104l-0.11,0.104l-0.111,0.103l-0.112,0.103l-0.113,0.103l-0.113,0.102l-0.115,0.102l-0.116,0.101l-0.117,0.101l-0.118,0.101l-0.119,0.1l-0.12,0.1l-0.121,0.1l-0.121,0.099l-0.123,0.098l-0.124,0.099l-0.125,0.098l-0.126,0.098l-0.132,0.101l-0.251,0.189l-0.261,0.192l-0.265,0.191l-0.269,0.189l-4.245,2.919l-5.492,-7.987l4.203,-2.89l0.185,-0.13l0.179,-0.129l0.175,-0.129l0.176,-0.132l0.078,-0.06l0.082,-0.064l0.081,-0.063l0.08,-0.064l0.078,-0.063l0.078,-0.063l0.076,-0.063l0.076,-0.063l0.074,-0.062l0.073,-0.063l0.072,-0.062l0.071,-0.062l0.07,-0.062l0.068,-0.062l0.068,-0.061l0.067,-0.062l0.065,-0.061l0.065,-0.061l0.063,-0.061l0.063,-0.06l0.061,-0.06l0.061,-0.061l0.059,-0.06l0.059,-0.059l0.057,-0.06l0.057,-0.059l0.055,-0.06l0.055,-0.059l0.054,-0.058l0.053,-0.059l0.051,-0.058l0.051,-0.058l0.051,-0.058l0.049,-0.058l0.048,-0.058l0.047,-0.057l0.047,-0.057l0.046,-0.057l0.045,-0.057l0.044,-0.056l0.043,-0.057l0.042,-0.056l0.042,-0.056l0.041,-0.055l0.04,-0.056l0.039,-0.055l0.039,-0.056l0.037,-0.055l0.038,-0.054l0.036,-0.055l0.036,-0.055l0.034,-0.054l0.035,-0.054l0.033,-0.054l0.033,-0.054l0.032,-0.053l0.032,-0.054l0.031,-0.053l0.03,-0.053l0.03,-0.054l0.029,-0.053l0.029,-0.052l0.027,-0.053l0.028,-0.053l0.026,-0.052l0.027,-0.053l0.025,-0.052l0.025,-0.053l0.025,-0.052l0.024,-0.052l0.023,-0.052l0.023,-0.052l0.023,-0.052l0.018,-0.043l0.046,-0.113l0.04,-0.104l0.039,-0.103l0.036,-0.104l0.035,-0.104l0.033,-0.104l0.032,-0.105l0.03,-0.104l0.028,-0.105l0.027,-0.106l0.025,-0.106l0.023,-0.107l0.022,-0.107l0.02,-0.108l0.019,-0.108l0.017,-0.11l0.016,-0.11l0.015,-0.111l0.013,-0.112l0.011,-0.113l0.01,-0.114l0.008,-0.115l0.007,-0.116l0.006,-0.117l0.004,-0.118l0.002,-0.119l0.001,-0.12l0,-0.122l-0.002,-0.123l-0.003,-0.124l-0.005,-0.125l-0.007,-0.126l-0.008,-0.128l-0.009,-0.128l-0.011,-0.13l-0.013,-0.132l-0.014,-0.132l-0.015,-0.134l-0.017,-0.135l-0.019,-0.136l-0.02,-0.137l-0.022,-0.138l-0.023,-0.14l-0.024,-0.141l-0.026,-0.142l-0.028,-0.143l-0.029,-0.144l-0.03,-0.145l-0.032,-0.146l-0.034,-0.148l-0.035,-0.148l-0.036,-0.15l-0.037,-0.151l-0.039,-0.151l-0.041,-0.153l-0.041,-0.154l-0.043,-0.154l-0.045,-0.156l-0.045,-0.156l-0.047,-0.157l-0.048,-0.159l-0.049,-0.159l-0.051,-0.16l-0.052,-0.161l-0.053,-0.162l-0.054,-0.162l-0.055,-0.163l-0.056,-0.165l-0.057,-0.164l-0.059,-0.166l-0.059,-0.167l-0.059,-0.163l-0.125,-0.341l-0.127,-0.339l-0.13,-0.342l-0.134,-0.344l-0.136,-0.347l-0.139,-0.35l-0.142,-0.352l-0.143,-0.354l-0.145,-0.355l-0.298,-0.722l-0.3,-0.728l-0.303,-0.734l-0.152,-0.372l-0.152,-0.373l-0.152,-0.376l-0.151,-0.377l-0.149,-0.379l-0.149,-0.382l-0.147,-0.384l-0.145,-0.386l-0.144,-0.388l-0.139,-0.386l-0.071,-0.201l-0.068,-0.196l-0.068,-0.198l-0.067,-0.198l-0.066,-0.199l-0.066,-0.199l-0.064,-0.2l-0.064,-0.201l-0.062,-0.201l-0.062,-0.202l-0.06,-0.203l-0.059,-0.204l-0.058,-0.204l-0.057,-0.205l-0.055,-0.206l-0.054,-0.207l-0.053,-0.208l-0.051,-0.208l-0.049,-0.209l-0.048,-0.21l-0.047,-0.211l-0.045,-0.212l-0.043,-0.213l-0.041,-0.213l-0.039,-0.215l-0.038,-0.216l-0.035,-0.216l-0.033,-0.218l-0.032,-0.218l-0.029,-0.219l-0.026,-0.221l-0.025,-0.221l-0.022,-0.222l-0.019,-0.224l-0.017,-0.224l-0.014,-0.225l-0.011,-0.227l-0.009,-0.227l-0.005,-0.228l-0.003,-0.229l0.001,-0.23l0.004,-0.231l0.007,-0.232l0.01,-0.232l0.014,-0.234l0.017,-0.234l0.021,-0.234l0.025,-0.236l0.028,-0.236l0.032,-0.236l0.037,-0.237l0.04,-0.237l0.044,-0.237l0.049,-0.238l0.053,-0.238l0.057,-0.238l0.061,-0.238l0.066,-0.237l0.07,-0.238l0.075,-0.237l0.079,-0.236l0.084,-0.236l0.088,-0.235l0.089,-0.224l0.052,-0.128l0.05,-0.116l0.05,-0.117l0.052,-0.116l0.052,-0.116l0.054,-0.116l0.055,-0.115l0.056,-0.115l0.058,-0.114l0.058,-0.115l0.06,-0.114l0.061,-0.113l0.061,-0.114l0.063,-0.113l0.065,-0.112l0.065,-0.112l0.066,-0.112l0.068,-0.111l0.068,-0.111l0.07,-0.11l0.071,-0.11l0.072,-0.11l0.073,-0.109l0.074,-0.108l0.075,-0.108l0.076,-0.108l0.077,-0.107l0.079,-0.107l0.079,-0.105l0.08,-0.106l0.082,-0.105l0.083,-0.105l0.083,-0.103l0.085,-0.104l0.085,-0.103l0.087,-0.102l0.088,-0.102l0.088,-0.101l0.09,-0.101l0.091,-0.1l0.091,-0.1l0.093,-0.099l0.094,-0.098l0.094,-0.098l0.096,-0.097l0.096,-0.097l0.098,-0.097l0.098,-0.095l0.1,-0.095l0.1,-0.095l0.102,-0.094l0.102,-0.093l0.103,-0.093l0.104,-0.093l0.105,-0.091l0.103,-0.089l0.434,-0.369l0.432,-0.365l0.434,-0.363l0.435,-0.362l0.438,-0.36l0.438,-0.359l0.44,-0.358l0.442,-0.356l0.443,-0.354l0.445,-0.353l0.446,-0.352l0.447,-0.35l0.448,-0.349l0.45,-0.347l0.451,-0.346l0.452,-0.344l0.453,-0.343l0.454,-0.342l0.455,-0.34l0.457,-0.339l0.457,-0.337l0.458,-0.336l0.459,-0.335l0.46,-0.333l0.46,-0.332l0.461,-0.33l0.462,-0.329l0.463,-0.328l0.463,-0.326l0.464,-0.326l0.465,-0.323l0.465,-0.323l0.465,-0.321l0.466,-0.319l0.466,-0.319l0.467,-0.317l0.466,-0.315l0.467,-0.315l0.468,-0.313l0.467,-0.311l0.468,-0.311l0.467,-0.309l0.468,-0.308l0.468,-0.306l0.468,-0.305l0.467,-0.304l0.468,-0.303l0.467,-0.301l0.467,-0.3l0.467,-0.299l0.467,-0.298l0.466,-0.296l0.466,-0.295l0.466,-0.293l0.465,-0.293l0.465,-0.291l0.464,-0.29l0.465,-0.289l0.924,-0.573l0.922,-0.569l0.92,-0.563l0.916,-0.559l0.912,-0.553l0.908,-0.549l0.904,-0.544l0.899,-0.539l0.893,-0.534l0.889,-0.529l0.882,-0.524l0.877,-0.52l0.87,-0.515l1.718,-1.014l3.345,-1.972l1.622,-0.957l0.795,-0.471l0.786,-0.467l0.775,-0.462l0.765,-0.457l0.754,-0.452l0.742,-0.447l0.731,-0.442l0.718,-0.438l0.705,-0.432l0.693,-0.427l0.681,-0.424l0.333,-0.208l0.331,-0.208l0.327,-0.207l0.324,-0.206l0.32,-0.204l0.317,-0.203l0.312,-0.201l0.309,-0.2l0.305,-0.199l0.301,-0.198l0.297,-0.196l0.293,-0.195l0.289,-0.193l0.285,-0.192l0.281,-0.191l0.276,-0.189l0.273,-0.187l0.267,-0.187l0.264,-0.184l0.258,-0.183l0.255,-0.182l0.249,-0.18l0.245,-0.178l0.24,-0.177l0.236,-0.175l0.23,-0.173l0.226,-0.172l0.22,-0.17l0.216,-0.168l0.21,-0.166l0.205,-0.164l0.2,-0.162l0.195,-0.16l0.189,-0.158l0.183,-0.156l0.178,-0.153l0.172,-0.151l0.167,-0.149l0.161,-0.146l0.154,-0.144l0.149,-0.141l0.143,-0.138l0.137,-0.134l0.13,-0.132l0.124,-0.129l0.124,-0.131l0.051,-0.055l0.055,-0.06l0.054,-0.06l0.051,-0.058l0.051,-0.057l0.048,-0.057l0.047,-0.055l0.046,-0.054l0.043,-0.053l0.042,-0.052l0.041,-0.051l0.038,-0.049l0.037,-0.049l0.02,-0.025l-0.008,-0.005l-0.057,-0.034l-0.06,-0.036l-0.062,-0.036l-0.064,-0.036l-0.068,-0.037l-0.069,-0.038l-0.073,-0.039l-0.074,-0.039l-0.078,-0.039l-0.08,-0.04l-0.082,-0.041l-0.085,-0.041l-0.088,-0.041l-0.09,-0.041l-0.093,-0.042l-0.095,-0.043l-0.097,-0.042l-0.101,-0.043l-0.102,-0.043l-0.105,-0.044l-0.108,-0.044l-0.11,-0.043l-0.112,-0.045l-0.115,-0.044l-0.118,-0.044l-0.12,-0.045l-0.122,-0.044l-0.125,-0.045l-0.127,-0.045l-0.13,-0.045l-0.132,-0.045l-0.135,-0.046l-0.137,-0.045l-0.139,-0.045l-0.142,-0.045l-0.144,-0.046l-0.147,-0.045l-0.149,-0.046l-0.151,-0.045l-0.154,-0.046l-0.157,-0.045l-0.154,-0.044l-0.329,-0.092l-0.334,-0.091l-0.344,-0.09l-0.353,-0.09l-0.362,-0.09l-0.373,-0.09l-0.381,-0.089l-0.392,-0.089l-0.4,-0.089l-5.162,-1.11l2.037,-9.476l5.19,1.116Z" style="fill:#f00;"/><path d="M127.54,58.793l0.232,0.003l0.232,0.005l0.231,0.008l0.231,0.01l0.23,0.013l0.23,0.015l0.229,0.017l0.229,0.02l0.228,0.023l0.228,0.024l0.227,0.027l0.227,0.029l0.226,0.031l0.225,0.034l0.224,0.036l0.224,0.038l0.223,0.041l0.223,0.042l0.221,0.045l0.221,0.047l0.221,0.049l0.219,0.051l0.219,0.054l0.218,0.055l0.217,0.058l0.216,0.059l0.215,0.062l0.215,0.064l0.213,0.066l0.213,0.068l0.212,0.069l0.211,0.072l0.21,0.074l0.209,0.076l0.208,0.078l0.207,0.079l0.206,0.082l0.206,0.084l0.204,0.085l0.203,0.087l0.202,0.09l0.201,0.091l0.2,0.093l0.199,0.095l0.198,0.096l0.197,0.099l0.196,0.1l0.194,0.102l0.194,0.104l0.192,0.106l0.191,0.107l0.19,0.109l0.189,0.111l0.187,0.113l0.187,0.114l0.185,0.117l0.184,0.118l0.182,0.119l0.182,0.121l0.18,0.123l0.179,0.125l0.177,0.126l0.176,0.128l0.175,0.13l0.174,0.131l0.172,0.133l0.17,0.135l0.17,0.136l0.167,0.138l0.167,0.14l0.165,0.141l0.163,0.142l0.163,0.145l0.16,0.145l0.159,0.148l0.158,0.149l0.156,0.15l0.154,0.153l0.153,0.153l0.151,0.155l0.15,0.157l0.148,0.159l0.146,0.16l0.145,0.161l0.143,0.163l0.141,0.164l0.14,0.166l0.138,0.168l0.136,0.169l0.134,0.17l0.132,0.172l0.131,0.173l0.129,0.175l0.126,0.177l0.125,0.177l0.123,0.18l0.121,0.18l0.12,0.182l0.117,0.184l0.115,0.185l0.113,0.186l0.111,0.188l0.109,0.189l0.106,0.191l0.105,0.192l0.102,0.193l0.101,0.195l0.098,0.196l0.095,0.197l0.094,0.199l0.091,0.2l0.089,0.202l0.086,0.202l0.084,0.204l0.081,0.205l0.08,0.207l0.076,0.207l0.074,0.209l0.072,0.21l0.069,0.211l0.066,0.213l1.439,4.827l-9.289,2.77l-1.421,-4.768l-0.029,-0.094l-0.031,-0.094l-0.032,-0.093l-0.033,-0.094l-0.034,-0.093l-0.036,-0.094l-0.037,-0.093l-0.039,-0.093l-0.04,-0.094l-0.041,-0.093l-0.042,-0.093l-0.044,-0.093l-0.045,-0.093l-0.046,-0.093l-0.048,-0.092l-0.049,-0.093l-0.05,-0.092l-0.052,-0.092l-0.053,-0.092l-0.054,-0.092l-0.056,-0.092l-0.056,-0.091l-0.059,-0.091l-0.059,-0.091l-0.061,-0.091l-0.062,-0.09l-0.063,-0.09l-0.065,-0.09l-0.066,-0.09l-0.067,-0.089l-0.068,-0.089l-0.07,-0.088l-0.071,-0.088l-0.072,-0.088l-0.073,-0.087l-0.075,-0.087l-0.075,-0.086l-0.077,-0.086l-0.078,-0.085l-0.08,-0.085l-0.08,-0.084l-0.082,-0.084l-0.083,-0.083l-0.084,-0.083l-0.085,-0.082l-0.086,-0.082l-0.087,-0.081l-0.089,-0.08l-0.089,-0.08l-0.09,-0.078l-0.092,-0.079l-0.093,-0.077l-0.093,-0.077l-0.095,-0.076l-0.096,-0.076l-0.096,-0.075l-0.098,-0.073l-0.098,-0.073l-0.1,-0.073l-0.1,-0.071l-0.102,-0.071l-0.102,-0.07l-0.103,-0.069l-0.104,-0.068l-0.105,-0.067l-0.106,-0.067l-0.106,-0.065l-0.108,-0.064l-0.108,-0.064l-0.109,-0.063l-0.109,-0.061l-0.111,-0.061l-0.111,-0.06l-0.112,-0.058l-0.112,-0.058l-0.114,-0.057l-0.114,-0.055l-0.114,-0.055l-0.115,-0.054l-0.116,-0.052l-0.117,-0.051l-0.117,-0.051l-0.117,-0.049l-0.118,-0.048l-0.119,-0.047l-0.119,-0.046l-0.12,-0.045l-0.12,-0.043l-0.121,-0.043l-0.121,-0.041l-0.122,-0.04l-0.122,-0.039l-0.123,-0.038l-0.123,-0.036l-0.123,-0.036l-0.123,-0.034l-0.124,-0.033l-0.125,-0.031l-0.124,-0.031l-0.126,-0.029l-0.125,-0.028l-0.125,-0.027l-0.126,-0.025l-0.126,-0.024l-0.127,-0.023l-0.126,-0.022l-0.127,-0.02l-0.127,-0.019l-0.128,-0.018l-0.127,-0.016l-0.128,-0.015l-0.127,-0.014l-0.128,-0.012l-0.128,-0.012l-0.128,-0.009l-0.129,-0.009l-0.128,-0.007l-0.129,-0.006l-0.128,-0.004l-0.129,-0.003l-0.129,-0.002l-0.128,0l-0.129,0.001l-0.129,0.003l-0.129,0.004l-0.129,0.005l-0.144,0.008l-1.407,0.08l-1.531,0.087l-0.8,0.047l-0.825,0.05l-0.847,0.053l-0.868,0.057l-0.891,0.061l-0.449,0.032l-0.456,0.032l-0.461,0.035l-0.465,0.035l-0.469,0.036l-0.474,0.038l-0.477,0.04l-0.481,0.04l-0.485,0.042l-0.488,0.044l-0.491,0.045l-0.495,0.046l-0.498,0.048l-0.501,0.05l-0.503,0.052l-0.506,0.053l-0.509,0.055l-0.511,0.057l-0.513,0.059l-0.515,0.06l-0.517,0.063l-0.518,0.065l-0.521,0.066l-0.521,0.069l-0.523,0.071l-0.524,0.073l-0.525,0.075l-0.526,0.078l-0.526,0.079l-0.527,0.082l-0.527,0.085l-0.528,0.087l-0.527,0.089l-0.527,0.092l-0.527,0.094l-0.527,0.097l-0.526,0.099l-0.525,0.102l-0.527,0.106l-0.259,0.053l-0.261,0.054l-0.261,0.054l-0.261,0.056l-0.26,0.056l-0.26,0.057l-0.26,0.057l-0.259,0.058l-0.259,0.059l-0.258,0.06l-0.258,0.06l-0.258,0.061l-0.256,0.062l-0.257,0.063l-0.255,0.063l-0.256,0.064l-0.254,0.064l-0.254,0.066l-0.254,0.066l-0.252,0.067l-0.252,0.068l-0.252,0.068l-0.25,0.069l-0.25,0.07l-0.249,0.071l-0.248,0.071l-0.248,0.073l-0.247,0.073l-0.246,0.073l-0.244,0.075l-0.245,0.075l-0.243,0.076l-0.242,0.077l-0.241,0.078l-0.241,0.078l-0.239,0.079l-0.239,0.08l-0.237,0.081l-0.236,0.082l-0.236,0.082l-0.234,0.083l-0.233,0.084l-0.232,0.085l-0.23,0.086l-0.23,0.086l-0.228,0.087l-0.228,0.088l-0.225,0.089l-0.225,0.089l-0.224,0.091l-0.222,0.091l-0.221,0.092l-0.219,0.092l-0.218,0.094l-0.217,0.094l-0.215,0.095l-0.214,0.096l-0.213,0.097l-0.211,0.097l-0.209,0.098l-0.208,0.099l-0.207,0.1l-0.205,0.101l-0.203,0.101l-0.202,0.102l-0.201,0.103l-0.198,0.104l-0.197,0.104l-0.196,0.105l-0.194,0.106l-0.192,0.107l-0.19,0.107l-0.189,0.108l-0.187,0.109l-0.185,0.11l-0.183,0.11l-0.182,0.112l-0.18,0.111l-0.178,0.113l-0.176,0.113l-0.174,0.114l-0.173,0.115l-0.171,0.115l-0.168,0.116l-0.167,0.117l-0.165,0.118l-0.163,0.118l-0.161,0.118l-0.159,0.12l-0.158,0.12l-0.155,0.121l-0.153,0.121l-0.151,0.122l-0.149,0.123l-0.148,0.123l-0.145,0.124l-0.143,0.125l-0.141,0.125l-0.14,0.126l-0.137,0.126l-0.135,0.127l-0.133,0.128l-0.131,0.128l-0.129,0.129l-0.127,0.129l-0.125,0.13l-0.122,0.131l-0.121,0.131l-0.119,0.132l-0.117,0.132l-0.114,0.133l-0.113,0.134l-0.111,0.134l-0.108,0.135l-0.107,0.136l-0.104,0.136l-0.103,0.136l-0.1,0.138l-0.099,0.138l-0.096,0.139l-0.095,0.139l-0.092,0.14l-0.091,0.141l-0.088,0.142l-0.087,0.142l-0.085,0.143l-0.082,0.144l-0.081,0.144l-0.079,0.146l-0.077,0.146l-0.075,0.147l-0.073,0.149l-0.071,0.149l-0.069,0.15l-0.067,0.151l-0.069,0.159l-0.029,0.069l-0.031,0.077l-0.031,0.077l-0.031,0.077l-0.03,0.078l-0.03,0.078l-0.029,0.078l-0.028,0.078l-0.028,0.079l-0.028,0.079l-0.027,0.079l-0.032,0.093l-0.075,0.225l-0.082,0.24l-0.083,0.242l-0.085,0.242l-0.087,0.244l-0.088,0.246l-0.09,0.247l-0.092,0.248l-0.093,0.25l-0.095,0.251l-0.096,0.253l-0.099,0.257l-0.198,0.51l-0.205,0.519l-0.21,0.525l-0.215,0.531l-0.22,0.537l-0.224,0.544l-0.229,0.549l-0.233,0.555l-0.237,0.561l-0.24,0.567l-0.49,1.149l-0.501,1.171l-0.511,1.193l-0.519,1.213l-0.261,0.613l-0.263,0.617l-0.263,0.622l-0.264,0.627l-0.264,0.63l-0.264,0.634l-0.264,0.638l-0.264,0.642l-0.263,0.645l-0.262,0.648l-0.261,0.652l-0.259,0.654l-0.258,0.657l-0.256,0.662l-0.127,0.328l-0.126,0.332l-0.126,0.331l-0.125,0.333l-0.125,0.333l-0.123,0.333l-0.123,0.334l-0.123,0.334l-0.121,0.335l-0.121,0.335l-0.119,0.335l-0.119,0.336l-0.118,0.336l-0.117,0.337l-0.116,0.336l-0.115,0.337l-0.114,0.337l-0.112,0.338l-0.112,0.337l-0.11,0.338l-0.11,0.338l-0.108,0.338l-0.106,0.338l-0.106,0.338l-0.104,0.338l-0.103,0.338l-0.101,0.338l-0.101,0.338l-0.098,0.338l-0.097,0.337l-0.096,0.338l-0.094,0.338l-0.093,0.337l-0.091,0.337l-0.089,0.337l-0.088,0.337l-0.086,0.336l-0.084,0.336l-0.083,0.336l-0.081,0.335l-0.079,0.335l-0.077,0.335l-0.076,0.334l-0.073,0.334l-0.072,0.333l-0.069,0.333l-0.068,0.332l-0.066,0.331l-0.064,0.331l-0.061,0.33l-0.06,0.33l-0.895,5.117l-9.548,-1.671l0.9,-5.145l0.07,-0.384l0.071,-0.384l0.074,-0.384l0.076,-0.383l0.079,-0.383l0.08,-0.383l0.082,-0.382l0.084,-0.382l0.086,-0.381l0.088,-0.382l0.09,-0.38l0.092,-0.38l0.093,-0.38l0.095,-0.379l0.097,-0.379l0.099,-0.378l0.1,-0.377l0.102,-0.377l0.103,-0.377l0.105,-0.376l0.106,-0.375l0.108,-0.375l0.109,-0.374l0.111,-0.373l0.112,-0.373l0.113,-0.372l0.114,-0.372l0.116,-0.37l0.117,-0.37l0.118,-0.37l0.119,-0.368l0.12,-0.368l0.122,-0.367l0.122,-0.366l0.123,-0.365l0.125,-0.365l0.125,-0.363l0.126,-0.363l0.127,-0.362l0.127,-0.361l0.129,-0.36l0.129,-0.359l0.13,-0.358l0.131,-0.357l0.131,-0.356l0.132,-0.355l0.132,-0.354l0.133,-0.353l0.134,-0.352l0.133,-0.351l0.136,-0.352l0.269,-0.693l0.271,-0.692l0.272,-0.686l0.273,-0.682l0.273,-0.676l0.274,-0.671l0.273,-0.665l0.273,-0.66l0.273,-0.654l0.271,-0.648l0.271,-0.642l0.269,-0.635l0.267,-0.629l0.265,-0.623l0.523,-1.222l0.512,-1.195l0.498,-1.163l0.482,-1.133l0.234,-0.551l0.23,-0.544l0.224,-0.535l0.219,-0.525l0.213,-0.516l0.207,-0.506l0.201,-0.496l0.194,-0.485l0.187,-0.474l0.182,-0.467l0.086,-0.224l0.085,-0.224l0.084,-0.222l0.081,-0.218l0.079,-0.215l0.078,-0.212l0.075,-0.209l0.073,-0.206l0.071,-0.202l0.069,-0.199l0.066,-0.196l0.069,-0.205l0.043,-0.127l0.048,-0.14l0.049,-0.139l0.049,-0.139l0.051,-0.139l0.051,-0.138l0.053,-0.137l0.053,-0.138l0.054,-0.136l0.055,-0.136l0.055,-0.136l0.06,-0.142l0.112,-0.261l0.119,-0.267l0.122,-0.264l0.125,-0.262l0.128,-0.261l0.132,-0.258l0.134,-0.256l0.138,-0.253l0.14,-0.252l0.144,-0.25l0.146,-0.247l0.149,-0.245l0.152,-0.243l0.155,-0.24l0.157,-0.239l0.16,-0.236l0.163,-0.234l0.165,-0.232l0.168,-0.229l0.171,-0.228l0.172,-0.225l0.176,-0.223l0.177,-0.221l0.18,-0.218l0.183,-0.216l0.184,-0.214l0.187,-0.212l0.189,-0.21l0.191,-0.208l0.193,-0.205l0.196,-0.204l0.197,-0.201l0.199,-0.199l0.202,-0.197l0.203,-0.195l0.205,-0.192l0.207,-0.191l0.209,-0.189l0.21,-0.187l0.212,-0.184l0.214,-0.183l0.216,-0.181l0.218,-0.178l0.219,-0.177l0.22,-0.175l0.223,-0.173l0.224,-0.171l0.225,-0.169l0.227,-0.168l0.228,-0.165l0.23,-0.164l0.231,-0.161l0.233,-0.161l0.234,-0.158l0.236,-0.156l0.236,-0.155l0.239,-0.153l0.239,-0.152l0.241,-0.149l0.242,-0.148l0.243,-0.147l0.244,-0.144l0.246,-0.143l0.246,-0.142l0.248,-0.14l0.249,-0.138l0.251,-0.137l0.251,-0.135l0.252,-0.134l0.254,-0.132l0.254,-0.131l0.256,-0.129l0.256,-0.128l0.258,-0.126l0.258,-0.125l0.26,-0.123l0.26,-0.122l0.261,-0.121l0.262,-0.119l0.264,-0.118l0.264,-0.117l0.264,-0.115l0.266,-0.114l0.267,-0.112l0.267,-0.112l0.268,-0.11l0.269,-0.108l0.269,-0.108l0.271,-0.106l0.271,-0.105l0.272,-0.103l0.272,-0.103l0.273,-0.101l0.274,-0.1l0.275,-0.099l0.275,-0.098l0.275,-0.096l0.277,-0.096l0.277,-0.094l0.277,-0.093l0.278,-0.092l0.279,-0.091l0.279,-0.09l0.279,-0.089l0.281,-0.087l0.28,-0.087l0.281,-0.085l0.282,-0.085l0.281,-0.083l0.283,-0.082l0.282,-0.082l0.283,-0.08l0.284,-0.079l0.284,-0.079l0.284,-0.077l0.284,-0.077l0.285,-0.075l0.285,-0.074l0.285,-0.074l0.285,-0.072l0.286,-0.072l0.286,-0.071l0.286,-0.069l0.287,-0.069l0.286,-0.068l0.287,-0.067l0.286,-0.067l0.287,-0.065l0.287,-0.064l0.287,-0.064l0.288,-0.063l0.287,-0.061l0.287,-0.062l0.287,-0.06l0.288,-0.059l0.29,-0.059l0.571,-0.114l0.574,-0.112l0.574,-0.109l0.573,-0.105l0.573,-0.102l0.572,-0.1l0.571,-0.097l0.57,-0.094l0.568,-0.091l0.568,-0.088l0.566,-0.086l0.564,-0.083l0.562,-0.081l0.561,-0.078l0.559,-0.075l0.556,-0.074l0.554,-0.071l0.552,-0.068l0.549,-0.067l0.547,-0.064l0.544,-0.063l0.54,-0.06l0.538,-0.058l0.534,-0.056l0.531,-0.055l0.527,-0.052l0.524,-0.051l0.52,-0.049l0.515,-0.047l0.512,-0.045l0.507,-0.044l0.503,-0.043l0.498,-0.041l0.494,-0.039l0.488,-0.038l0.484,-0.037l0.479,-0.036l0.473,-0.034l0.469,-0.033l0.916,-0.062l0.895,-0.059l0.869,-0.054l0.843,-0.051l0.817,-0.048l1.54,-0.088l1.432,-0.082l0.219,-0.011l0.234,-0.01l0.234,-0.007l0.233,-0.005l0.233,-0.002l0.233,0.001Z" style="fill:#f00;"/><path d="M110.569,42.925l0.021,0.155l0.041,0.328l0.047,0.396l0.051,0.461l0.057,0.528l0.061,0.592l0.066,0.656l0.069,0.716l0.073,0.776l0.075,0.832l0.078,0.885l0.078,0.935l0.041,0.488l0.04,0.499l0.04,0.51l0.04,0.521l0.04,0.532l0.041,0.543l0.04,0.553l0.039,0.563l0.04,0.572l0.039,0.582l0.039,0.59l0.038,0.599l0.037,0.607l0.037,0.615l0.037,0.623l0.035,0.63l0.035,0.636l0.033,0.644l0.033,0.649l0.032,0.656l0.03,0.661l0.029,0.667l0.028,0.671l0.027,0.676l0.025,0.681l0.024,0.684l0.022,0.688l0.02,0.691l0.019,0.695l0.017,0.697l0.015,0.699l0.014,0.701l0.011,0.704l0.009,0.704l0.007,0.706l0.005,0.706l0.002,0.707l0,0.707l-0.002,0.707l-0.005,0.706l-0.007,0.706l-0.01,0.705l-0.013,0.703l-0.016,0.701l-0.019,0.697l-0.01,0.351l-0.011,0.349l-0.012,0.347l-0.013,0.347l-0.013,0.346l-0.015,0.346l-0.015,0.344l-0.016,0.344l-0.017,0.343l-0.017,0.342l-0.019,0.341l-0.019,0.34l-0.02,0.339l-0.021,0.339l-0.022,0.337l-0.023,0.335l-0.024,0.335l-0.025,0.334l-0.026,0.332l-0.026,0.331l-0.028,0.33l-0.028,0.329l-0.03,0.327l-0.031,0.326l-0.031,0.324l-0.033,0.323l-0.034,0.322l-0.035,0.32l-0.035,0.318l-0.037,0.317l-0.039,0.316l-0.039,0.314l-0.04,0.312l-0.042,0.311l-0.042,0.309l-0.044,0.307l-0.046,0.305l-0.046,0.304l-0.048,0.302l-0.049,0.3l-0.05,0.299l-0.052,0.296l-0.053,0.295l-0.054,0.293l-0.056,0.291l-0.057,0.289l-0.058,0.287l-0.061,0.286l-0.061,0.283l-0.064,0.282l-0.065,0.279l-0.066,0.278l-0.068,0.276l-0.07,0.274l-0.072,0.271l-0.074,0.27l-0.075,0.268l-0.078,0.266l-0.079,0.264l-0.081,0.262l-0.084,0.261l-0.086,0.258l-0.088,0.256l-0.091,0.255l-0.093,0.252l-0.095,0.251l-0.098,0.249l-0.101,0.247l-0.104,0.245l-0.107,0.244l-0.111,0.241l-0.113,0.24l-0.117,0.238l-0.116,0.228l-0.066,0.126l-0.063,0.117l-0.064,0.116l-0.065,0.116l-0.066,0.116l-0.067,0.115l-0.068,0.115l-0.069,0.115l-0.071,0.113l-0.071,0.114l-0.073,0.113l-0.074,0.112l-0.076,0.112l-0.076,0.111l-0.079,0.111l-0.079,0.111l-0.081,0.109l-0.083,0.11l-0.084,0.108l-0.086,0.108l-0.087,0.108l-0.088,0.106l-0.091,0.107l-0.092,0.105l-0.094,0.105l-0.096,0.104l-0.098,0.103l-0.099,0.102l-0.101,0.101l-0.104,0.1l-0.105,0.1l-0.107,0.098l-0.109,0.098l-0.111,0.095l-0.114,0.095l-0.115,0.094l-0.117,0.092l-0.12,0.091l-0.122,0.09l-0.124,0.087l-0.126,0.086l-0.128,0.085l-0.13,0.083l-0.132,0.08l-0.135,0.079l-0.136,0.077l-0.139,0.074l-0.14,0.073l-0.143,0.07l-0.144,0.067l-0.146,0.065l-0.148,0.063l-0.149,0.06l-0.152,0.057l-0.153,0.055l-0.154,0.051l-0.155,0.049l-0.157,0.045l-0.158,0.043l-0.159,0.04l-0.16,0.036l-0.161,0.033l-0.162,0.03l-0.162,0.027l-0.163,0.024l-0.163,0.02l-0.163,0.017l-0.164,0.014l-0.163,0.011l-0.164,0.008l-0.163,0.004l-0.164,0.001l-0.163,-0.002l-0.162,-0.005l-0.162,-0.008l-0.162,-0.011l-0.16,-0.013l-0.161,-0.017l-0.159,-0.02l-0.158,-0.022l-0.158,-0.025l-0.157,-0.028l-0.155,-0.03l-0.155,-0.033l-0.154,-0.035l-0.152,-0.037l-0.152,-0.04l-0.151,-0.043l-0.193,-0.057l-0.192,-0.06l-0.191,-0.064l-0.189,-0.066l-0.189,-0.069l-0.186,-0.072l-0.185,-0.075l-0.184,-0.078l-0.182,-0.08l-0.18,-0.084l-0.179,-0.086l-0.176,-0.088l-0.175,-0.092l-0.174,-0.094l-0.171,-0.096l-0.169,-0.099l-0.167,-0.101l-0.165,-0.104l-0.163,-0.106l-0.161,-0.108l-0.159,-0.11l-0.157,-0.113l-0.154,-0.114l-0.152,-0.116l-0.15,-0.119l-0.148,-0.12l-0.146,-0.122l-0.143,-0.123l-0.142,-0.126l-0.139,-0.126l-0.137,-0.129l-0.134,-0.129l-0.133,-0.132l-0.13,-0.132l-0.128,-0.134l-0.126,-0.135l-0.124,-0.136l-0.122,-0.138l-0.12,-0.138l-0.118,-0.14l-0.116,-0.14l-0.114,-0.142l-0.112,-0.142l-0.11,-0.144l-0.108,-0.144l-0.107,-0.145l-0.104,-0.146l-0.103,-0.147l-0.102,-0.147l-0.099,-0.148l-0.098,-0.149l-0.097,-0.149l-0.094,-0.15l-0.094,-0.151l-0.092,-0.151l-0.09,-0.152l-0.089,-0.153l-0.088,-0.153l-0.086,-0.154l-0.085,-0.154l-0.083,-0.155l-0.083,-0.155l-0.081,-0.156l-0.08,-0.157l-0.079,-0.156l-0.078,-0.158l-0.077,-0.158l-0.075,-0.158l-0.075,-0.159l-0.073,-0.159l-0.073,-0.16l-0.072,-0.16l-0.071,-0.161l-0.07,-0.161l-0.069,-0.162l-0.068,-0.162l-0.067,-0.163l-0.069,-0.168l-0.129,-0.322l-0.128,-0.329l-0.126,-0.331l-0.123,-0.332l-0.121,-0.335l-0.119,-0.336l-0.116,-0.337l-0.115,-0.34l-0.113,-0.341l-0.112,-0.343l-0.11,-0.344l-0.108,-0.346l-0.108,-0.347l-0.106,-0.349l-0.106,-0.351l-0.105,-0.352l-0.104,-0.353l-0.103,-0.355l-0.104,-0.358l-0.204,-0.714l-0.204,-0.721l-0.204,-0.726l-0.411,-1.466l-0.209,-0.738l-0.212,-0.744l-0.107,-0.37l-0.108,-0.372l-0.109,-0.373l-0.111,-0.374l-0.111,-0.374l-0.113,-0.374l-0.114,-0.375l-0.116,-0.376l-0.118,-0.375l-0.119,-0.376l-0.12,-0.376l-0.123,-0.376l-0.124,-0.375l-0.126,-0.376l-0.129,-0.376l-0.13,-0.376l-0.133,-0.376l-0.134,-0.375l-0.137,-0.375l-0.14,-0.374l-0.142,-0.375l-0.144,-0.373l-0.147,-0.373l-0.151,-0.377l-0.075,-0.182l-0.076,-0.186l-0.077,-0.186l-0.078,-0.185l-0.079,-0.185l-0.079,-0.185l-0.08,-0.185l-0.081,-0.185l-0.082,-0.184l-0.082,-0.185l-0.083,-0.184l-0.084,-0.183l-0.085,-0.184l-0.085,-0.183l-0.086,-0.183l-0.087,-0.183l-0.088,-0.182l-0.089,-0.183l-0.089,-0.182l-0.091,-0.181l-0.091,-0.181l-0.092,-0.182l-0.093,-0.18l-0.094,-0.181l-0.095,-0.18l-0.095,-0.179l-0.097,-0.18l-0.097,-0.179l-0.099,-0.179l-0.099,-0.178l-0.1,-0.178l-0.101,-0.178l-0.103,-0.177l-0.103,-0.177l-0.104,-0.177l-0.105,-0.176l-0.106,-0.176l-0.107,-0.175l-0.108,-0.175l-0.109,-0.175l-0.11,-0.174l-0.112,-0.174l-0.112,-0.173l-0.113,-0.173l-0.114,-0.173l-0.116,-0.172l-0.116,-0.172l-0.118,-0.171l-0.119,-0.171l-0.12,-0.17l-0.121,-0.17l-0.122,-0.17l-0.123,-0.169l-0.125,-0.168l-0.125,-0.168l-0.127,-0.168l-0.128,-0.167l-0.129,-0.167l-0.131,-0.166l-0.131,-0.166l-0.133,-0.165l-0.134,-0.165l-0.136,-0.164l-0.133,-0.159l-0.06,-0.071l-0.058,-0.067l-0.06,-0.067l-0.061,-0.068l-0.064,-0.069l-0.065,-0.068l-0.066,-0.07l-0.069,-0.069l-0.07,-0.07l-0.072,-0.071l-0.073,-0.07l-0.076,-0.071l-0.077,-0.072l-0.078,-0.071l-0.081,-0.072l-0.082,-0.072l-0.084,-0.073l-0.085,-0.072l-0.087,-0.073l-0.089,-0.073l-0.09,-0.073l-0.092,-0.073l-0.094,-0.073l-0.095,-0.074l-0.097,-0.073l-0.098,-0.074l-0.1,-0.073l-0.102,-0.074l-0.103,-0.074l-0.104,-0.073l-0.107,-0.074l-0.107,-0.073l-0.109,-0.074l-0.111,-0.074l-0.112,-0.073l-0.113,-0.074l-0.115,-0.073l-0.117,-0.073l-0.117,-0.074l-0.119,-0.073l-0.121,-0.073l-0.122,-0.073l-0.123,-0.072l-0.124,-0.073l-0.126,-0.072l-0.127,-0.073l-0.128,-0.072l-0.13,-0.072l-0.131,-0.071l-0.131,-0.072l-0.134,-0.071l-0.134,-0.071l-0.136,-0.071l-0.136,-0.071l-0.138,-0.07l-0.139,-0.07l-0.14,-0.07l-0.141,-0.07l-0.142,-0.07l-0.144,-0.069l-0.144,-0.069l-0.145,-0.068l-0.147,-0.069l-0.143,-0.066l-0.302,-0.137l-0.301,-0.134l-0.305,-0.133l-0.308,-0.132l-0.312,-0.13l-0.315,-0.129l-0.318,-0.128l-0.321,-0.127l-0.324,-0.125l-0.327,-0.123l-0.329,-0.123l-0.332,-0.12l-0.334,-0.12l-0.337,-0.118l-0.338,-0.116l-0.341,-0.115l-0.342,-0.113l-0.345,-0.112l-0.345,-0.111l-0.348,-0.108l-0.348,-0.108l-0.35,-0.106l-0.351,-0.104l-0.353,-0.102l-0.353,-0.101l-0.354,-0.1l-0.354,-0.098l-0.355,-0.096l-0.356,-0.094l-0.356,-0.093l-0.356,-0.092l-0.356,-0.09l-0.356,-0.088l-0.356,-0.086l-0.355,-0.085l-0.356,-0.084l-0.355,-0.081l-0.354,-0.08l-0.353,-0.079l-0.353,-0.076l-0.352,-0.075l-0.35,-0.074l-0.35,-0.072l-0.348,-0.07l-0.346,-0.069l-0.346,-0.066l-0.343,-0.066l-0.342,-0.063l-0.34,-0.062l-0.337,-0.061l-0.336,-0.058l-0.334,-0.057l-0.331,-0.056l-0.328,-0.053l-0.326,-0.053l-0.323,-0.05l-0.321,-0.049l-0.317,-0.047l-0.315,-0.046l-0.311,-0.044l-0.308,-0.042l-0.304,-0.041l-0.301,-0.039l-0.297,-0.037l-0.293,-0.036l-0.29,-0.034l-0.285,-0.033l-0.281,-0.031l-0.276,-0.029l-0.272,-0.028l-0.268,-0.026l-0.263,-0.024l-0.257,-0.023l-0.253,-0.022l-0.247,-0.019l-0.242,-0.018l-0.237,-0.017l-0.23,-0.015l-0.225,-0.014l-0.218,-0.012l-0.213,-0.01l-0.205,-0.009l-0.199,-0.008l-0.192,-0.006l-0.185,-0.004l-0.177,-0.003l-0.17,-0.002l-0.161,-0.001l-0.152,0.001l-0.144,0.002l-0.134,0.003l-0.125,0.004l-0.114,0.005l-0.102,0.006l-0.091,0.006l-4.945,0.404l-0.789,-9.66l5.011,-0.41l0.218,-0.015l0.219,-0.012l0.222,-0.009l0.224,-0.008l0.227,-0.005l0.23,-0.003l0.234,-0.001l0.238,0l0.242,0.003l0.245,0.004l0.25,0.006l0.254,0.008l0.258,0.01l0.263,0.011l0.266,0.014l0.271,0.014l0.276,0.017l0.279,0.018l0.284,0.02l0.288,0.022l0.292,0.023l0.296,0.025l0.301,0.027l0.304,0.028l0.308,0.03l0.312,0.032l0.316,0.034l0.32,0.035l0.323,0.037l0.327,0.038l0.33,0.041l0.334,0.042l0.337,0.044l0.34,0.045l0.344,0.047l0.346,0.049l0.35,0.051l0.352,0.052l0.356,0.054l0.358,0.056l0.36,0.058l0.364,0.059l0.366,0.062l0.368,0.063l0.37,0.064l0.373,0.067l0.375,0.068l0.377,0.071l0.378,0.071l0.381,0.074l0.382,0.076l0.384,0.077l0.386,0.079l0.387,0.082l0.388,0.083l0.39,0.084l0.39,0.087l0.392,0.089l0.393,0.09l0.394,0.092l0.395,0.094l0.395,0.097l0.396,0.098l0.396,0.1l0.397,0.101l0.398,0.104l0.397,0.106l0.398,0.108l0.398,0.11l0.397,0.111l0.398,0.114l0.398,0.116l0.397,0.118l0.397,0.12l0.396,0.122l0.396,0.124l0.395,0.126l0.394,0.128l0.394,0.13l0.392,0.133l0.392,0.135l0.391,0.137l0.389,0.139l0.388,0.141l0.387,0.143l0.385,0.146l0.384,0.148l0.382,0.151l0.381,0.153l0.379,0.155l0.377,0.158l0.375,0.16l0.373,0.163l0.371,0.165l0.364,0.165l0.188,0.087l0.183,0.086l0.183,0.086l0.182,0.087l0.181,0.087l0.18,0.089l0.18,0.088l0.18,0.09l0.179,0.09l0.178,0.091l0.177,0.092l0.177,0.092l0.176,0.094l0.175,0.094l0.175,0.094l0.174,0.096l0.173,0.096l0.173,0.097l0.172,0.098l0.171,0.098l0.17,0.099l0.169,0.101l0.169,0.101l0.168,0.101l0.167,0.103l0.167,0.103l0.165,0.105l0.165,0.105l0.164,0.106l0.163,0.107l0.162,0.108l0.161,0.109l0.161,0.11l0.159,0.11l0.159,0.112l0.158,0.113l0.156,0.114l0.156,0.114l0.155,0.116l0.154,0.117l0.153,0.118l0.152,0.119l0.151,0.119l0.15,0.122l0.148,0.122l0.148,0.123l0.147,0.125l0.145,0.126l0.145,0.127l0.143,0.128l0.142,0.129l0.142,0.131l0.139,0.132l0.139,0.133l0.137,0.134l0.137,0.136l0.135,0.138l0.133,0.138l0.132,0.14l0.131,0.142l0.13,0.143l0.128,0.144l0.127,0.146l0.121,0.143l0.178,0.214l0.173,0.209l0.171,0.211l0.17,0.21l0.168,0.211l0.166,0.212l0.164,0.212l0.163,0.213l0.161,0.213l0.159,0.213l0.158,0.214l0.156,0.214l0.155,0.214l0.153,0.215l0.151,0.215l0.15,0.216l0.148,0.216l0.147,0.216l0.145,0.216l0.144,0.217l0.142,0.217l0.141,0.217l0.139,0.218l0.137,0.217l0.136,0.218l0.135,0.218l0.133,0.219l0.132,0.218l0.131,0.219l0.129,0.219l0.127,0.219l0.126,0.219l0.125,0.219l0.124,0.219l0.122,0.22l0.121,0.219l0.119,0.22l0.118,0.219l0.117,0.22l0.116,0.219l0.114,0.22l0.113,0.22l0.112,0.22l0.11,0.219l0.11,0.22l0.108,0.22l0.107,0.219l0.105,0.22l0.105,0.219l0.103,0.22l0.103,0.219l0.101,0.219l0.1,0.219l0.099,0.219l0.097,0.219l0.097,0.219l0.096,0.218l0.094,0.219l0.094,0.218l0.093,0.218l0.091,0.218l0.091,0.217l0.089,0.218l0.09,0.221l0.173,0.43l0.17,0.432l0.167,0.432l0.163,0.43l0.16,0.429l0.156,0.428l0.153,0.426l0.15,0.424l0.147,0.424l0.143,0.421l0.141,0.419l0.138,0.418l0.136,0.416l0.133,0.414l0.13,0.412l0.128,0.409l0.126,0.408l0.124,0.405l0.121,0.402l0.119,0.4l0.118,0.398l0.115,0.395l0.114,0.392l0.113,0.391l0.219,0.767l0.214,0.758l0.414,1.474l0.201,0.717l0.199,0.7l0.196,0.688l0.097,0.334l0.096,0.331l0.097,0.328l0.096,0.323l0.095,0.318l0.096,0.313l0.096,0.309l0.095,0.303l0.095,0.298l0.096,0.294l0.095,0.288l0.096,0.282l0.095,0.277l0.096,0.271l0.096,0.266l0.096,0.259l0.096,0.254l0.097,0.247l0.099,0.247l0.046,0.112l0.048,0.117l0.048,0.115l0.049,0.113l0.048,0.112l0.049,0.109l0.048,0.109l0.048,0.106l0.049,0.105l0.048,0.103l0.049,0.101l0.048,0.1l0.048,0.098l0.049,0.096l0.048,0.094l0.048,0.092l0.048,0.091l0.048,0.089l0.048,0.087l0.048,0.085l0.048,0.083l0.047,0.082l0.048,0.08l0.047,0.077l0.047,0.076l0.047,0.075l0.046,0.072l0.047,0.07l0.046,0.069l0.046,0.067l0.045,0.065l0.046,0.063l0.045,0.061l0.045,0.06l0.044,0.058l0.044,0.056l0.044,0.054l0.043,0.053l0.043,0.05l0.043,0.05l0.042,0.047l0.042,0.046l0.041,0.044l0.041,0.043l0.041,0.041l0.04,0.04l0.04,0.039l0.039,0.037l0.039,0.035l0.039,0.034l0.038,0.033l0.038,0.032l0.037,0.031l0.038,0.029l0.037,0.029l0.037,0.027l0.036,0.026l0.037,0.026l0.036,0.024l0.037,0.024l0.036,0.023l0.037,0.022l0.036,0.021l0.037,0.021l0.008,0.004l0.016,-0.027l0.023,-0.039l0.024,-0.041l0.024,-0.042l0.024,-0.043l0.025,-0.046l0.025,-0.046l0.021,-0.04l0.056,-0.11l0.052,-0.107l0.054,-0.113l0.054,-0.118l0.054,-0.124l0.055,-0.13l0.056,-0.135l0.055,-0.141l0.055,-0.145l0.056,-0.151l0.055,-0.156l0.056,-0.16l0.055,-0.166l0.055,-0.171l0.054,-0.175l0.054,-0.179l0.054,-0.184l0.053,-0.189l0.052,-0.192l0.052,-0.197l0.052,-0.201l0.05,-0.206l0.05,-0.209l0.05,-0.213l0.049,-0.217l0.048,-0.22l0.047,-0.224l0.046,-0.228l0.046,-0.231l0.045,-0.235l0.044,-0.238l0.044,-0.242l0.042,-0.244l0.042,-0.248l0.041,-0.251l0.04,-0.254l0.039,-0.257l0.039,-0.259l0.037,-0.263l0.037,-0.265l0.036,-0.268l0.035,-0.271l0.034,-0.274l0.033,-0.276l0.033,-0.278l0.031,-0.281l0.031,-0.283l0.03,-0.285l0.029,-0.288l0.029,-0.29l0.027,-0.292l0.027,-0.295l0.026,-0.296l0.025,-0.298l0.024,-0.3l0.023,-0.303l0.023,-0.303l0.021,-0.306l0.021,-0.308l0.021,-0.309l0.019,-0.311l0.019,-0.312l0.017,-0.314l0.017,-0.315l0.017,-0.317l0.015,-0.318l0.015,-0.32l0.014,-0.32l0.014,-0.322l0.012,-0.324l0.012,-0.324l0.011,-0.325l0.011,-0.327l0.009,-0.325l0.018,-0.66l0.015,-0.662l0.012,-0.664l0.01,-0.667l0.007,-0.669l0.004,-0.671l0.002,-0.673l0,-0.674l-0.002,-0.675l-0.005,-0.675l-0.006,-0.676l-0.009,-0.675l-0.011,-0.675l-0.012,-0.674l-0.015,-0.672l-0.016,-0.671l-0.019,-0.669l-0.019,-0.667l-0.022,-0.664l-0.023,-0.66l-0.024,-0.658l-0.026,-0.654l-0.027,-0.649l-0.028,-0.645l-0.029,-0.641l-0.031,-0.635l-0.032,-0.63l-0.032,-0.623l-0.034,-0.618l-0.034,-0.611l-0.036,-0.605l-0.035,-0.597l-0.037,-0.589l-0.037,-0.582l-0.038,-0.573l-0.038,-0.565l-0.038,-0.556l-0.039,-0.546l-0.038,-0.537l-0.039,-0.527l-0.04,-0.517l-0.039,-0.506l-0.039,-0.495l-0.039,-0.483l-0.038,-0.47l-0.077,-0.909l-0.074,-0.856l-0.073,-0.802l-0.07,-0.745l-0.066,-0.686l-0.062,-0.622l-0.058,-0.557l-0.053,-0.487l-0.046,-0.413l-0.039,-0.332l-0.031,-0.251l-0.011,-0.076l-0.694,-4.874l9.596,-1.366l0.7,4.913Z" style="fill:#f00;"/><path d="M11.341,74.647l0.135,0.002l0.136,0.002l0.135,0.003l0.135,0.005l0.144,0.005l0.26,0.014l0.268,0.018l0.268,0.022l0.266,0.026l0.265,0.029l0.265,0.034l0.263,0.037l0.262,0.041l0.261,0.044l0.26,0.048l0.259,0.051l0.258,0.055l0.256,0.058l0.256,0.061l0.254,0.065l0.253,0.067l0.251,0.071l0.251,0.074l0.249,0.076l0.248,0.08l0.247,0.082l0.245,0.085l0.245,0.087l0.243,0.09l0.242,0.093l0.241,0.095l0.239,0.098l0.239,0.1l0.237,0.103l0.237,0.104l0.235,0.107l0.234,0.109l0.233,0.112l0.232,0.113l0.231,0.116l0.229,0.117l0.229,0.12l0.228,0.121l0.227,0.124l0.226,0.125l0.225,0.127l0.224,0.129l0.223,0.13l0.222,0.132l0.222,0.134l0.22,0.136l0.22,0.137l0.219,0.139l0.218,0.14l0.217,0.142l0.216,0.143l0.216,0.144l0.215,0.146l0.214,0.148l0.214,0.149l0.212,0.15l0.213,0.151l0.211,0.153l0.211,0.153l0.21,0.155l0.209,0.157l0.209,0.157l0.208,0.158l0.208,0.16l0.207,0.161l0.206,0.161l0.206,0.163l0.205,0.163l0.205,0.165l0.204,0.165l0.203,0.167l0.203,0.167l0.203,0.168l0.202,0.169l0.202,0.17l0.201,0.17l0.2,0.171l0.2,0.172l0.202,0.175l0.395,0.345l0.396,0.35l0.394,0.351l0.393,0.354l0.39,0.356l0.389,0.357l0.388,0.359l0.385,0.36l0.385,0.361l0.382,0.362l0.381,0.362l0.38,0.363l0.378,0.363l0.378,0.364l0.747,0.724l0.743,0.722l0.737,0.718l0.731,0.712l0.727,0.705l0.359,0.348l0.359,0.346l0.357,0.344l0.356,0.34l0.353,0.337l0.353,0.333l0.35,0.33l0.349,0.326l0.347,0.322l0.346,0.317l0.343,0.313l0.342,0.308l0.339,0.303l0.341,0.301l0.165,0.144l0.167,0.146l0.167,0.144l0.166,0.142l0.166,0.141l0.165,0.14l0.165,0.138l0.164,0.136l0.163,0.135l0.163,0.133l0.162,0.132l0.161,0.13l0.161,0.128l0.16,0.127l0.159,0.124l0.159,0.123l0.158,0.121l0.157,0.12l0.156,0.117l0.156,0.116l0.155,0.113l0.154,0.112l0.153,0.11l0.152,0.108l0.152,0.106l0.15,0.103l0.15,0.102l0.148,0.1l0.148,0.097l0.147,0.095l0.145,0.094l0.145,0.091l0.144,0.089l0.142,0.086l0.141,0.085l0.141,0.082l0.139,0.08l0.137,0.078l0.137,0.076l0.136,0.073l0.134,0.071l0.133,0.069l0.131,0.067l0.13,0.064l0.129,0.062l0.127,0.059l0.126,0.058l0.124,0.055l0.123,0.052l0.122,0.051l0.119,0.048l0.119,0.046l0.116,0.044l0.115,0.041l0.114,0.04l0.111,0.037l0.11,0.035l0.109,0.033l0.107,0.03l0.105,0.029l0.103,0.027l0.101,0.024l0.101,0.023l0.098,0.021l0.096,0.018l0.095,0.017l0.094,0.015l0.092,0.014l0.09,0.011l0.088,0.01l0.088,0.009l0.086,0.006l0.095,0.006l0.031,0.001l0.042,0.002l0.041,0.001l0.041,0.001l0.04,0.001l0.04,0l0.04,-0.001l0.041,0l0.039,-0.001l0.039,-0.002l0.039,-0.001l0.039,-0.002l0.039,-0.003l0.039,-0.003l0.038,-0.003l0.038,-0.003l0.038,-0.004l0.038,-0.004l0.038,-0.005l0.038,-0.005l0.037,-0.005l0.043,-0.006l0.507,-0.08l0.512,-0.083l0.511,-0.086l0.512,-0.088l0.511,-0.091l0.51,-0.093l0.51,-0.095l0.51,-0.099l0.509,-0.1l0.509,-0.103l0.508,-0.105l0.508,-0.108l0.507,-0.11l0.507,-0.112l0.506,-0.114l0.506,-0.116l0.505,-0.119l0.505,-0.121l0.504,-0.122l0.503,-0.125l0.502,-0.127l0.502,-0.128l0.501,-0.131l0.5,-0.132l0.5,-0.135l0.499,-0.136l0.498,-0.138l0.497,-0.14l0.496,-0.141l0.496,-0.143l0.495,-0.145l0.493,-0.146l0.493,-0.148l0.492,-0.15l0.491,-0.15l0.49,-0.153l0.489,-0.154l0.488,-0.155l0.487,-0.157l0.486,-0.158l0.485,-0.159l0.483,-0.16l0.483,-0.162l0.481,-0.163l0.481,-0.164l0.479,-0.165l0.478,-0.166l0.476,-0.168l0.476,-0.168l0.474,-0.169l0.473,-0.171l0.472,-0.171l0.47,-0.172l0.469,-0.172l0.468,-0.174l0.466,-0.174l0.465,-0.175l0.464,-0.176l0.462,-0.176l0.461,-0.177l0.459,-0.178l0.458,-0.178l0.456,-0.179l0.455,-0.179l0.453,-0.179l0.452,-0.18l0.45,-0.181l0.448,-0.18l0.447,-0.181l0.446,-0.181l0.443,-0.182l0.442,-0.181l0.44,-0.182l0.437,-0.181l0.874,-0.365l0.865,-0.364l0.858,-0.363l0.851,-0.363l0.843,-0.362l0.836,-0.361l0.828,-0.36l0.821,-0.358l0.812,-0.356l0.805,-0.353l0.795,-0.351l1.569,-0.694l1.534,-0.68l1.497,-0.664l0.737,-0.325l0.727,-0.321l0.718,-0.315l0.709,-0.311l0.7,-0.304l0.69,-0.299l0.681,-0.293l0.672,-0.286l0.663,-0.28l0.65,-0.271l0.326,-0.135l0.32,-0.132l0.319,-0.13l0.316,-0.128l0.314,-0.126l0.311,-0.124l0.309,-0.122l0.307,-0.12l0.305,-0.118l0.302,-0.117l0.301,-0.113l0.298,-0.112l0.295,-0.11l0.294,-0.107l0.292,-0.105l0.289,-0.103l0.287,-0.1l0.286,-0.098l0.283,-0.096l0.282,-0.093l0.279,-0.091l0.278,-0.088l0.276,-0.086l0.274,-0.083l0.273,-0.08l0.271,-0.078l0.27,-0.075l0.268,-0.072l0.268,-0.069l0.266,-0.067l0.265,-0.063l0.264,-0.06l0.263,-0.057l0.263,-0.054l0.263,-0.05l0.262,-0.047l0.263,-0.044l0.262,-0.039l0.254,-0.035l0.14,-0.017l0.132,-0.015l0.132,-0.014l0.133,-0.013l0.132,-0.012l0.133,-0.011l0.133,-0.009l0.134,-0.009l0.134,-0.007l0.135,-0.005l0.135,-0.004l0.135,-0.003l0.137,-0.001l0.136,0l0.138,0.002l0.137,0.003l0.139,0.005l0.14,0.007l0.14,0.009l0.141,0.011l0.141,0.012l0.143,0.015l0.143,0.017l0.144,0.02l0.146,0.021l0.146,0.024l0.146,0.027l0.148,0.03l0.148,0.032l0.15,0.035l0.149,0.038l0.151,0.041l0.152,0.045l0.152,0.047l0.152,0.052l0.153,0.054l0.153,0.059l0.154,0.062l0.153,0.067l0.153,0.07l0.154,0.074l0.153,0.078l0.152,0.083l0.151,0.087l0.15,0.091l0.15,0.095l0.148,0.1l0.146,0.103l0.144,0.108l0.143,0.113l0.14,0.115l0.137,0.121l0.135,0.123l0.132,0.128l0.128,0.131l0.125,0.134l0.122,0.138l0.118,0.14l0.114,0.143l0.11,0.145l0.106,0.148l0.103,0.15l0.097,0.152l0.094,0.153l0.089,0.155l0.086,0.156l0.08,0.156l0.077,0.158l0.073,0.159l0.068,0.158l0.065,0.159l0.06,0.159l0.057,0.159l0.053,0.159l0.05,0.159l0.045,0.159l0.043,0.158l0.039,0.158l0.036,0.157l0.032,0.157l0.03,0.156l0.027,0.155l0.024,0.155l0.021,0.155l0.019,0.153l0.017,0.154l0.013,0.152l0.012,0.152l0.009,0.152l0.007,0.151l0.006,0.15l0.003,0.15l0.001,0.15l-0.001,0.15l-0.003,0.149l-0.004,0.148l-0.006,0.149l-0.008,0.148l-0.009,0.149l-0.011,0.148l-0.012,0.148l-0.014,0.147l-0.016,0.148l-0.017,0.148l-0.018,0.148l-0.02,0.149l-0.021,0.148l-0.022,0.149l-0.024,0.149l-0.025,0.149l-0.027,0.15l-0.027,0.15l-0.029,0.15l-0.03,0.151l-0.032,0.151l-0.032,0.152l-0.034,0.152l-0.035,0.153l-0.036,0.154l-0.037,0.154l-0.039,0.155l-0.04,0.155l-0.04,0.156l-0.042,0.157l-0.044,0.158l-0.046,0.165l-0.09,0.313l-0.097,0.323l-0.101,0.327l-0.106,0.33l-0.111,0.335l-0.115,0.338l-0.12,0.343l-0.124,0.347l-0.129,0.352l-0.134,0.357l-0.138,0.361l-0.143,0.367l-0.148,0.371l-0.153,0.376l-0.157,0.382l-0.162,0.387l-0.166,0.392l-0.172,0.398l-0.176,0.403l-0.181,0.409l-0.186,0.415l-0.191,0.421l-0.196,0.426l-0.201,0.433l-0.206,0.438l-2.282,4.816l-8.759,-4.152l2.275,-4.799l0.189,-0.403l0.184,-0.396l0.179,-0.389l0.173,-0.381l0.167,-0.374l0.163,-0.367l0.157,-0.36l0.152,-0.352l0.146,-0.344l0.141,-0.337l0.136,-0.33l0.131,-0.323l0.125,-0.315l0.12,-0.307l0.115,-0.3l0.109,-0.292l0.105,-0.285l0.099,-0.277l0.094,-0.27l0.089,-0.261l0.084,-0.254l0.079,-0.246l0.074,-0.238l0.069,-0.23l0.066,-0.228l0.028,-0.102l0.029,-0.105l0.028,-0.104l0.026,-0.101l0.025,-0.099l0.007,-0.025l-0.067,0.016l-0.176,0.044l-0.182,0.047l-0.187,0.05l-0.193,0.054l-0.198,0.056l-0.203,0.06l-0.208,0.063l-0.214,0.067l-0.218,0.069l-0.223,0.072l-0.227,0.076l-0.232,0.078l-0.237,0.081l-0.241,0.084l-0.245,0.088l-0.249,0.089l-0.254,0.093l-0.258,0.096l-0.262,0.098l-0.266,0.101l-0.269,0.103l-0.274,0.106l-0.278,0.109l-0.281,0.111l-0.285,0.114l-0.289,0.116l-0.292,0.118l-0.296,0.121l-0.299,0.123l-0.301,0.124l-0.619,0.259l-0.63,0.266l-0.643,0.274l-0.656,0.281l-0.669,0.29l-0.681,0.297l-0.694,0.303l-0.706,0.31l-0.717,0.317l-0.729,0.322l-1.493,0.662l-1.536,0.681l-1.578,0.697l-0.806,0.356l-0.815,0.358l-0.825,0.361l-0.834,0.365l-0.845,0.366l-0.853,0.369l-0.863,0.371l-0.873,0.372l-0.881,0.373l-0.89,0.374l-0.897,0.375l-0.454,0.188l-0.455,0.188l-0.456,0.187l-0.459,0.188l-0.461,0.187l-0.463,0.188l-0.465,0.187l-0.467,0.187l-0.469,0.187l-0.471,0.186l-0.472,0.186l-0.475,0.186l-0.477,0.186l-0.478,0.185l-0.481,0.184l-0.482,0.184l-0.484,0.184l-0.486,0.183l-0.488,0.182l-0.489,0.182l-0.491,0.181l-0.494,0.18l-0.494,0.18l-0.497,0.178l-0.498,0.178l-0.5,0.177l-0.501,0.176l-0.504,0.175l-0.504,0.174l-0.507,0.173l-0.508,0.172l-0.51,0.171l-0.511,0.169l-0.512,0.169l-0.515,0.167l-0.515,0.166l-0.518,0.164l-0.519,0.164l-0.52,0.162l-0.522,0.16l-0.523,0.159l-0.524,0.157l-0.526,0.156l-0.527,0.154l-0.529,0.153l-0.53,0.151l-0.532,0.149l-0.532,0.148l-0.534,0.146l-0.536,0.144l-0.536,0.142l-0.538,0.14l-0.539,0.138l-0.54,0.136l-0.542,0.135l-0.542,0.132l-0.544,0.13l-0.545,0.128l-0.546,0.125l-0.548,0.124l-0.548,0.121l-0.55,0.119l-0.55,0.117l-0.552,0.114l-0.552,0.112l-0.554,0.109l-0.555,0.107l-0.555,0.104l-0.557,0.102l-0.558,0.099l-0.558,0.096l-0.56,0.094l-0.56,0.091l-0.567,0.089l-0.125,0.018l-0.13,0.018l-0.129,0.017l-0.13,0.016l-0.13,0.014l-0.13,0.013l-0.13,0.012l-0.129,0.011l-0.13,0.009l-0.129,0.008l-0.13,0.007l-0.129,0.006l-0.129,0.004l-0.129,0.004l-0.128,0.002l-0.129,0.001l-0.129,-0.001l-0.128,-0.001l-0.128,-0.003l-0.128,-0.003l-0.127,-0.005l-0.138,-0.007l-0.243,-0.014l-0.253,-0.02l-0.251,-0.024l-0.251,-0.028l-0.25,-0.032l-0.248,-0.036l-0.246,-0.04l-0.246,-0.044l-0.244,-0.048l-0.243,-0.051l-0.241,-0.054l-0.24,-0.059l-0.239,-0.061l-0.237,-0.065l-0.236,-0.068l-0.234,-0.071l-0.233,-0.074l-0.232,-0.077l-0.23,-0.08l-0.229,-0.082l-0.228,-0.086l-0.226,-0.088l-0.225,-0.09l-0.224,-0.093l-0.223,-0.096l-0.221,-0.098l-0.22,-0.1l-0.219,-0.103l-0.218,-0.104l-0.217,-0.107l-0.215,-0.109l-0.215,-0.111l-0.214,-0.114l-0.212,-0.115l-0.212,-0.117l-0.21,-0.119l-0.21,-0.121l-0.209,-0.122l-0.208,-0.125l-0.207,-0.126l-0.207,-0.128l-0.205,-0.129l-0.205,-0.131l-0.204,-0.133l-0.203,-0.134l-0.203,-0.136l-0.202,-0.137l-0.201,-0.139l-0.201,-0.14l-0.2,-0.142l-0.2,-0.143l-0.199,-0.144l-0.198,-0.146l-0.198,-0.147l-0.197,-0.148l-0.197,-0.149l-0.196,-0.151l-0.196,-0.152l-0.196,-0.153l-0.195,-0.154l-0.194,-0.155l-0.195,-0.157l-0.193,-0.157l-0.194,-0.159l-0.193,-0.159l-0.193,-0.16l-0.192,-0.162l-0.192,-0.162l-0.192,-0.163l-0.191,-0.164l-0.191,-0.165l-0.191,-0.166l-0.193,-0.169l-0.377,-0.333l-0.38,-0.338l-0.378,-0.341l-0.377,-0.344l-0.376,-0.346l-0.376,-0.348l-0.375,-0.35l-0.374,-0.352l-0.373,-0.354l-0.373,-0.355l-0.372,-0.356l-0.371,-0.356l-0.371,-0.358l-0.371,-0.359l-0.738,-0.716l-0.736,-0.718l-0.734,-0.715l-0.733,-0.712l-0.731,-0.708l-0.363,-0.35l-0.364,-0.349l-0.363,-0.347l-0.362,-0.344l-0.362,-0.342l-0.361,-0.34l-0.36,-0.336l-0.359,-0.333l-0.359,-0.329l-0.358,-0.326l-0.357,-0.322l-0.357,-0.318l-0.355,-0.314l-0.357,-0.312l-0.174,-0.151l-0.177,-0.151l-0.176,-0.151l-0.176,-0.149l-0.175,-0.148l-0.176,-0.146l-0.175,-0.146l-0.175,-0.144l-0.174,-0.142l-0.174,-0.141l-0.174,-0.14l-0.173,-0.138l-0.173,-0.137l-0.173,-0.135l-0.172,-0.134l-0.172,-0.132l-0.171,-0.13l-0.171,-0.129l-0.171,-0.127l-0.17,-0.126l-0.169,-0.124l-0.17,-0.122l-0.168,-0.12l-0.168,-0.119l-0.168,-0.117l-0.167,-0.115l-0.167,-0.113l-0.166,-0.111l-0.165,-0.11l-0.165,-0.107l-0.165,-0.106l-0.163,-0.104l-0.163,-0.101l-0.163,-0.1l-0.161,-0.098l-0.161,-0.096l-0.161,-0.093l-0.159,-0.092l-0.159,-0.09l-0.158,-0.087l-0.157,-0.086l-0.157,-0.083l-0.156,-0.082l-0.154,-0.079l-0.154,-0.077l-0.154,-0.075l-0.152,-0.073l-0.151,-0.07l-0.151,-0.069l-0.149,-0.066l-0.149,-0.064l-0.147,-0.062l-0.147,-0.06l-0.146,-0.057l-0.144,-0.056l-0.144,-0.053l-0.143,-0.051l-0.141,-0.049l-0.141,-0.047l-0.139,-0.045l-0.139,-0.042l-0.137,-0.041l-0.137,-0.038l-0.135,-0.036l-0.134,-0.034l-0.134,-0.032l-0.132,-0.03l-0.131,-0.028l-0.13,-0.026l-0.13,-0.024l-0.128,-0.021l-0.127,-0.02l-0.127,-0.018l-0.125,-0.016l-0.125,-0.014l-0.124,-0.012l-0.123,-0.01l-0.122,-0.008l-0.131,-0.007l-0.051,-0.002l-0.06,-0.002l-0.061,-0.001l-0.06,-0.001l-0.06,-0.001l-0.059,0l-0.06,0l-0.06,0.001l-0.059,0.002l-0.06,0.001l-0.059,0.003l-0.059,0.002l-0.059,0.003l-0.059,0.004l-0.059,0.004l-0.059,0.005l-0.059,0.005l-0.059,0.006l-0.058,0.006l-0.059,0.006l-0.059,0.007l-0.059,0.008l-0.058,0.008l-0.059,0.008l-0.059,0.009l-0.059,0.01l-0.059,0.01l-0.058,0.01l-0.059,0.011l-0.059,0.012l-0.059,0.012l-0.06,0.012l-0.059,0.014l-4.802,1.104l-2.172,-9.446l4.841,-1.114l0.137,-0.03l0.137,-0.029l0.138,-0.028l0.137,-0.027l0.138,-0.026l0.137,-0.024l0.138,-0.024l0.138,-0.022l0.137,-0.021l0.138,-0.02l0.137,-0.019l0.138,-0.017l0.137,-0.017l0.137,-0.015l0.138,-0.014l0.137,-0.013l0.137,-0.012l0.137,-0.011l0.137,-0.009l0.137,-0.009l0.137,-0.007l0.137,-0.007l0.136,-0.005l0.137,-0.004l0.136,-0.003l0.136,-0.002l0.136,-0.001l0.136,0Z" style="fill:#f00;"/></g></g></svg>