<?xml version="1.0" encoding="UTF-8" standalone="no"?><!DOCTYPE svg PUBLIC "-//W3C//DTD SVG 1.1//EN" "http://www.w3.org/Graphics/SVG/1.1/DTD/svg11.dtd"><svg width="100%" height="100%" viewBox="0 0 34 87" version="1.1" xmlns="http://www.w3.org/2000/svg" xmlns:xlink="http://www.w3.org/1999/xlink" xml:space="preserve" xmlns:serif="http://www.serif.com/" style="fill-rule:evenodd;clip-rule:evenodd;stroke-linejoin:round;stroke-miterlimit:2;"><path d="M19.98,0.153c1.337,0.364 2.315,1.14 2.922,2.335c0.304,0.593 0.432,1.12 0.5,2.058c0.033,0.425 0.067,0.782 0.081,0.789c0.364,0.196 0.377,0.25 0.391,1.404c0.007,0.762 -0.007,0.877 -0.149,1.147c-0.094,0.182 -0.242,0.344 -0.384,0.411c-0.223,0.115 -0.236,0.149 -0.493,1.107c-0.141,0.547 -0.243,1.033 -0.222,1.08c0.02,0.054 0.222,0.101 0.512,0.135c0.365,0.033 0.608,0.108 0.999,0.303c0.432,0.223 0.574,0.264 0.938,0.264c0.425,0 0.83,0.134 0.83,0.269c0,0.041 -0.135,0.345 -0.304,0.682c-0.168,0.331 -0.371,0.762 -0.445,0.958c-0.074,0.196 -0.182,0.452 -0.243,0.567c-0.054,0.121 -0.088,0.263 -0.067,0.31c0.02,0.048 0.344,0.203 0.728,0.351c0.385,0.142 1.141,0.452 1.681,0.695c2.044,0.911 2.705,1.303 3.36,1.998c0.425,0.452 0.567,0.749 0.749,1.565c0.067,0.331 0.263,0.898 0.418,1.248l0.29,0.635l0.048,1.855c0.04,1.829 0.04,1.869 0.29,2.922c0.762,3.3 1.14,8.016 0.857,10.776l-0.088,0.844l0.202,0.708c0.291,0.972 0.311,1.215 0.189,1.971c-0.06,0.364 -0.108,1.079 -0.108,1.585c0,0.513 -0.033,1.053 -0.067,1.195c-0.041,0.202 -0.034,0.33 0.054,0.539c0.148,0.358 0.142,0.891 -0.02,1.93c-0.128,0.837 -0.135,0.844 -0.419,1.134c-0.162,0.162 -0.432,0.344 -0.593,0.418l-0.304,0.129l0,0.6c0,0.817 -0.047,1.019 -0.243,1.066c-0.148,0.041 -0.155,0.068 -0.142,0.587c0.014,0.648 -0.121,1.012 -0.654,1.714c-0.783,1.033 -1.404,1.08 -2.618,0.203c-0.425,-0.311 -0.52,-0.5 -0.405,-0.817c0.081,-0.202 0.054,-0.256 -0.155,-0.331c-0.041,-0.013 -0.081,-0.31 -0.102,-0.661c-0.033,-0.6 -0.04,-0.627 -0.135,-0.465c-0.074,0.128 -0.101,0.418 -0.108,1.214c-0.006,0.574 -0.013,1.08 -0.02,1.127c-0.007,0.068 -0.506,0.337 -1.039,0.547c-0.182,0.074 -0.182,0.087 -0.182,0.701c0,0.345 -0.061,0.979 -0.135,1.404c-0.149,0.816 -0.182,1.977 -0.101,3.266c0.054,0.857 -0.223,3.468 -0.473,4.44c-0.141,0.553 -0.168,0.803 -0.168,1.687c0,0.567 0.033,1.228 0.081,1.471c0.121,0.688 0.094,2.982 -0.041,3.488c-0.108,0.405 -0.101,0.432 0.074,1.215c0.156,0.695 0.183,0.951 0.183,1.977c0,0.904 -0.027,1.316 -0.122,1.755c-0.169,0.789 -0.452,1.538 -0.81,2.152c-0.168,0.283 -0.432,0.79 -0.58,1.12c-0.371,0.803 -0.412,0.844 -0.857,0.844c-0.202,0 -0.425,0.027 -0.493,0.067c-0.263,0.142 -0.425,1.019 -0.512,2.821l-0.048,0.924l0.257,0.742c0.405,1.181 0.729,1.883 1.1,2.349c0.452,0.56 0.674,1.019 0.728,1.471c0.034,0.317 0.021,0.391 -0.114,0.56c-0.223,0.283 -0.5,0.371 -1.424,0.445c-0.459,0.041 -1.032,0.101 -1.282,0.135c-0.607,0.088 -1.471,0.088 -1.97,-0.007c-0.817,-0.155 -1.701,-0.405 -2.065,-0.587l-0.371,-0.182l0,-0.459c0,-0.25 0.013,-0.951 0.02,-1.559l0.013,-1.106l0.237,-0.344c0.377,-0.54 0.377,-0.56 0.269,-1.917c-0.047,-0.675 -0.114,-1.653 -0.134,-2.173l-0.048,-0.944l-0.33,-0.493c-0.446,-0.648 -0.641,-1.086 -0.803,-1.808c-0.243,-1.114 -0.162,-1.93 0.364,-3.496c0.371,-1.12 0.709,-1.848 1.046,-2.294c0.412,-0.54 0.439,-0.627 0.344,-0.944c-0.047,-0.156 -0.256,-0.702 -0.472,-1.222c-0.803,-1.943 -0.979,-2.8 -0.925,-4.656c0.034,-1.235 0.108,-1.808 0.351,-2.834c0.155,-0.627 0.203,-2.206 0.108,-3.34c-0.142,-1.694 -0.277,-1.808 -0.722,-0.607c-0.499,1.363 -0.978,3.03 -1.08,3.812c-0.296,2.126 -0.31,2.173 -1.612,4.622c-0.385,0.722 -0.729,1.438 -0.769,1.586c-0.048,0.169 -0.054,0.661 -0.027,1.383l0.04,1.114l-0.344,1.012c-0.385,1.147 -0.938,2.483 -1.464,3.576c-0.385,0.79 -0.797,1.316 -1.573,2.025c-0.236,0.216 -0.452,0.438 -0.485,0.506c-0.034,0.06 -0.034,0.31 0,0.587c0.033,0.27 0.067,0.857 0.074,1.309c0.02,0.816 0.013,0.823 -0.162,0.978c-0.122,0.108 -0.304,0.162 -0.614,0.196c-0.493,0.054 -0.594,0.128 -0.749,0.574c-0.297,0.836 -0.776,2.861 -0.776,3.286c0,0.155 0.094,0.445 0.236,0.735c0.29,0.581 0.351,1.06 0.243,1.883c-0.108,0.789 -0.203,1.005 -0.526,1.167c-0.682,0.344 -2.423,0.574 -4.44,0.58c-1.755,0.007 -1.937,-0.033 -2.025,-0.438c-0.054,-0.236 0.014,-1.012 0.108,-1.275c0.041,-0.095 0.473,-0.561 0.965,-1.046c0.999,-0.979 1.201,-1.296 1.323,-2.092c0.04,-0.263 0.175,-0.884 0.303,-1.383c0.371,-1.465 0.513,-2.166 0.473,-2.295c-0.021,-0.067 -0.216,-0.243 -0.432,-0.398c-0.493,-0.344 -0.648,-0.675 -0.648,-1.39c0,-0.432 0.027,-0.519 0.29,-0.992c0.169,-0.317 0.284,-0.607 0.284,-0.742c0,-0.121 -0.156,-0.722 -0.345,-1.336c-0.33,-1.073 -0.344,-1.147 -0.35,-1.923c0,-0.979 0.074,-1.41 0.465,-2.605c0.284,-0.87 0.365,-1.025 0.85,-1.633c0.142,-0.175 0.156,-0.243 0.122,-0.742c-0.108,-1.822 0.074,-2.753 1.208,-6.167c0.506,-1.512 0.722,-1.991 1.194,-2.571c0.196,-0.25 0.364,-0.493 0.364,-0.54c0,-0.047 -0.081,-0.243 -0.175,-0.432c-0.209,-0.418 -0.202,-0.587 0.115,-1.572c0.27,-0.85 0.283,-1.424 0.06,-2.294c-0.135,-0.507 -0.162,-0.783 -0.162,-1.654c-0.006,-0.661 0.027,-1.201 0.088,-1.471l0.095,-0.418l-0.304,-0.324c-0.445,-0.472 -0.493,-0.675 -0.486,-1.937c0,-0.83 0.041,-1.234 0.149,-1.754c0.472,-2.227 0.445,-1.95 0.317,-2.699c-0.095,-0.54 -0.101,-0.729 -0.041,-0.958c0.041,-0.155 0.108,-0.304 0.142,-0.324c0.135,-0.081 0.061,-0.297 -0.162,-0.493c-0.155,-0.135 -0.459,-0.27 -0.911,-0.411c-0.371,-0.115 -0.762,-0.284 -0.864,-0.371c-0.31,-0.264 -0.526,-0.736 -0.931,-2.065c-0.492,-1.579 -0.621,-1.869 -1.437,-3.124c-0.364,-0.561 -0.688,-1.067 -0.722,-1.121c-0.027,-0.054 -0.074,-0.317 -0.101,-0.593c-0.034,-0.365 -0.095,-0.56 -0.196,-0.682c-0.331,-0.418 -0.364,-0.492 -0.351,-0.83c0.02,-0.546 -0.101,-0.864 -0.358,-0.972c-0.121,-0.054 -0.256,-0.141 -0.31,-0.202c-0.148,-0.182 -0.027,-0.945 0.371,-2.328c0.209,-0.708 0.419,-1.505 0.479,-1.768c0.129,-0.634 0.223,-0.769 0.695,-0.972c0.459,-0.202 0.52,-0.283 1.012,-1.525c0.594,-1.498 1.073,-2.523 2.14,-4.608c0.566,-1.114 1.106,-2.22 1.194,-2.463c0.398,-1.073 0.837,-1.694 1.815,-2.571c0.904,-0.81 0.877,-0.803 2.686,-0.803c1.518,0 2.908,-0.088 3.212,-0.202c0.148,-0.061 0.162,-0.102 0.162,-0.534c0,-0.256 -0.061,-0.762 -0.135,-1.12c-0.075,-0.357 -0.135,-0.789 -0.135,-0.951c0,-0.263 0.02,-0.297 0.175,-0.338c0.101,-0.027 0.445,0.014 0.81,0.102c0.756,0.168 1.633,0.195 1.687,0.04c0.06,-0.142 -0.392,-1.322 -0.513,-1.363c-0.574,-0.182 -0.688,-0.391 -0.85,-1.565l-0.115,-0.844l0.189,-0.148l0.189,-0.149l-0.081,-0.681c-0.061,-0.513 -0.061,-0.81 -0.007,-1.228c0.284,-2.085 1.363,-3.388 3.165,-3.833c0.702,-0.175 1.032,-0.169 1.774,0.027Z" style="fill:#f00;fill-rule:nonzero;"/></svg>