<?xml version="1.0" encoding="UTF-8" standalone="no"?><!DOCTYPE svg PUBLIC "-//W3C//DTD SVG 1.1//EN" "http://www.w3.org/Graphics/SVG/1.1/DTD/svg11.dtd"><svg width="100%" height="100%" viewBox="0 0 130 130" version="1.1" xmlns="http://www.w3.org/2000/svg" xmlns:xlink="http://www.w3.org/1999/xlink" xml:space="preserve" xmlns:serif="http://www.serif.com/" style="fill-rule:evenodd;clip-rule:evenodd;stroke-linejoin:round;stroke-miterlimit:2;"><clipPath id="_clip1"><rect id="knife" x="10.518" y="10.518" width="108.964" height="108.964"/></clipPath><g clip-path="url(#_clip1)"><g><path d="M12.833,100.203c-1.656,1.655 -1.656,4.342 0,5.997l12.041,12.039c1.655,1.658 4.34,1.658 5.997,0l6.869,-6.867l-18.036,-18.036l-6.871,6.867Z" style="fill:#f00;fill-rule:nonzero;"/><path d="M115.635,11.777c-0.722,-1.55 -2.868,-1.703 -3.801,-0.27c-1.358,2.089 -2.99,4.111 -4.88,6.002c-6.167,6.166 -13.723,9.564 -20.4,9.8c-0.551,0.019 -1.073,0.245 -1.462,0.635l-36.911,36.913l20.993,20.993l40.538,-40.538c5.797,-5.796 8.695,-13.396 8.697,-20.993c-0.002,-4.29 -0.925,-8.579 -2.774,-12.542Z" style="fill:#f00;fill-rule:nonzero;"/><path d="M33.899,59.827c-1.277,-1.277 -3.349,-1.277 -4.626,0c-1.277,1.277 -1.277,3.348 0,4.626l9.658,9.658l0,0.001l-14.602,14.599l18.038,18.036l5.162,-5.161c2.734,-2.593 5.916,-4.667 9.392,-6.122l2.37,-0.992l0,0l7.719,7.719c0.638,0.639 1.476,0.958 2.313,0.958c0.837,0 1.674,-0.319 2.312,-0.958c1.278,-1.277 1.278,-3.348 0,-4.626l-37.736,-37.738Z" style="fill:#f00;fill-rule:nonzero;"/></g></g></svg>