<?xml version="1.0" encoding="UTF-8" standalone="no"?><!DOCTYPE svg PUBLIC "-//W3C//DTD SVG 1.1//EN" "http://www.w3.org/Graphics/SVG/1.1/DTD/svg11.dtd"><svg width="100%" height="100%" viewBox="0 0 67 78" version="1.1" xmlns="http://www.w3.org/2000/svg" xmlns:xlink="http://www.w3.org/1999/xlink" xml:space="preserve" xmlns:serif="http://www.serif.com/" style="fill-rule:evenodd;clip-rule:evenodd;stroke-linejoin:round;stroke-miterlimit:2;"><path d="M50.753,77.28c-9.205,-4.882 -24.203,-9.403 -28.967,-10.42c2.309,-4.753 5.758,-11.075 5.695,-15.08c-0.042,-2.71 -0.595,-8.261 -0.372,-8.44c-8.165,-4.925 -10.224,-18.7 -7.798,-23.767c0.538,-1.181 0.303,-1.466 0.247,-1.609c-0.247,-0.637 -1.178,-0.115 -1.485,-0.139c-0.464,-0.036 -0.69,-0.427 -1.238,-0.48c-1.279,-0.124 -1.69,0.726 -1.733,1.485c-0.083,1.445 -0.046,3.082 0,4.457c0.125,3.753 3.371,14.197 4.951,20.053c4.244,15.723 -18.318,28.041 -20.053,25.005c2.758,-5.972 5.788,-12.126 5.487,-20.053c-0.526,-13.86 -1.421,-23.865 0.702,-29.709c2.066,-5.685 9.161,-5.199 11.389,-5.694c0.837,-1.354 1.903,-0.477 1.98,-0.248c0.498,0.126 1.691,-0.382 2.352,-1.485c6.167,-10.288 15.198,-10.762 21.168,-11.119c9.762,-0.583 14.519,5.874 17.825,7.9c4.463,2.736 1.951,5.541 0.495,6.437c2.542,3.458 1.899,9.096 1.981,12.649c-3.615,3.839 3.342,8.725 3.218,11.118c-0.096,1.869 -3.672,1.879 -3.961,3.241c-0.144,0.683 1.073,1.343 0.99,1.958c-0.082,0.615 -2.023,1.195 -0.99,2.723c0.661,1.913 -1.936,1.042 -1.981,1.733c-0.014,0.227 -0.309,0.482 -0.381,0.991c-0.178,1.273 0.234,2.547 -0.114,3.466c-0.637,1.682 -2.349,1.668 -3.713,1.733c-1.733,0.082 -5.942,-1.486 -7.675,-0.743c-1.733,0.743 -2.278,3.748 -2.476,5.694c-0.247,2.435 -2.903,8.347 -1.238,10.894c2.971,4.542 5.695,7.449 5.695,7.449Z" style="fill:#fff;"/><path d="M50.753,77.28c-9.205,-4.882 -24.203,-9.403 -28.967,-10.42c2.309,-4.753 5.758,-11.075 5.695,-15.08c-0.042,-2.71 -0.595,-8.261 -0.372,-8.44c-8.165,-4.925 -10.224,-18.7 -7.798,-23.767c0.538,-1.181 0.303,-1.466 0.247,-1.609c-0.247,-0.637 -1.178,-0.115 -1.485,-0.139c-0.464,-0.036 -0.69,-0.427 -1.238,-0.48c-1.279,-0.124 -1.69,0.726 -1.733,1.485c-0.083,1.445 -0.046,3.082 0,4.457c0.125,3.753 3.371,14.197 4.951,20.053c4.244,15.723 -18.318,28.041 -20.053,25.005c2.758,-5.972 5.788,-12.126 5.487,-20.053c-0.526,-13.86 -1.421,-23.865 0.702,-29.709c2.066,-5.685 9.161,-5.199 11.389,-5.694c0.837,-1.354 1.903,-0.477 1.98,-0.248c0.498,0.126 1.691,-0.382 2.352,-1.485c6.167,-10.288 15.198,-10.762 21.168,-11.119c9.762,-0.583 14.519,5.874 17.825,7.9c4.463,2.736 1.951,5.541 0.495,6.437c2.542,3.458 1.899,9.096 1.981,12.649c-3.615,3.839 3.342,8.725 3.218,11.118c-0.096,1.869 -3.672,1.879 -3.961,3.241c-0.144,0.683 1.073,1.343 0.99,1.958c-0.082,0.615 -2.023,1.195 -0.99,2.723c0.661,1.913 -1.936,1.042 -1.981,1.733c-0.014,0.227 -0.309,0.482 -0.381,0.991c-0.178,1.273 0.234,2.547 -0.114,3.466c-0.637,1.682 -2.349,1.668 -3.713,1.733c-1.733,0.082 -5.942,-1.486 -7.675,-0.743c-1.733,0.743 -2.278,3.748 -2.476,5.694c-0.247,2.435 -2.903,8.347 -1.238,10.894c2.971,4.542 5.695,7.449 5.695,7.449Z" style="fill:#f00;"/></svg>