<?xml version="1.0" encoding="UTF-8" standalone="no"?><!DOCTYPE svg PUBLIC "-//W3C//DTD SVG 1.1//EN" "http://www.w3.org/Graphics/SVG/1.1/DTD/svg11.dtd"><svg width="100%" height="100%" viewBox="0 0 130 130" version="1.1" xmlns="http://www.w3.org/2000/svg" xmlns:xlink="http://www.w3.org/1999/xlink" xml:space="preserve" xmlns:serif="http://www.serif.com/" style="fill-rule:evenodd;clip-rule:evenodd;stroke-linejoin:round;stroke-miterlimit:2;"><clipPath id="_clip1"><rect id="Mission" x="0" y="0" width="129.235" height="129.235"/></clipPath><g clip-path="url(#_clip1)"><g><path d="M53.848,129.235c-29.692,0 -53.848,-24.156 -53.848,-53.848c0,-29.692 24.156,-53.848 53.848,-53.848c29.692,0 53.848,24.156 53.848,53.848c0,29.692 -24.156,53.848 -53.848,53.848Zm0,-99.619c-25.239,0 -45.771,20.533 -45.771,45.771c0,25.239 20.532,45.771 45.771,45.771c25.239,0 45.771,-20.532 45.771,-45.771c0,-25.238 -20.532,-45.771 -45.771,-45.771Z" style="fill:#f00;fill-rule:nonzero;"/><path d="M53.848,110.388c-19.299,0 -35.001,-15.702 -35.001,-35.001c0,-19.299 15.702,-35.001 35.001,-35.001c19.299,0 35.001,15.702 35.001,35.001c0,19.299 -15.702,35.001 -35.001,35.001Zm0,-61.925c-14.846,0 -26.924,12.078 -26.924,26.924c0,14.846 12.078,26.924 26.924,26.924c14.846,0 26.924,-12.078 26.924,-26.924c0,-14.846 -12.078,-26.924 -26.924,-26.924Z" style="fill:#f00;fill-rule:nonzero;"/><path d="M53.848,91.542c-8.906,0 -16.154,-7.248 -16.154,-16.155c0,-8.906 7.248,-16.154 16.154,-16.154c8.907,0 16.154,7.248 16.154,16.154c0,8.907 -7.247,16.155 -16.154,16.155Zm0,-24.232c-4.453,0 -8.077,3.624 -8.077,8.077c0,4.453 3.624,8.077 8.077,8.077c4.453,0 8.077,-3.624 8.077,-8.077c0,-4.453 -3.624,-8.077 -8.077,-8.077Z" style="fill:#f00;fill-rule:nonzero;"/><path d="M53.848,79.426c-1.034,0 -2.068,-0.393 -2.854,-1.185c-1.578,-1.578 -1.578,-4.135 0,-5.713l40.386,-40.386c1.578,-1.578 4.136,-1.578 5.713,0c1.578,1.578 1.578,4.135 0,5.713l-40.386,40.386c-0.791,0.792 -1.825,1.185 -2.859,1.185Z" style="fill:#f00;fill-rule:nonzero;"/><path d="M109.042,37.694l-13.462,0c-2.229,0 -4.038,-1.81 -4.038,-4.039l0,-13.462c0,-1.072 0.425,-2.1 1.184,-2.854l16.155,-16.154c1.157,-1.158 2.897,-1.497 4.399,-0.878c1.508,0.625 2.493,2.1 2.493,3.732l0,9.423l9.424,0c1.631,0 3.107,0.985 3.731,2.493c0.625,1.508 0.28,3.247 -0.877,4.4l-16.155,16.154c-0.754,0.759 -1.782,1.185 -2.854,1.185Zm-9.423,-8.078l7.749,0l8.077,-8.077l-3.71,0c-2.23,0 -4.039,-1.809 -4.039,-4.038l0,-3.711l-8.077,8.078l0,7.748Z" style="fill:#f00;fill-rule:nonzero;"/></g></g></svg>