<?xml version="1.0" encoding="UTF-8" standalone="no"?><!DOCTYPE svg PUBLIC "-//W3C//DTD SVG 1.1//EN" "http://www.w3.org/Graphics/SVG/1.1/DTD/svg11.dtd"><svg width="100%" height="100%" viewBox="0 0 130 130" version="1.1" xmlns="http://www.w3.org/2000/svg" xmlns:xlink="http://www.w3.org/1999/xlink" xml:space="preserve" xmlns:serif="http://www.serif.com/" style="fill-rule:evenodd;clip-rule:evenodd;stroke-linejoin:round;stroke-miterlimit:2;"><g id="Out_line"><path d="M127.369,67.435c-1.011,-4.416 -2.37,-8.745 -4.066,-12.946c-0.597,-1.492 -1.767,-2.685 -3.248,-3.311c0.464,-1.538 0.304,-3.199 -0.445,-4.621c-2.125,-4.006 -4.567,-7.836 -7.302,-11.453c-0.966,-1.283 -2.406,-2.129 -3.998,-2.347c0.049,-1.606 -0.537,-3.169 -1.63,-4.347c-3.089,-3.313 -6.437,-6.375 -10.01,-9.159c-1.264,-0.991 -2.873,-1.438 -4.467,-1.239c-0.359,-1.566 -1.329,-2.926 -2.693,-3.774c-3.838,-2.406 -7.86,-4.504 -12.029,-6.274c-1.482,-0.625 -3.151,-0.641 -4.643,-0.045c-0.749,-1.421 -2.036,-2.485 -3.573,-2.954c-4.334,-1.333 -8.769,-2.318 -13.26,-2.945c-1.592,-0.218 -3.208,0.2 -4.494,1.163c-1.095,-1.178 -2.616,-1.869 -4.223,-1.92c-4.527,-0.156 -9.06,0.046 -13.556,0.607c-0.101,0.013 -0.203,0.028 -0.304,0.046c-3.293,0.58 -5.526,3.768 -4.946,7.062l1.413,8.012c0.069,0.389 0.175,0.769 0.316,1.138l7.312,26.471l3.916,-1.081l-5.941,-21.508c0.373,0.025 0.746,0.015 1.117,-0.029c3.176,-0.379 6.375,-0.524 9.571,-0.435c0.413,0.011 0.826,-0.019 1.233,-0.09c0.127,-0.023 0.252,-0.053 0.376,-0.083l-3.821,21.18l3.998,0.721l3.898,-21.605c0.543,0.255 1.121,0.427 1.715,0.513c3.121,0.451 6.204,1.131 9.226,2.035l-13.107,20.066l3.401,2.222l14.237,-21.796c0.643,0.922 1.531,1.647 2.563,2.094c2.935,1.271 5.774,2.755 8.493,4.441c1.174,0.727 2.561,1.032 3.932,0.864c0.311,1.347 1.074,2.547 2.16,3.402c2.514,1.979 4.88,4.138 7.079,6.462c0.772,0.817 1.756,1.404 2.842,1.695l-15.61,20.83l3.251,2.436l14.373,-19.179c1.882,2.53 3.576,5.195 5.067,7.973c0.285,0.528 0.646,1.012 1.072,1.435l-18.972,11.053l2.045,3.51l18.594,-10.832c0.059,0.538 0.19,1.065 0.39,1.569c1.177,2.973 2.134,6.029 2.864,9.143c0.086,0.363 0.204,0.718 0.355,1.059l-22.243,1.774l0.323,4.05l27.376,-2.184c0.395,0.008 0.789,-0.023 1.177,-0.092l8.013,-1.413c3.293,-0.581 5.525,-3.769 4.944,-7.062c-0.017,-0.101 -0.038,-0.202 -0.061,-0.302Zm-81.067,-49.95c-3.396,-0.095 -6.795,0.06 -10.168,0.462c-0.869,0.103 -1.711,-0.368 -2.079,-1.161l-0.196,-0.71l-1.376,-7.804c-0.193,-1.099 0.552,-2.162 1.651,-2.356c0.033,-0.006 0.067,-0.011 0.101,-0.015c4.282,-0.534 8.599,-0.727 12.911,-0.578c0.953,0.036 1.758,0.738 1.924,1.677c0.031,0.175 0.039,0.354 0.023,0.531l-0.708,8.09l-0.001,0.013l0,0c-0.095,1.064 -1.014,1.881 -2.082,1.851Zm6.13,-1.509l0.708,-8.09l0,0l0,-0.002l0,-0.003c0.081,-0.914 0.77,-1.666 1.673,-1.825c0.209,-0.037 0.422,-0.041 0.632,-0.012c4.276,0.597 8.498,1.534 12.625,2.804c0.726,0.225 1.267,0.839 1.399,1.588c0.062,0.352 0.03,0.714 -0.092,1.049l0,0l-0.002,0.007l-2.775,7.623c-0.367,1.006 -1.47,1.557 -2.494,1.248c-3.255,-0.98 -6.577,-1.716 -9.941,-2.202c-1.059,-0.153 -1.826,-1.119 -1.733,-2.185Zm19.085,7.098c-0.98,-0.424 -1.468,-1.553 -1.104,-2.558l2.779,-7.635c0.248,-0.682 0.843,-1.181 1.558,-1.307c0.386,-0.068 0.783,-0.023 1.144,0.13c3.971,1.686 7.803,3.684 11.458,5.976c0.486,0.305 0.82,0.802 0.919,1.367c0.094,0.531 -0.027,1.078 -0.337,1.52l-4.665,6.663c-0.615,0.876 -1.821,1.124 -2.731,0.561c-2.888,-1.79 -5.903,-3.367 -9.021,-4.717l0,0Zm15.486,9.244c-0.84,-0.663 -1.02,-1.881 -0.407,-2.758l4.666,-6.663c0.309,-0.442 0.782,-0.743 1.313,-0.837c0.564,-0.099 1.146,0.045 1.599,0.396c3.403,2.652 6.592,5.569 9.535,8.723c0.266,0.287 0.445,0.646 0.513,1.032c0.126,0.714 -0.14,1.444 -0.696,1.91l0,0l-6.215,5.215l-0.009,0.008l0,0c-0.82,0.685 -2.047,0.614 -2.781,-0.163c-2.335,-2.468 -4.848,-4.762 -7.518,-6.863l0,0Zm12.6,12.901c-0.641,-0.858 -0.499,-2.082 0.32,-2.771l6.215,-5.215l0,0l0.001,0l0.004,-0.004c0.273,-0.23 0.603,-0.384 0.954,-0.446c0.749,-0.132 1.511,0.167 1.971,0.772c2.605,3.444 4.93,7.09 6.953,10.904c0.099,0.188 0.168,0.389 0.205,0.598c0.159,0.904 -0.312,1.808 -1.143,2.196l0,0l-0.005,0.003l-7.36,3.432c-0.971,0.451 -2.14,0.061 -2.646,-0.881c-1.607,-2.995 -3.435,-5.866 -5.469,-8.588l0,0Zm23.518,24.701c-0.306,0.466 -0.791,0.784 -1.34,0.879l-7.804,1.376l-0.734,0.058c-0.872,-0.074 -1.602,-0.704 -1.803,-1.556c-0.775,-3.307 -1.792,-6.554 -3.043,-9.712c-0.393,-0.994 0.06,-2.137 1.028,-2.59l7.37,-3.438c0.163,-0.076 0.335,-0.13 0.512,-0.161c0.938,-0.163 1.87,0.354 2.23,1.235c1.615,4.002 2.91,8.125 3.872,12.331c0.127,0.543 0.022,1.115 -0.288,1.578l0,0Z" style="fill:#fff;fill-rule:nonzero;"/><path d="M70.222,76.036l-11.626,9.668l-4.029,-1.767c1.04,-0.573 1.935,-1.378 2.615,-2.352l4.943,-7.059c1.184,-1.69 1.649,-3.783 1.29,-5.815c-0.74,-4.201 -4.807,-7.048 -9.008,-6.307c-2.032,0.358 -3.84,1.51 -5.022,3.201l-4.943,7.059c-0.623,0.888 -1.053,1.896 -1.263,2.96l-3.447,-4.648l5.412,-12.334c0.161,-0.367 0.21,-0.774 0.14,-1.169c-0.194,-1.097 -1.256,-1.841 -2.353,-1.647c-0.34,0.06 -0.659,0.205 -0.927,0.423l-16.24,13.176c-0.84,0.681 -0.996,1.919 -0.352,2.788l9.951,13.416l-3.887,5.552c-8.531,5.722 -14.264,14.787 -15.775,24.948l-1.5,10.113c-0.032,0.216 -0.029,0.436 0.009,0.651c0.194,1.097 1.256,1.841 2.353,1.647c0.215,-0.037 0.423,-0.11 0.615,-0.214l8.99,-4.868c9.031,-4.896 15.59,-13.382 18.048,-23.357l3.837,-5.479l13.954,5.008c0.999,0.359 2.12,-0.123 2.546,-1.096l8.828,-20.12c0.161,-0.367 0.21,-0.774 0.14,-1.169c-0.193,-1.097 -1.255,-1.841 -2.353,-1.647c-0.348,0.061 -0.674,0.212 -0.946,0.438l0,0Zm-20.828,9.589l-4.261,6.085l-6.085,-4.261l4.261,-6.085l6.085,4.261Zm-8.239,11.766l-5.172,0.912l-0.912,-5.173l1.647,-2.353l6.085,4.26l-1.648,2.354Zm13.955,-30.983c2.006,-0.354 3.948,1.006 4.302,3.012c0.171,0.97 -0.05,1.969 -0.615,2.776l-0.483,0.689l-6.084,-4.261l0.482,-0.689c0.563,-0.809 1.427,-1.359 2.398,-1.527Zm-7.341,8.586l2.131,-3.042l6.084,4.261l-2.13,3.042c-0.565,0.806 -1.427,1.355 -2.397,1.526c-2.006,0.354 -3.948,-1.006 -4.302,-3.013c-0.171,-0.969 0.05,-1.967 0.614,-2.774Zm-17.935,-3.639l8.223,-6.673l-2.519,5.741c-0.292,0.667 -0.205,1.442 0.229,2.026l4.539,6.121l-2.486,3.551l-7.986,-10.766Zm1.654,24.85l0.7,3.975l-12.706,18.147l0.238,-1.602c1.2,-8.075 5.405,-15.406 11.768,-20.52Zm-7.254,23.681l-1.424,0.771l12.706,-18.147l3.975,-0.701c-2.629,7.728 -8.08,14.187 -15.257,18.077Zm37.361,-24.72l-11.126,-3.994l2.462,-3.517l5.182,2.274c0.703,0.308 1.524,0.193 2.115,-0.298l5.976,-4.97l-4.609,10.505Z" style="fill:#fff;fill-rule:nonzero;"/></g><g id="Out_line1" serif:id="Out_line"><path d="M127.191,66.902c-1.01,-4.409 -2.367,-8.732 -4.06,-12.926c-0.596,-1.49 -1.765,-2.681 -3.243,-3.306c0.463,-1.536 0.304,-3.195 -0.444,-4.614c-2.122,-4 -4.56,-7.824 -7.292,-11.436c-0.964,-1.281 -2.402,-2.125 -3.991,-2.343c0.049,-1.604 -0.536,-3.164 -1.627,-4.341c-3.085,-3.307 -6.427,-6.365 -9.995,-9.144c-1.262,-0.99 -2.869,-1.436 -4.461,-1.238c-0.358,-1.563 -1.326,-2.921 -2.688,-3.768c-3.832,-2.402 -7.848,-4.496 -12.011,-6.264c-1.479,-0.623 -3.145,-0.639 -4.636,-0.045c-0.748,-1.419 -2.033,-2.481 -3.567,-2.949c-4.328,-1.332 -8.755,-2.315 -13.24,-2.94c-1.589,-0.218 -3.202,0.199 -4.487,1.16c-1.093,-1.175 -2.612,-1.866 -4.216,-1.916c-4.521,-0.157 -9.047,0.046 -13.535,0.605c-0.102,0.013 -0.203,0.028 -0.304,0.046c-3.288,0.58 -5.517,3.763 -4.938,7.051l1.411,8c0.068,0.388 0.174,0.769 0.315,1.136l7.301,26.431l3.91,-1.08l-5.932,-21.474c0.372,0.024 0.745,0.014 1.115,-0.03c3.171,-0.378 6.365,-0.523 9.557,-0.434c0.412,0.012 0.825,-0.018 1.231,-0.09c0.126,-0.022 0.251,-0.052 0.375,-0.082l-3.815,21.147l3.992,0.72l3.891,-21.572c0.543,0.254 1.12,0.427 1.713,0.512c3.116,0.451 6.195,1.13 9.211,2.032l-13.086,20.035l3.396,2.219l14.215,-21.762c0.642,0.92 1.528,1.644 2.558,2.09c2.932,1.269 5.766,2.751 8.481,4.434c1.172,0.726 2.557,1.031 3.926,0.863c0.31,1.344 1.072,2.543 2.157,3.397c2.51,1.975 4.872,4.132 7.067,6.452c0.771,0.816 1.754,1.402 2.838,1.692l-15.586,20.798l3.246,2.433l14.351,-19.15c1.879,2.526 3.57,5.187 5.06,7.961c0.284,0.527 0.644,1.01 1.07,1.432l-18.944,11.037l2.042,3.504l18.566,-10.816c0.059,0.538 0.19,1.064 0.389,1.567c1.175,2.969 2.131,6.02 2.86,9.129c0.086,0.363 0.204,0.717 0.354,1.058l-22.208,1.771l0.323,4.043l27.334,-2.18c0.393,0.008 0.787,-0.023 1.175,-0.092l8,-1.41c3.288,-0.581 5.517,-3.764 4.937,-7.052c-0.018,-0.101 -0.038,-0.201 -0.061,-0.301Zm-80.943,-49.874c-3.391,-0.094 -6.784,0.06 -10.152,0.462c-0.867,0.102 -1.708,-0.367 -2.076,-1.16l-0.195,-0.708l-1.374,-7.792c-0.193,-1.097 0.551,-2.159 1.648,-2.352c0.033,-0.006 0.067,-0.011 0.101,-0.016c4.275,-0.532 8.585,-0.725 12.891,-0.577c0.951,0.036 1.756,0.737 1.921,1.675c0.031,0.175 0.039,0.353 0.023,0.53l-0.707,8.078l-0.001,0.012l0,0c-0.095,1.063 -1.013,1.879 -2.079,1.848Zm6.121,-1.507l0.707,-8.076l0,0l0,-0.003l0,-0.003c0.08,-0.912 0.768,-1.663 1.67,-1.822c0.209,-0.037 0.422,-0.041 0.631,-0.012c4.27,0.596 8.485,1.532 12.605,2.8c0.725,0.224 1.266,0.838 1.398,1.585c0.062,0.351 0.03,0.713 -0.092,1.048l0,0l-0.003,0.006l-2.77,7.612c-0.367,1.004 -1.467,1.555 -2.49,1.246c-3.25,-0.978 -6.567,-1.713 -9.926,-2.199c-1.058,-0.152 -1.823,-1.117 -1.73,-2.182Zm19.056,7.088c-0.979,-0.424 -1.466,-1.551 -1.103,-2.554l2.775,-7.623c0.248,-0.681 0.842,-1.18 1.555,-1.305c0.385,-0.068 0.782,-0.023 1.143,0.129c3.965,1.684 7.79,3.679 11.44,5.967c0.485,0.305 0.819,0.801 0.918,1.365c0.094,0.53 -0.028,1.077 -0.337,1.517l-4.658,6.653c-0.613,0.875 -1.818,1.123 -2.726,0.56c-2.884,-1.787 -5.894,-3.361 -9.007,-4.709l0,0Zm15.462,9.229c-0.839,-0.661 -1.019,-1.878 -0.406,-2.753l4.658,-6.653c0.309,-0.441 0.78,-0.742 1.311,-0.835c0.564,-0.1 1.144,0.044 1.597,0.395c3.398,2.648 6.581,5.56 9.519,8.71c0.267,0.286 0.445,0.644 0.513,1.03c0.126,0.713 -0.14,1.442 -0.695,1.907l0,0l-6.205,5.207l-0.009,0.008l0,0c-0.819,0.684 -2.044,0.612 -2.777,-0.163c-2.332,-2.464 -4.84,-4.754 -7.506,-6.853l0,0Zm12.58,12.882c-0.64,-0.856 -0.499,-2.079 0.319,-2.766l6.206,-5.208l0,0l0.001,0l0.004,-0.004c0.273,-0.229 0.602,-0.383 0.953,-0.445c0.747,-0.132 1.509,0.167 1.968,0.771c2.6,3.438 4.922,7.079 6.942,10.887c0.099,0.187 0.168,0.389 0.205,0.597c0.159,0.902 -0.312,1.806 -1.142,2.193l0,0l-0.005,0.002l-7.349,3.428c-0.969,0.45 -2.136,0.061 -2.641,-0.881c-1.605,-2.99 -3.43,-5.856 -5.461,-8.574l0,0Zm23.482,24.663c-0.305,0.465 -0.79,0.783 -1.338,0.877l-7.792,1.374l-0.733,0.058c-0.87,-0.074 -1.599,-0.703 -1.8,-1.553c-0.774,-3.303 -1.79,-6.544 -3.038,-9.698c-0.393,-0.992 0.06,-2.133 1.026,-2.586l7.359,-3.432c0.162,-0.076 0.334,-0.13 0.511,-0.161c0.936,-0.163 1.867,0.354 2.226,1.234c1.613,3.995 2.906,8.111 3.867,12.311c0.126,0.542 0.022,1.113 -0.288,1.576l0,0Z" style="fill:#ff1010;fill-rule:nonzero;"/><path d="M70.132,75.49l-11.609,9.653l-4.023,-1.765c1.039,-0.572 1.933,-1.376 2.611,-2.348l4.936,-7.049c1.182,-1.686 1.646,-3.776 1.288,-5.805c-0.739,-4.195 -4.8,-7.038 -8.995,-6.298c-2.028,0.358 -3.833,1.508 -5.014,3.196l-4.935,7.049c-0.622,0.886 -1.052,1.893 -1.261,2.955l-3.442,-4.641l5.404,-12.315c0.161,-0.366 0.209,-0.772 0.14,-1.167c-0.193,-1.095 -1.254,-1.838 -2.35,-1.645c-0.339,0.06 -0.658,0.206 -0.925,0.423l-16.215,13.156c-0.838,0.68 -0.994,1.916 -0.351,2.783l9.936,13.396l-3.882,5.543c-8.518,5.713 -14.242,14.764 -15.751,24.909l-1.497,10.098c-0.032,0.216 -0.029,0.435 0.009,0.65c0.193,1.096 1.254,1.838 2.349,1.645c0.215,-0.038 0.422,-0.11 0.614,-0.214l8.977,-4.861c9.017,-4.888 15.565,-13.361 18.02,-23.32l3.831,-5.472l13.932,5.001c0.998,0.358 2.117,-0.123 2.542,-1.094l8.815,-20.089c0.16,-0.367 0.209,-0.773 0.14,-1.167c-0.194,-1.096 -1.254,-1.838 -2.35,-1.645c-0.347,0.061 -0.673,0.212 -0.944,0.438l0,0Zm-20.797,9.574l-4.254,6.075l-6.075,-4.254l4.254,-6.075l6.075,4.254Zm-8.226,11.747l-5.164,0.911l-0.911,-5.165l1.645,-2.349l6.076,4.254l-1.646,2.349Zm13.933,-30.935c2.004,-0.353 3.943,1.005 4.296,3.008c0.171,0.968 -0.05,1.966 -0.614,2.771l-0.482,0.688l-6.075,-4.254l0.482,-0.688c0.562,-0.807 1.424,-1.357 2.393,-1.525Zm-7.329,8.573l2.127,-3.037l6.076,4.254l-2.127,3.037c-0.564,0.805 -1.426,1.353 -2.393,1.524c-2.004,0.353 -3.943,-1.005 -4.296,-3.008c-0.171,-0.968 0.05,-1.965 0.613,-2.77Zm-17.908,-3.634l8.211,-6.662l-2.515,5.732c-0.292,0.666 -0.205,1.44 0.228,2.023l4.533,6.111l-2.483,3.546l-7.974,-10.75Zm1.652,24.812l0.699,3.969l-12.686,18.119l0.237,-1.6c1.198,-8.062 5.396,-15.382 11.75,-20.488Zm-7.243,23.644l-1.422,0.77l12.687,-18.118l3.969,-0.7c-2.625,7.716 -8.068,14.165 -15.234,18.048Zm37.304,-24.681l-11.109,-3.988l2.458,-3.511l5.174,2.27c0.702,0.308 1.522,0.192 2.112,-0.298l5.966,-4.961l-4.601,10.488Z" style="fill:#ff1010;fill-rule:nonzero;"/></g></svg>