<?xml version="1.0" encoding="UTF-8" standalone="no"?><!DOCTYPE svg PUBLIC "-//W3C//DTD SVG 1.1//EN" "http://www.w3.org/Graphics/SVG/1.1/DTD/svg11.dtd"><svg width="100%" height="100%" viewBox="0 0 7 7" version="1.1" xmlns="http://www.w3.org/2000/svg" xmlns:xlink="http://www.w3.org/1999/xlink" xml:space="preserve" xmlns:serif="http://www.serif.com/" style="fill-rule:evenodd;clip-rule:evenodd;stroke-linecap:round;stroke-linejoin:round;stroke-miterlimit:1.5;"><g><path d="M1.929,5.146c-0.248,-0.026 0.579,-1.739 1.547,-1.642c1.225,0.122 1.812,1.636 1.528,1.632c0,0 -0.983,-0.085 -1.476,-0.084c-0.512,0.002 -1.324,0.124 -1.599,0.094Z" style="fill:#f00;"/><path d="M2.014,3.141c0.312,-0.179 0.647,-0.28 1.004,-0.302" style="fill:none;stroke:#f00;stroke-width:0.35px;"/><path d="M4.933,3.141c-0.313,-0.179 -0.648,-0.28 -1.005,-0.302" style="fill:none;stroke:#f00;stroke-width:0.35px;"/><path d="M2.086,0.48c0.1,-0.171 0.974,0.416 1.286,0.953" style="fill:none;stroke:#f00;stroke-width:0.35px;stroke-linejoin:miter;"/><path d="M4.376,0.678c-0.176,-0.101 -0.696,0.218 -1.008,0.755" style="fill:none;stroke:#f00;stroke-width:0.35px;stroke-linejoin:miter;"/><path d="M3.396,1.434c-2.28,0.017 -2.407,2.229 -2.865,2.585c-0.419,0.325 -0.248,0.724 -0.012,0.921c0.48,0.399 1.889,1.485 2.888,1.475c0.999,-0.011 2.621,-1.136 3.107,-1.538c0.231,-0.191 0.15,-0.647 -0.092,-0.858c-0.584,-0.509 -0.631,-2.603 -3.026,-2.585Z" style="fill:none;stroke:#f00;stroke-width:0.35px;stroke-linecap:square;stroke-linejoin:miter;"/><path d="M6.182,1.541c0.627,-0.112 0.989,-0.373 0.645,-0.699c-0.262,-0.249 -0.629,0.226 -0.645,0.699Z" style="fill:#f00;"/><path d="M0.796,2.034c-0.135,-0.622 -0.409,-0.974 -0.723,-0.619c-0.239,0.271 0.249,0.621 0.723,0.619Z" style="fill:#f00;"/><path d="M4.108,3.86c0.076,-0.141 0.932,0.902 0.86,1.1c-0.02,0.053 -0.662,0.036 -0.8,0.02c-0.108,-0.013 0.323,-0.035 0.48,-0.16c0.202,-0.161 -0.548,-0.943 -0.54,-0.96Z" style="fill:#f00;"/><path d="M4.636,4.419c0.016,-0.07 0.314,0.413 0.302,0.511c-0.004,0.026 -0.194,0.035 -0.235,0.031c-0.032,-0.003 0.093,-0.026 0.134,-0.09c0.053,-0.084 -0.203,-0.444 -0.201,-0.452Z" style="fill:#f00;"/></g></svg>