<?xml version="1.0" encoding="UTF-8" standalone="no"?><!DOCTYPE svg PUBLIC "-//W3C//DTD SVG 1.1//EN" "http://www.w3.org/Graphics/SVG/1.1/DTD/svg11.dtd"><svg width="100%" height="100%" viewBox="0 0 36 36" version="1.1" xmlns="http://www.w3.org/2000/svg" xmlns:xlink="http://www.w3.org/1999/xlink" xml:space="preserve" xmlns:serif="http://www.serif.com/" style="fill-rule:evenodd;clip-rule:evenodd;stroke-linejoin:round;stroke-miterlimit:2;"><g><circle cx="26.429" cy="7.719" r="7.719" style="fill:#f00;"/><path d="M11.2,14.707c0.213,-4.005 3.656,-2.776 4.381,-1.286c1.504,3.089 1.775,5.936 3.025,8.388c3.491,0.456 7.79,0.489 9.635,0.721c2.496,0.315 2.388,4.541 0.17,4.599c-2.156,0.056 -9.919,0.388 -12.726,-1.47c-2.687,-1.778 -4.528,-10.148 -4.485,-10.952Z" style="fill:#f00;"/><path d="M17.98,16.907c0,0 1.826,-3.564 0.209,-6.258c-0.958,-1.596 -4.885,-4.227 -9.91,0.73c-2.98,2.94 -7.814,14.002 -6.049,18.671c1.235,3.268 5.345,7.279 11.786,4.381c2.765,-1.245 6.259,-6.685 6.259,-6.685c0,0 1.72,5.393 2.712,6.789c0.938,1.321 5.319,3.45 6.675,-2.617c0.283,-1.265 -1.043,-3.746 -1.043,-3.746c0,0 -9.181,-0.156 -13.559,-1.47c-2.017,-1.653 -4.799,-9.632 -4.799,-12.203c0,-1.991 0.731,-4.721 4.799,-3.225c1.341,0.494 2.92,5.633 2.92,5.633Z" style="fill:#f00;"/><path d="M18.502,18.671l0.834,2.19l7.093,0.626c0,0 -0.744,-4.327 -3.338,-4.798c-2.829,-0.514 -4.589,1.982 -4.589,1.982Z" style="fill:#f00;"/></g></svg>