<?xml version="1.0" encoding="UTF-8" standalone="no"?><!DOCTYPE svg PUBLIC "-//W3C//DTD SVG 1.1//EN" "http://www.w3.org/Graphics/SVG/1.1/DTD/svg11.dtd"><svg width="100%" height="100%" viewBox="0 0 130 130" version="1.1" xmlns="http://www.w3.org/2000/svg" xmlns:xlink="http://www.w3.org/1999/xlink" xml:space="preserve" xmlns:serif="http://www.serif.com/" style="fill-rule:evenodd;clip-rule:evenodd;stroke-linejoin:round;stroke-miterlimit:2;"><clipPath id="_clip1"><rect id="Visionnary" x="13.286" y="13.286" width="103.429" height="103.429"/></clipPath><g clip-path="url(#_clip1)"><g><path d="M65.722,98.251c-17.63,0 -34.921,-9.819 -51.395,-29.182c-1.279,-1.503 -1.391,-3.674 -0.276,-5.301c0.895,-1.309 22.278,-32.021 52.288,-32.021c17.785,0 34.46,10.752 49.564,31.955c1.054,1.483 1.082,3.463 0.069,4.972c-0.81,1.206 -20.214,29.577 -50.25,29.577Zm-42.436,-32.213c14,15.58 28.264,23.473 42.436,23.473c20.645,0 36.083,-16.914 41.185,-23.309c-12.826,-17.064 -26.462,-25.715 -40.566,-25.715c-20.652,-0.002 -37.423,18.512 -43.055,25.551Z" style="fill:#f00;fill-rule:nonzero;"/><path d="M65,43.965c-11.616,0 -21.031,9.415 -21.031,21.033c0,11.614 9.415,21.031 21.031,21.031c11.614,0 21.031,-9.417 21.031,-21.031c0,-11.616 -9.415,-21.033 -21.031,-21.033Zm7.534,21.345c-4.681,0 -8.475,-3.794 -8.475,-8.472c0,-4.682 3.794,-8.476 8.475,-8.476c4.682,0 8.476,3.794 8.476,8.476c0,4.676 -3.796,8.472 -8.476,8.472Z" style="fill:#f00;fill-rule:nonzero;"/></g></g></svg>