<?xml version="1.0" encoding="UTF-8" standalone="no"?><!DOCTYPE svg PUBLIC "-//W3C//DTD SVG 1.1//EN" "http://www.w3.org/Graphics/SVG/1.1/DTD/svg11.dtd"><svg width="100%" height="100%" viewBox="0 0 130 130" version="1.1" xmlns="http://www.w3.org/2000/svg" xmlns:xlink="http://www.w3.org/1999/xlink" xml:space="preserve" xmlns:serif="http://www.serif.com/" style="fill-rule:evenodd;clip-rule:evenodd;stroke-linecap:round;stroke-linejoin:round;stroke-miterlimit:1.5;"><g><path d="M20.446,46.496c13.185,18.233 65.097,24.707 88.839,0c31.658,10.836 19.663,20.743 11.756,24.94c-29.251,15.526 -102.946,6.281 -117.581,-3.919c-11.315,-7.887 7.979,-20.829 16.986,-21.021Z" style="fill:#f00;"/><path d="M46.573,2.194c10.55,2.02 26.868,4.206 33.968,-0.118c9.858,-6.003 24.822,31.453 22.209,40.618c-2.613,9.165 -25.258,13.935 -37.887,14.371c-12.629,0.435 -34.838,-2.613 -37.887,-11.758c-3.048,-9.145 8.329,-45.271 19.597,-43.113Z" style="fill:#f00;"/><path d="M19.138,81.887c-2.337,1.607 6.308,9.248 9.145,11.759c5.661,7.403 13.282,34.185 24.822,32.661c11.541,-1.524 35.16,-36.567 44.42,-41.807c-15.061,1.57 -65.951,0.165 -78.387,-2.613Z" style="fill:#f00;"/><path d="M107.976,83.194c-2.22,5.275 -7.735,5.071 -9.145,9.145c-9.184,26.544 -28.593,43 -48.089,31.355" style="fill:#f00;stroke:#f00;stroke-width:3.94px;"/></g></svg>