<?xml version="1.0" encoding="UTF-8" standalone="no"?><!DOCTYPE svg PUBLIC "-//W3C//DTD SVG 1.1//EN" "http://www.w3.org/Graphics/SVG/1.1/DTD/svg11.dtd"><svg width="100%" height="100%" viewBox="0 0 29 29" version="1.1" xmlns="http://www.w3.org/2000/svg" xmlns:xlink="http://www.w3.org/1999/xlink" xml:space="preserve" xmlns:serif="http://www.serif.com/" style="fill-rule:evenodd;clip-rule:evenodd;stroke-linejoin:round;stroke-miterlimit:2;"><g><path d="M0.035,24.875c-0.019,-0.018 -0.021,-0.048 -0.003,-0.068c8.755,-9.805 18.644,-19.929 28.524,-24.807c-0.755,7.827 -3.258,15.04 -10.349,20.638c-0.02,0.016 -0.048,0.014 -0.065,-0.005c-0.35,-0.375 -3.648,-3.902 -4.042,-4.323c-0.009,-0.01 -0.023,-0.016 -0.037,-0.015c-0.014,0 -0.027,0.007 -0.036,0.018c-0.609,0.784 -9.082,11.691 -9.668,12.446c-0.009,0.011 -0.021,0.017 -0.034,0.018c-0.014,0.001 -0.027,-0.003 -0.037,-0.012c-0.404,-0.37 -3.867,-3.537 -4.253,-3.89Z" style="fill:#f00;"/></g></svg>