<?xml version="1.0" encoding="UTF-8" standalone="no"?><!DOCTYPE svg PUBLIC "-//W3C//DTD SVG 1.1//EN" "http://www.w3.org/Graphics/SVG/1.1/DTD/svg11.dtd"><svg width="100%" height="100%" viewBox="0 0 36 36" version="1.1" xmlns="http://www.w3.org/2000/svg" xmlns:xlink="http://www.w3.org/1999/xlink" xml:space="preserve" xmlns:serif="http://www.serif.com/" style="fill-rule:evenodd;clip-rule:evenodd;stroke-linejoin:round;stroke-miterlimit:2;"><g><path d="M26.477,2.382c5.256,0 9.523,4.163 9.523,9.29c0,5.128 -4.267,9.291 -9.523,9.291c-5.255,0 -9.522,-4.163 -9.522,-9.291c0,-5.127 4.267,-9.29 9.522,-9.29Zm0,2.323c3.942,0 7.142,3.122 7.142,6.967c0,3.846 -3.2,6.968 -7.142,6.968c-3.941,0 -7.142,-3.122 -7.142,-6.968c0,-3.845 3.201,-6.967 7.142,-6.967Z" style="fill:#f00;"/><text x="23.316px" y="15.801px" style="font-family:'Alef-Regular', 'Alef';font-size:11.223px;fill:#e81c1c;">$</text><path d="M1.509,22.715c1.67,-0.591 5.162,-0.355 6.62,0.348c0.373,1.894 -0.368,7.799 -0.813,9.755c-2.44,0.661 -5.438,0.168 -7.316,-0.116c0.048,-1.894 0.365,-8.205 1.509,-9.987Zm2.788,6.028c0.833,0 1.509,0.703 1.509,1.568c0,0.865 -0.676,1.568 -1.509,1.568c-0.833,0 -1.51,-0.703 -1.51,-1.568c0,-0.865 0.677,-1.568 1.51,-1.568Z" style="fill:#f00;"/><path d="M10.452,23.063c2.076,-0.599 4.395,-0.972 6.619,-0.939c2.289,0.034 5.53,1.413 7.084,1.858c0.912,0.261 5.479,1.285 1.161,3.252c-0.932,0.424 -6.221,-0.721 -6.039,-0.465c0.329,0.463 2.937,2.197 6.62,1.742c6.219,-0.769 7.366,-3.041 8.593,-2.903c0.614,0.061 2.462,1.206 0.349,2.913c-1.514,1.224 -5.443,4.42 -8.942,4.994c-3.759,0.617 -11.158,-1.731 -13.703,-1.927c-0.579,-0.044 -1.027,0.247 -1.568,0.755c-0.226,0.212 -0.379,0.478 -0.639,0.233c-0.29,-1.392 0.404,-7.703 0.465,-9.513Z" style="fill:#f00;"/></g></svg>