<?xml version="1.0" encoding="UTF-8" standalone="no"?><!DOCTYPE svg PUBLIC "-//W3C//DTD SVG 1.1//EN" "http://www.w3.org/Graphics/SVG/1.1/DTD/svg11.dtd"><svg width="100%" height="100%" viewBox="0 0 130 130" version="1.1" xmlns="http://www.w3.org/2000/svg" xmlns:xlink="http://www.w3.org/1999/xlink" xml:space="preserve" xmlns:serif="http://www.serif.com/" style="fill-rule:evenodd;clip-rule:evenodd;stroke-linejoin:round;stroke-miterlimit:2;"><clipPath id="_clip1"><rect id="Visionnary" x="12.857" y="12.857" width="104.286" height="104.286"/></clipPath><g clip-path="url(#_clip1)"><g><path d="M65.728,98.526c-17.776,0 -35.21,-9.9 -51.821,-29.423c-1.289,-1.516 -1.402,-3.705 -0.279,-5.345c0.903,-1.32 22.463,-32.286 52.722,-32.286c17.932,0 34.746,10.841 49.975,32.22c1.063,1.495 1.091,3.491 0.069,5.013c-0.816,1.216 -20.381,29.821 -50.666,29.821Zm-42.788,-32.48c14.116,15.71 28.498,23.668 42.788,23.668c20.817,0 36.382,-17.054 41.526,-23.502c-12.932,-17.206 -26.681,-25.928 -40.902,-25.928c-20.823,-0.002 -37.733,18.666 -43.412,25.762Z" style="fill:#fff;fill-rule:nonzero;"/><path d="M65,43.791c-11.712,0 -21.205,9.493 -21.205,21.207c0,11.71 9.493,21.205 21.205,21.205c11.71,0 21.205,-9.495 21.205,-21.205c0,-11.712 -9.493,-21.207 -21.205,-21.207Zm7.596,21.522c-4.719,0 -8.544,-3.826 -8.544,-8.543c0,-4.721 3.825,-8.546 8.544,-8.546c4.721,0 8.547,3.825 8.547,8.546c0,4.716 -3.828,8.543 -8.547,8.543Z" style="fill:#fff;fill-rule:nonzero;"/><ellipse cx="77.203" cy="55.971" rx="2.587" ry="2.578" style="fill:#fff;"/></g></g></svg>