<?xml version="1.0" encoding="UTF-8" standalone="no"?><!DOCTYPE svg PUBLIC "-//W3C//DTD SVG 1.1//EN" "http://www.w3.org/Graphics/SVG/1.1/DTD/svg11.dtd"><svg width="100%" height="100%" viewBox="0 0 116 128" version="1.1" xmlns="http://www.w3.org/2000/svg" xmlns:xlink="http://www.w3.org/1999/xlink" xml:space="preserve" xmlns:serif="http://www.serif.com/" style="fill-rule:evenodd;clip-rule:evenodd;stroke-linejoin:round;stroke-miterlimit:2;"><path d="M59.237,0.099c-0.466,0.05 -1.558,0.139 -2.431,0.199c-12.095,0.883 -22.544,5.278 -30.105,12.651c-4.415,4.316 -7.412,8.89 -9.515,14.546c-1.122,3.027 -2.094,7.402 -2.104,9.466c0,1.241 0.427,3.185 1.042,4.723c0.129,0.328 -2.262,3.553 -6.837,9.218c-6.261,7.75 -8.136,10.469 -8.989,13.098c-0.358,1.091 -0.358,1.24 -0.08,2.014c0.397,1.102 1.251,1.836 3.493,3.017c1.359,0.714 1.498,0.754 2.937,0.972c1.826,0.268 2.63,0.675 2.997,1.508c0.238,0.546 0.198,0.933 -0.268,2.411c-0.179,0.576 -0.377,1.28 -0.437,1.568c-0.139,0.685 -0.407,1.191 -1.121,2.134c-0.734,0.962 -0.972,1.468 -0.972,2.103c0,0.982 0.615,1.816 2.212,2.977c1.062,0.774 1.042,0.982 -0.268,2.461c-1.012,1.151 -1.25,1.548 -1.25,2.083c0,0.368 0.03,0.397 1.449,2.074c1.429,1.667 1.954,2.719 1.954,3.949c0,0.675 -0.079,0.993 -0.902,3.473c-1.32,3.969 -1.34,4.049 -1.35,5.805c-0.01,1.379 0.01,1.528 0.248,2.093c0.526,1.261 1.756,2.799 3.046,3.821c1.231,0.982 2.59,1.647 4.376,2.143l0.953,0.258l9.297,0.059l9.288,0.06l0.267,0.248c1.657,1.538 3.324,6.995 4.475,14.656l0.169,1.121l30.938,0c17.027,0 30.949,-0.01 30.949,-0.03c0,-0.01 -0.229,-1.141 -0.496,-2.5c-2.382,-11.848 -3.999,-23.576 -4.138,-30.066c-0.08,-3.611 0.049,-4.494 1.032,-7.094c1.042,-2.778 2.431,-5.18 5.824,-10.071c4.475,-6.46 5.15,-7.74 6.966,-13.197c1.786,-5.378 2.649,-9.665 3.135,-15.529c0.239,-2.808 0.149,-5.715 -0.277,-9.129c-1.499,-12.085 -7.571,-22.246 -17.464,-29.241c-7.948,-5.616 -18.436,-9.04 -30.154,-9.853c-0.874,-0.06 -2.084,-0.149 -2.689,-0.199c-1.251,-0.109 -3.959,-0.109 -5.2,0Z" style="fill:#fff;fill-rule:nonzero;"/></svg>