<?xml version="1.0" encoding="UTF-8" standalone="no"?><!DOCTYPE svg PUBLIC "-//W3C//DTD SVG 1.1//EN" "http://www.w3.org/Graphics/SVG/1.1/DTD/svg11.dtd"><svg width="100%" height="100%" viewBox="0 0 130 130" version="1.1" xmlns="http://www.w3.org/2000/svg" xmlns:xlink="http://www.w3.org/1999/xlink" xml:space="preserve" xmlns:serif="http://www.serif.com/" style="fill-rule:evenodd;clip-rule:evenodd;stroke-linecap:round;stroke-linejoin:round;stroke-miterlimit:1.5;"><g><path d="M20.446,46.05c13.185,18.234 65.097,24.707 88.839,0c31.658,10.837 19.663,20.743 11.756,24.94c-29.251,15.527 -102.946,6.282 -117.581,-3.919c-11.315,-7.887 7.979,-20.829 16.986,-21.021Z" style="fill:#fff;"/><path d="M46.573,1.749c10.55,2.02 26.868,4.206 33.968,-0.118c9.858,-6.003 24.822,31.453 22.209,40.618c-2.613,9.164 -25.258,13.935 -37.887,14.37c-12.629,0.436 -34.838,-2.612 -37.887,-11.758c-3.048,-9.145 8.329,-45.27 19.597,-43.112Z" style="fill:#fff;"/><path d="M19.138,81.442c-2.337,1.606 6.308,9.248 9.145,11.758c5.661,7.403 13.282,34.185 24.822,32.661c11.541,-1.524 35.16,-36.566 44.42,-41.806c-15.061,1.569 -65.951,0.165 -78.387,-2.613Z" style="fill:#fff;"/><path d="M107.976,82.748c-2.22,5.276 -7.735,5.071 -9.145,9.146c-9.184,26.543 -28.593,42.999 -48.089,31.354" style="fill:none;stroke:#fff;stroke-width:3.94px;"/><g><path d="M121.502,53.739c9.466,8.05 -13.686,17.92 -10.452,16.984c10.98,-3.181 28.296,-8.349 8.492,-18.291c-0.701,-0.352 1.362,0.798 1.96,1.307Z" style="stroke:#000;stroke-width:0.49px;"/><path d="M126.891,58.348c0.831,4.578 -5.48,8.054 -4.663,7.788c2.776,-0.904 7.175,-2.404 4.439,-8.557c-0.097,-0.218 0.172,0.479 0.224,0.769Z" style="fill:#fff;"/></g></g></svg>