<?xml version="1.0" encoding="UTF-8" standalone="no"?><!DOCTYPE svg PUBLIC "-//W3C//DTD SVG 1.1//EN" "http://www.w3.org/Graphics/SVG/1.1/DTD/svg11.dtd"><svg width="100%" height="100%" viewBox="0 0 130 130" version="1.1" xmlns="http://www.w3.org/2000/svg" xmlns:xlink="http://www.w3.org/1999/xlink" xml:space="preserve" xmlns:serif="http://www.serif.com/" style="fill-rule:evenodd;clip-rule:evenodd;stroke-linejoin:round;stroke-miterlimit:2;"><g><path d="M65.986,87.422c-7.885,-3.696 -13.799,-7.884 -17.248,-12.566l26.118,0c1.478,0 2.464,-0.986 2.464,-2.464c0,-1.478 -0.986,-2.464 -2.464,-2.464l-28.582,0c-0.493,-1.724 -0.986,-3.203 -0.986,-4.928c0,-7.638 6.407,-13.552 11.581,-17.248c1.232,-0.739 1.478,-2.217 0.739,-3.449c-0.739,-1.232 -2.218,-1.479 -3.45,-0.74c-9.116,6.407 -13.798,13.799 -13.798,21.437c0,10.349 8.378,19.958 23.654,26.857c9.117,4.189 15.523,9.363 18.727,15.031l-27.597,0c-1.478,0 -2.464,0.985 -2.464,2.464c0,1.478 0.986,2.463 2.464,2.463l29.322,0c0.246,0.74 0.246,1.725 0.246,2.464l0,2.464c0,1.479 0.986,2.464 2.464,2.464c1.478,0 2.464,-0.985 2.464,-2.464l0,-2.464c0,-10.348 -8.378,-19.958 -23.654,-26.857Z" style="fill:#fff;fill-rule:nonzero;"/><path d="M57.608,93.582c-0.739,-1.232 -2.218,-1.478 -3.45,-0.739c-9.116,6.406 -13.798,13.798 -13.798,21.437l0,2.464c0,1.478 0.986,2.463 2.464,2.463c1.478,0 2.464,-0.985 2.464,-2.463l0,-2.464c0,-7.639 6.406,-13.552 11.581,-17.248c1.232,-0.739 1.478,-2.218 0.739,-3.45Z" style="fill:#fff;fill-rule:nonzero;"/><path d="M65.986,38.143c-9.117,-4.189 -15.523,-9.363 -18.727,-15.031l27.597,0c1.478,0 2.464,-0.985 2.464,-2.464c0,-1.478 -0.986,-2.463 -2.464,-2.463l-29.321,0c-0.247,-0.74 -0.247,-1.725 -0.247,-2.464l0,-2.465c0,-1.478 -0.985,-2.464 -2.464,-2.464c-1.478,0 -2.464,0.986 -2.464,2.464l0,2.464c0,10.349 8.378,19.959 23.655,26.858c7.884,3.696 13.798,7.884 17.248,12.566l-26.119,0c-1.478,0 -2.464,0.985 -2.464,2.464c0,1.478 0.986,2.464 2.464,2.464l28.582,0c0.493,1.724 0.986,3.203 0.986,4.928c0,7.638 -6.406,13.798 -11.827,17.494c-1.232,0.739 -1.479,2.217 -0.739,3.449c0.492,0.74 1.232,0.986 1.971,0.986c0.493,0 0.986,-0.246 1.478,-0.493c9.117,-6.16 14.045,-13.552 14.045,-21.436c0,-10.349 -8.378,-19.958 -23.654,-26.857Z" style="fill:#fff;fill-rule:nonzero;"/><path d="M87.176,10.792c-1.479,0 -2.464,0.986 -2.464,2.464l0,2.464c0,7.639 -6.407,13.799 -11.827,17.494c-1.232,0.74 -1.479,2.218 -0.74,3.45c0.493,0.739 1.232,0.986 1.972,0.986c0.492,0 0.985,-0.247 1.478,-0.493c9.117,-6.16 14.045,-13.552 14.045,-21.437l0,-2.464c0,-1.478 -0.986,-2.464 -2.464,-2.464Z" style="fill:#fff;fill-rule:nonzero;"/></g></svg>