<?xml version="1.0" encoding="UTF-8" standalone="no"?><!DOCTYPE svg PUBLIC "-//W3C//DTD SVG 1.1//EN" "http://www.w3.org/Graphics/SVG/1.1/DTD/svg11.dtd"><svg width="100%" height="100%" viewBox="0 0 47 47" version="1.1" xmlns="http://www.w3.org/2000/svg" xmlns:xlink="http://www.w3.org/1999/xlink" xml:space="preserve" xmlns:serif="http://www.serif.com/" style="fill-rule:evenodd;clip-rule:evenodd;stroke-linejoin:round;stroke-miterlimit:2;"><path d="M26.905,36.893l-23.391,0c-1.94,0 -3.514,1.574 -3.514,3.514l0,6.39l30.419,0l0,-6.39c0,-1.94 -1.574,-3.514 -3.514,-3.514Z" style="fill:#fff;fill-rule:nonzero;"/><path d="M46.169,37.388l-21.351,-21.351l4.124,-4.117c0.68,0.6 1.725,0.57 2.369,-0.073c0.673,-0.68 0.673,-1.77 0,-2.45l-8.892,-8.884c-0.672,-0.68 -1.769,-0.68 -2.442,0c-0.68,0.673 -0.68,1.769 0,2.442l-0.073,-0.073l-11.29,11.283l0.073,0.08c-0.673,-0.68 -1.77,-0.68 -2.442,0c-0.68,0.673 -0.68,1.77 0,2.442l8.884,8.892c0.68,0.673 1.777,0.673 2.45,0c0.672,-0.68 0.672,-1.769 0,-2.449l0.073,0.073l4.124,-4.117l21.344,21.344c0.841,0.841 2.208,0.841 3.049,0c0.841,-0.841 0.841,-2.201 0,-3.042Z" style="fill:#fff;fill-rule:nonzero;"/></svg>