<?xml version="1.0" encoding="UTF-8" standalone="no"?><!DOCTYPE svg PUBLIC "-//W3C//DTD SVG 1.1//EN" "http://www.w3.org/Graphics/SVG/1.1/DTD/svg11.dtd"><svg width="100%" height="100%" viewBox="0 0 130 130" version="1.1" xmlns="http://www.w3.org/2000/svg" xmlns:xlink="http://www.w3.org/1999/xlink" xml:space="preserve" xmlns:serif="http://www.serif.com/" style="fill-rule:evenodd;clip-rule:evenodd;stroke-linejoin:round;stroke-miterlimit:2;"><path d="M18.593,21.056l0,39.648c0,37.698 46.407,58.725 46.407,58.725c0,0 46.407,-21.027 46.407,-58.725l0,-39.648c0,0 -16.614,-10.485 -46.407,-10.485c-29.793,0 -46.407,10.485 -46.407,10.485Z" style="fill:#fff;fill-rule:nonzero;"/><path d="M65,10.571c-29.793,0 -46.407,10.485 -46.407,10.485l0,39.648c0,37.698 46.407,58.725 46.407,58.725l0,-108.858Z" style="fill-rule:nonzero;"/><g><path d="M88.09,71.589c0,0 -6.188,15.756 -23.09,15.756c-16.902,0 -23.09,-15.756 -23.09,-15.756c0,0 23.09,15.756 46.18,0Z" style="fill-rule:nonzero;"/><path d="M65,78.583l0,8.762c-16.902,0 -23.09,-15.756 -23.09,-15.756c0,0 9.837,6.712 23.09,6.994Z" style="fill:#fff;fill-rule:nonzero;"/><path d="M53.306,81.584c1.676,0.806 7.442,3.189 7.442,3.189c0,0 -2.82,0.031 -5.827,-1.276c-6.576,-2.858 -9.694,-8.717 -9.694,-8.717c0,0 3.012,4.366 8.079,6.804Z" style="fill-rule:nonzero;"/><path d="M58.367,43.191c-3.418,-5.939 -12.679,-8.699 -20.687,-6.165c-3.738,1.183 -6.717,3.392 -8.312,6.165l28.999,0Z" style="fill:#fff;fill-rule:nonzero;"/><path d="M100.632,43.191c-3.417,-5.939 -12.678,-8.699 -20.686,-6.165c-3.739,1.183 -6.717,3.392 -8.313,6.165l28.999,0Z" style="fill-rule:nonzero;"/></g></svg>