<?xml version="1.0" encoding="UTF-8" standalone="no"?><!DOCTYPE svg PUBLIC "-//W3C//DTD SVG 1.1//EN" "http://www.w3.org/Graphics/SVG/1.1/DTD/svg11.dtd"><svg width="100%" height="100%" viewBox="0 0 7 7" version="1.1" xmlns="http://www.w3.org/2000/svg" xmlns:xlink="http://www.w3.org/1999/xlink" xml:space="preserve" xmlns:serif="http://www.serif.com/" style="fill-rule:evenodd;clip-rule:evenodd;stroke-linecap:square;stroke-miterlimit:1.5;"><g id="Pulsion"><path d="M1.493,6.96l0,-1.455c0,0 -0.769,-1.032 -1.026,-2.102c-0.176,-0.734 -0.082,-1.442 0.237,-2.022c0.614,-1.115 1.76,-1.434 2.682,-1.374c0.536,0.035 1.228,0.194 1.656,0.566c0.646,0.56 0.555,1.508 0.868,1.859c0.334,0.376 0.762,0.971 0.789,1.294c0.024,0.304 -0.462,0.412 -0.631,0.647c-0.106,0.296 0.055,0.802 0,1.132c-0.132,0.269 -0.526,0.404 -0.789,0.485c-0.202,0.062 -0.789,0 -0.789,0l0,0.97l-2.997,0Z" style="fill:#f00;"/></g><g id="Pulsion1" serif:id="Pulsion"><path d="M1.497,6.861l0,-1.421c0,0 -0.751,-1.007 -1.001,-2.053c-0.172,-0.716 -0.081,-1.408 0.231,-1.974c0.6,-1.089 1.718,-1.401 2.619,-1.342c0.523,0.034 1.199,0.19 1.617,0.553c0.631,0.547 0.542,1.473 0.847,1.816c0.327,0.366 0.745,0.947 0.771,1.263c0.024,0.297 -0.452,0.402 -0.617,0.632c-0.102,0.289 0.055,0.783 0,1.105c-0.128,0.263 -0.513,0.395 -0.77,0.474c-0.197,0.06 -0.77,0 -0.77,0l0,0.947l-2.927,0Z" style="fill:#fff;stroke:#fff;stroke-width:0.17px;"/><g><path d="M2.569,0.954c0.004,-0.009 0.012,-0.014 0.022,-0.014c0.08,0 0.447,0 0.564,0c0.008,0 0.016,0.004 0.02,0.01c0.005,0.007 0.006,0.016 0.003,0.023c-0.069,0.163 -0.367,0.876 -0.435,1.039c-0.003,0.007 -0.002,0.016 0.002,0.022c0.005,0.007 0.012,0.011 0.02,0.011c0.096,0 0.357,0 0.46,0c0.009,0 0.017,0.005 0.021,0.012c0.004,0.008 0.004,0.017 0,0.025c-0.14,0.223 -0.879,1.406 -1.128,1.805c-0.006,0.01 -0.019,0.014 -0.029,0.009c-0.011,-0.004 -0.017,-0.016 -0.014,-0.028c0.087,-0.34 0.296,-1.153 0.339,-1.319c0.001,-0.008 0,-0.015 -0.005,-0.021c-0.004,-0.006 -0.011,-0.009 -0.019,-0.009c-0.093,0 -0.371,0 -0.471,0c-0.008,0 -0.016,-0.004 -0.02,-0.011c-0.005,-0.007 -0.005,-0.016 -0.002,-0.023c0.094,-0.215 0.609,-1.388 0.672,-1.531Z" style="stroke:#000;stroke-width:0.17px;"/><path d="M2.883,2.124l0.308,0l-1.078,1.737l0.77,-1.737Z" style="fill:#fff;stroke:#000;stroke-width:0.12px;"/></g></g></svg>