<?xml version="1.0" encoding="UTF-8" standalone="no"?><!DOCTYPE svg PUBLIC "-//W3C//DTD SVG 1.1//EN" "http://www.w3.org/Graphics/SVG/1.1/DTD/svg11.dtd"><svg width="100%" height="100%" viewBox="0 0 34 87" version="1.1" xmlns="http://www.w3.org/2000/svg" xmlns:xlink="http://www.w3.org/1999/xlink" xml:space="preserve" xmlns:serif="http://www.serif.com/" style="fill-rule:evenodd;clip-rule:evenodd;stroke-linejoin:round;stroke-miterlimit:2;"><path d="M13.66,0.153c-1.336,0.364 -2.314,1.14 -2.922,2.335c-0.303,0.593 -0.432,1.12 -0.499,2.058c-0.034,0.425 -0.067,0.782 -0.081,0.789c-0.364,0.196 -0.378,0.25 -0.391,1.404c-0.007,0.762 0.006,0.877 0.148,1.147c0.095,0.182 0.243,0.344 0.385,0.411c0.222,0.115 0.236,0.149 0.492,1.107c0.142,0.547 0.243,1.033 0.223,1.08c-0.02,0.054 -0.223,0.101 -0.513,0.135c-0.364,0.033 -0.607,0.108 -0.999,0.303c-0.431,0.223 -0.573,0.264 -0.937,0.264c-0.426,0 -0.83,0.134 -0.83,0.269c0,0.041 0.135,0.345 0.303,0.682c0.169,0.331 0.371,0.762 0.446,0.958c0.074,0.196 0.182,0.452 0.242,0.567c0.054,0.121 0.088,0.263 0.068,0.31c-0.02,0.048 -0.344,0.203 -0.729,0.351c-0.384,0.142 -1.14,0.452 -1.68,0.695c-2.045,0.911 -2.706,1.303 -3.36,1.998c-0.425,0.452 -0.567,0.749 -0.749,1.565c-0.068,0.331 -0.264,0.898 -0.419,1.248l-0.29,0.635l-0.047,1.855c-0.041,1.829 -0.041,1.869 -0.29,2.922c-0.763,3.3 -1.141,8.016 -0.857,10.776l0.088,0.844l-0.203,0.708c-0.29,0.972 -0.31,1.215 -0.189,1.971c0.061,0.364 0.108,1.079 0.108,1.585c0,0.513 0.034,1.053 0.068,1.195c0.04,0.202 0.033,0.33 -0.054,0.539c-0.149,0.358 -0.142,0.891 0.02,1.93c0.128,0.837 0.135,0.844 0.418,1.134c0.162,0.162 0.432,0.344 0.594,0.418l0.304,0.129l0,0.6c0,0.817 0.047,1.019 0.243,1.066c0.148,0.041 0.155,0.068 0.141,0.587c-0.013,0.648 0.122,1.012 0.655,1.714c0.783,1.033 1.403,1.08 2.618,0.203c0.425,-0.311 0.52,-0.5 0.405,-0.817c-0.081,-0.202 -0.054,-0.256 0.155,-0.331c0.04,-0.013 0.081,-0.31 0.101,-0.661c0.034,-0.6 0.041,-0.627 0.135,-0.465c0.074,0.128 0.101,0.418 0.108,1.214c0.007,0.574 0.014,1.08 0.02,1.127c0.007,0.068 0.506,0.337 1.04,0.547c0.182,0.074 0.182,0.087 0.182,0.701c0,0.345 0.06,0.979 0.135,1.404c0.148,0.816 0.182,1.977 0.101,3.266c-0.054,0.857 0.223,3.468 0.472,4.44c0.142,0.553 0.169,0.803 0.169,1.687c0,0.567 -0.034,1.228 -0.081,1.471c-0.122,0.688 -0.095,2.982 0.04,3.488c0.108,0.405 0.102,0.432 -0.074,1.215c-0.155,0.695 -0.182,0.951 -0.182,1.977c0,0.904 0.027,1.316 0.121,1.755c0.169,0.789 0.453,1.538 0.81,2.152c0.169,0.283 0.432,0.79 0.581,1.12c0.371,0.803 0.411,0.844 0.856,0.844c0.203,0 0.426,0.027 0.493,0.067c0.263,0.142 0.425,1.019 0.513,2.821l0.047,0.924l-0.256,0.742c-0.405,1.181 -0.729,1.883 -1.1,2.349c-0.452,0.56 -0.675,1.019 -0.729,1.471c-0.034,0.317 -0.02,0.391 0.115,0.56c0.222,0.283 0.499,0.371 1.424,0.445c0.458,0.041 1.032,0.101 1.282,0.135c0.607,0.088 1.471,0.088 1.97,-0.007c0.816,-0.155 1.7,-0.405 2.065,-0.587l0.371,-0.182l0,-0.459c0,-0.25 -0.014,-0.951 -0.02,-1.559l-0.014,-1.106l-0.236,-0.344c-0.378,-0.54 -0.378,-0.56 -0.27,-1.917c0.047,-0.675 0.115,-1.653 0.135,-2.173l0.047,-0.944l0.331,-0.493c0.445,-0.648 0.641,-1.086 0.803,-1.808c0.243,-1.114 0.162,-1.93 -0.364,-3.496c-0.372,-1.12 -0.709,-1.848 -1.046,-2.294c-0.412,-0.54 -0.439,-0.627 -0.345,-0.944c0.048,-0.156 0.257,-0.702 0.473,-1.222c0.803,-1.943 0.978,-2.8 0.924,-4.656c-0.033,-1.235 -0.108,-1.808 -0.351,-2.834c-0.155,-0.627 -0.202,-2.206 -0.108,-3.34c0.142,-1.694 0.277,-1.808 0.722,-0.607c0.5,1.363 0.979,3.03 1.08,3.812c0.297,2.126 0.31,2.173 1.613,4.622c0.384,0.722 0.729,1.438 0.769,1.586c0.047,0.169 0.054,0.661 0.027,1.383l-0.04,1.114l0.344,1.012c0.384,1.147 0.938,2.483 1.464,3.576c0.385,0.79 0.796,1.316 1.572,2.025c0.236,0.216 0.452,0.438 0.486,0.506c0.034,0.06 0.034,0.31 0,0.587c-0.034,0.27 -0.067,0.857 -0.074,1.309c-0.02,0.816 -0.014,0.823 0.162,0.978c0.121,0.108 0.303,0.162 0.614,0.196c0.492,0.054 0.594,0.128 0.749,0.574c0.297,0.836 0.776,2.861 0.776,3.286c0,0.155 -0.095,0.445 -0.236,0.735c-0.291,0.581 -0.351,1.06 -0.243,1.883c0.108,0.789 0.202,1.005 0.526,1.167c0.682,0.344 2.422,0.574 4.44,0.58c1.754,0.007 1.937,-0.033 2.024,-0.438c0.054,-0.236 -0.013,-1.012 -0.108,-1.275c-0.04,-0.095 -0.472,-0.561 -0.965,-1.046c-0.998,-0.979 -1.201,-1.296 -1.322,-2.092c-0.041,-0.263 -0.176,-0.884 -0.304,-1.383c-0.371,-1.465 -0.513,-2.166 -0.472,-2.295c0.02,-0.067 0.216,-0.243 0.432,-0.398c0.492,-0.344 0.648,-0.675 0.648,-1.39c0,-0.432 -0.027,-0.519 -0.291,-0.992c-0.168,-0.317 -0.283,-0.607 -0.283,-0.742c0,-0.121 0.155,-0.722 0.344,-1.336c0.331,-1.073 0.344,-1.147 0.351,-1.923c0,-0.979 -0.074,-1.41 -0.466,-2.605c-0.283,-0.87 -0.364,-1.025 -0.85,-1.633c-0.142,-0.175 -0.155,-0.243 -0.121,-0.742c0.108,-1.822 -0.075,-2.753 -1.208,-6.167c-0.506,-1.512 -0.722,-1.991 -1.194,-2.571c-0.196,-0.25 -0.365,-0.493 -0.365,-0.54c0,-0.047 0.081,-0.243 0.176,-0.432c0.209,-0.418 0.202,-0.587 -0.115,-1.572c-0.27,-0.85 -0.284,-1.424 -0.061,-2.294c0.135,-0.507 0.162,-0.783 0.162,-1.654c0.007,-0.661 -0.027,-1.201 -0.088,-1.471l-0.094,-0.418l0.304,-0.324c0.445,-0.472 0.492,-0.675 0.485,-1.937c0,-0.83 -0.04,-1.234 -0.148,-1.754c-0.472,-2.227 -0.445,-1.95 -0.317,-2.699c0.094,-0.54 0.101,-0.729 0.04,-0.958c-0.04,-0.155 -0.108,-0.304 -0.141,-0.324c-0.135,-0.081 -0.061,-0.297 0.162,-0.493c0.155,-0.135 0.458,-0.27 0.91,-0.411c0.372,-0.115 0.763,-0.284 0.864,-0.371c0.311,-0.264 0.526,-0.736 0.931,-2.065c0.493,-1.579 0.621,-1.869 1.438,-3.124c0.364,-0.561 0.688,-1.067 0.722,-1.121c0.027,-0.054 0.074,-0.317 0.101,-0.593c0.034,-0.365 0.094,-0.56 0.196,-0.682c0.33,-0.418 0.364,-0.492 0.35,-0.83c-0.02,-0.546 0.102,-0.864 0.358,-0.972c0.122,-0.054 0.256,-0.141 0.31,-0.202c0.149,-0.182 0.027,-0.945 -0.371,-2.328c-0.209,-0.708 -0.418,-1.505 -0.479,-1.768c-0.128,-0.634 -0.222,-0.769 -0.695,-0.972c-0.459,-0.202 -0.519,-0.283 -1.012,-1.525c-0.594,-1.498 -1.073,-2.523 -2.139,-4.608c-0.567,-1.114 -1.107,-2.22 -1.194,-2.463c-0.398,-1.073 -0.837,-1.694 -1.815,-2.571c-0.905,-0.81 -0.878,-0.803 -2.686,-0.803c-1.518,0 -2.908,-0.088 -3.212,-0.202c-0.148,-0.061 -0.162,-0.102 -0.162,-0.534c0,-0.256 0.061,-0.762 0.135,-1.12c0.074,-0.357 0.135,-0.789 0.135,-0.951c0,-0.263 -0.02,-0.297 -0.175,-0.338c-0.102,-0.027 -0.446,0.014 -0.81,0.102c-0.756,0.168 -1.633,0.195 -1.687,0.04c-0.061,-0.142 0.391,-1.322 0.513,-1.363c0.573,-0.182 0.688,-0.391 0.85,-1.565l0.115,-0.844l-0.189,-0.148l-0.189,-0.149l0.081,-0.681c0.06,-0.513 0.06,-0.81 0.006,-1.228c-0.283,-2.085 -1.363,-3.388 -3.164,-3.833c-0.702,-0.175 -1.033,-0.169 -1.775,0.027Z" style="fill:#fff;fill-rule:nonzero;"/></svg>