<?xml version="1.0" encoding="UTF-8" standalone="no"?><!DOCTYPE svg PUBLIC "-//W3C//DTD SVG 1.1//EN" "http://www.w3.org/Graphics/SVG/1.1/DTD/svg11.dtd"><svg width="100%" height="100%" viewBox="0 0 29 29" version="1.1" xmlns="http://www.w3.org/2000/svg" xmlns:xlink="http://www.w3.org/1999/xlink" xml:space="preserve" xmlns:serif="http://www.serif.com/" style="fill-rule:evenodd;clip-rule:evenodd;stroke-linecap:square;stroke-miterlimit:1.5;"><g><circle cx="14.4" cy="14.4" r="14.4" style="fill:#fff;"/><path d="M12.669,5.507c0,-0.012 0.011,-0.022 0.024,-0.022c0.173,0 1.271,0 1.444,0c0.012,0 0.023,0.01 0.024,0.022c0.026,0.508 0.478,9.336 0.495,9.652c0,0.005 0.002,0.011 0.006,0.015c0.204,0.22 5.627,6.095 5.938,6.433c0.009,0.009 0.009,0.022 0.002,0.032c-0.107,0.133 -0.847,1.057 -0.965,1.205c-0.004,0.005 -0.01,0.008 -0.016,0.009c-0.007,0 -0.014,-0.002 -0.018,-0.006c-0.404,-0.364 -7.149,-6.434 -7.421,-6.679c-0.006,-0.005 -0.008,-0.012 -0.008,-0.019c0.017,-0.379 0.47,-10.107 0.495,-10.642Z" style="stroke:#000;stroke-width:0.12px;"/><path d="M14.388,15.183c0.002,-0.008 0.009,-0.014 0.017,-0.016c0.009,-0.001 0.017,0.001 0.023,0.008c0.424,0.459 5.594,6.06 5.915,6.408c0.009,0.01 0.009,0.024 0,0.033c-0.086,0.086 -0.481,0.481 -0.481,0.481c0,0 -5.441,-5.915 -5.7,-6.197c-0.006,-0.006 -0.008,-0.015 -0.005,-0.024c0.028,-0.085 0.184,-0.554 0.231,-0.693Z" style="fill:#fff;stroke:#000;stroke-width:0.12px;"/></g></svg>