<?xml version="1.0" encoding="UTF-8" standalone="no"?><!DOCTYPE svg PUBLIC "-//W3C//DTD SVG 1.1//EN" "http://www.w3.org/Graphics/SVG/1.1/DTD/svg11.dtd"><svg width="100%" height="100%" viewBox="0 0 7 7" version="1.1" xmlns="http://www.w3.org/2000/svg" xmlns:xlink="http://www.w3.org/1999/xlink" xml:space="preserve" xmlns:serif="http://www.serif.com/" style="fill-rule:evenodd;clip-rule:evenodd;stroke-linecap:round;stroke-linejoin:round;stroke-miterlimit:1.5;"><g><path d="M1.922,5.133c-0.248,-0.026 0.58,-1.742 1.549,-1.645c1.226,0.123 1.814,1.639 1.53,1.635c0,0 -0.984,-0.086 -1.478,-0.084c-0.513,0.002 -1.326,0.124 -1.601,0.094Z" style="fill:#fff;stroke:#fff;stroke-width:0.02px;"/><path d="M2.007,3.125c0.313,-0.179 0.648,-0.28 1.006,-0.303" style="fill:none;stroke:#fff;stroke-width:0.35px;"/><path d="M4.93,3.125c-0.313,-0.179 -0.649,-0.28 -1.006,-0.303" style="fill:none;stroke:#fff;stroke-width:0.35px;"/><path d="M2.078,0.46c0.101,-0.171 0.976,0.417 1.289,0.955" style="fill:none;stroke:#fff;stroke-width:0.35px;stroke-linejoin:miter;"/><path d="M4.372,0.659c-0.176,-0.102 -0.697,0.218 -1.009,0.756" style="fill:none;stroke:#fff;stroke-width:0.35px;stroke-linejoin:miter;"/><path d="M3.391,1.416c-2.284,0.017 -2.411,2.232 -2.87,2.588c-0.419,0.326 -0.248,0.726 -0.011,0.923c0.48,0.4 1.891,1.487 2.892,1.477c1,-0.011 2.624,-1.137 3.112,-1.541c0.231,-0.191 0.15,-0.647 -0.093,-0.859c-0.585,-0.509 -0.632,-2.606 -3.03,-2.588Z" style="fill:none;stroke:#fff;stroke-width:0.35px;stroke-linecap:square;stroke-linejoin:miter;"/><path d="M6.181,1.523c0.628,-0.112 0.99,-0.374 0.646,-0.701c-0.262,-0.249 -0.63,0.227 -0.646,0.701Z" style="fill:#fff;"/><path d="M0.787,2.017c-0.135,-0.624 -0.41,-0.976 -0.724,-0.62c-0.239,0.271 0.25,0.621 0.724,0.62Z" style="fill:#fff;"/><path d="M4.104,3.846c0.076,-0.142 0.933,0.903 0.861,1.101c-0.02,0.053 -0.663,0.036 -0.801,0.02c-0.108,-0.013 0.324,-0.035 0.481,-0.16c0.202,-0.161 -0.55,-0.945 -0.541,-0.961Z"/><path d="M4.633,4.405c0.016,-0.071 0.314,0.414 0.302,0.512c-0.004,0.026 -0.194,0.035 -0.235,0.031c-0.033,-0.004 0.093,-0.026 0.134,-0.091c0.053,-0.083 -0.203,-0.444 -0.201,-0.452Z" style="fill:#fff;"/></g></svg>