<?xml version="1.0" encoding="UTF-8" standalone="no"?><!DOCTYPE svg PUBLIC "-//W3C//DTD SVG 1.1//EN" "http://www.w3.org/Graphics/SVG/1.1/DTD/svg11.dtd"><svg width="100%" height="100%" viewBox="0 0 7 7" version="1.1" xmlns="http://www.w3.org/2000/svg" xmlns:xlink="http://www.w3.org/1999/xlink" xml:space="preserve" xmlns:serif="http://www.serif.com/" style="fill-rule:evenodd;clip-rule:evenodd;stroke-linejoin:round;stroke-miterlimit:2;"><g><path d="M6.951,2.266c-0.001,-0.3 -0.246,-0.544 -0.547,-0.544l-1.157,0c-0.232,0 -0.445,0.127 -0.556,0.331l-0.08,0.148c0.031,0.073 0.048,0.154 0.048,0.238c0,0.135 -0.044,0.26 -0.118,0.361c0.084,0.007 0.163,0.031 0.234,0.069l0.323,-0.596c0.008,-0.015 0.025,-0.023 0.042,-0.018c0.016,0.004 0.028,0.019 0.028,0.036l0,3.848c0,0.153 0.124,0.278 0.277,0.278c0.154,0 0.278,-0.125 0.278,-0.278l0,-2.217l0.12,0l0,2.217c0,0.153 0.124,0.278 0.277,0.278c0.153,0 0.277,-0.125 0.277,-0.278c0,-3.582 -0.005,-1.684 -0.005,-3.869c0,-0.027 0.022,-0.048 0.048,-0.049c0.027,0 0.048,0.021 0.049,0.047l0.009,1.699c0,0.127 0.104,0.23 0.231,0.23l0.001,0c0.128,-0.001 0.231,-0.105 0.23,-0.233l-0.009,-1.698Z" style="fill:#fff;fill-rule:nonzero;"/><path d="M4.884,3.41c-0.001,-0.216 -0.178,-0.393 -0.394,-0.393l-0.896,0c-0.217,0 -0.394,0.177 -0.395,0.393c0,0.068 0,0.01 -0.002,0.328l-0.184,-0.038c0,0 -0.411,-1.133 -0.559,-1.562c-0.108,-0.315 -0.29,-0.474 -0.539,-0.474l-0.809,0c-0.249,0 -0.431,0.159 -0.539,0.474c-0.168,0.489 -0.549,1.531 -0.553,1.541c-0.044,0.121 0.018,0.255 0.139,0.3c0.121,0.044 0.255,-0.018 0.3,-0.139c0.003,-0.009 0.276,-0.758 0.463,-1.287c-0.012,0.103 0.027,-0.113 -0.331,1.738c-0.016,0.08 0.046,0.154 0.127,0.154l0.178,0l0,1.693c0,0.154 0.125,0.28 0.28,0.28c0.155,0 0.28,-0.126 0.28,-0.28l0,-1.693l0.121,0l0,1.693c0,0.154 0.125,0.28 0.28,0.28c0.155,0 0.28,-0.126 0.28,-0.28l0,-1.693l0.178,0c0.081,0 0.143,-0.074 0.127,-0.154c-0.358,-1.851 -0.319,-1.635 -0.331,-1.738c0.187,0.529 0.46,1.278 0.464,1.287c0.033,0.091 0.118,0.149 0.21,0.153c0.187,0.038 0.324,0.066 0.55,0.113c0.103,0.021 0.2,-0.058 0.201,-0.163c0,0 0.002,-0.468 0.003,-0.524c0,-0.018 0.014,-0.032 0.032,-0.032c0.018,0 0.032,0.014 0.032,0.032c0,0.45 0,2.61 0,2.797c0,0.111 0.09,0.201 0.2,0.201c0.111,0 0.201,-0.09 0.201,-0.201l0,-1.6l0.086,0l0,1.6c0,0.111 0.09,0.201 0.2,0.201c0.111,0 0.2,-0.09 0.2,-0.201c0,-1.15 -0.002,-2.503 -0.003,-2.804c0,-0.019 0.015,-0.035 0.035,-0.035c0.019,0 0.035,0.016 0.035,0.035l0.006,1.226c0,0.091 0.075,0.166 0.167,0.166c0,0 0,0 0,0c0.092,-0.001 0.167,-0.076 0.166,-0.168c0,0 0,0 0,0c-0.001,-0.255 -0.005,-0.997 -0.006,-1.226Z" style="fill:#fff;fill-rule:nonzero;"/><circle cx="5.786" cy="1.034" r="0.479" style="fill:#fff;"/><circle cx="4.043" cy="2.439" r="0.435" style="fill:#fff;"/><path d="M1.511,0.542c-0.268,0 -0.484,0.217 -0.484,0.484c0,0.266 0.216,0.484 0.484,0.484c0.267,0 0.483,-0.218 0.483,-0.484c0,-0.266 -0.216,-0.484 -0.483,-0.484Z" style="fill:#fff;fill-rule:nonzero;"/></g></svg>