<?xml version="1.0" encoding="UTF-8" standalone="no"?><!DOCTYPE svg PUBLIC "-//W3C//DTD SVG 1.1//EN" "http://www.w3.org/Graphics/SVG/1.1/DTD/svg11.dtd"><svg width="100%" height="100%" viewBox="0 0 130 130" version="1.1" xmlns="http://www.w3.org/2000/svg" xmlns:xlink="http://www.w3.org/1999/xlink" xml:space="preserve" xmlns:serif="http://www.serif.com/" style="fill-rule:evenodd;clip-rule:evenodd;stroke-linejoin:round;stroke-miterlimit:2;"><g><clipPath id="_clip1"><rect id="Mission" x="0.765" y="0.765" width="129.235" height="129.235"/></clipPath><g clip-path="url(#_clip1)"><g><path d="M54.613,130c-29.692,0 -53.848,-24.156 -53.848,-53.848c0,-29.692 24.156,-53.848 53.848,-53.848c29.692,0 53.848,24.156 53.848,53.848c0,29.692 -24.156,53.848 -53.848,53.848Zm0,-99.619c-25.239,0 -45.771,20.532 -45.771,45.771c0,25.239 20.532,45.771 45.771,45.771c25.238,0 45.771,-20.532 45.771,-45.771c0,-25.239 -20.533,-45.771 -45.771,-45.771Z" style="fill:#fff;fill-rule:nonzero;"/><path d="M54.613,111.153c-19.299,0 -35.001,-15.702 -35.001,-35.001c0,-19.299 15.702,-35.001 35.001,-35.001c19.299,0 35.001,15.702 35.001,35.001c0,19.299 -15.702,35.001 -35.001,35.001Zm0,-61.925c-14.846,0 -26.924,12.078 -26.924,26.924c0,14.846 12.078,26.924 26.924,26.924c14.846,0 26.924,-12.078 26.924,-26.924c0,-14.846 -12.078,-26.924 -26.924,-26.924Z" style="fill:#fff;fill-rule:nonzero;"/><path d="M54.613,92.306c-8.907,0 -16.155,-7.248 -16.155,-16.154c0,-8.907 7.248,-16.154 16.155,-16.154c8.906,0 16.154,7.247 16.154,16.154c0,8.906 -7.248,16.154 -16.154,16.154Zm0,-24.231c-4.453,0 -8.077,3.624 -8.077,8.077c0,4.453 3.624,8.077 8.077,8.077c4.453,0 8.077,-3.624 8.077,-8.077c0,-4.453 -3.624,-8.077 -8.077,-8.077Z" style="fill:#fff;fill-rule:nonzero;"/><path d="M54.613,80.191c-1.034,0 -2.068,-0.394 -2.854,-1.185c-1.578,-1.578 -1.578,-4.136 0,-5.713l40.386,-40.386c1.578,-1.578 4.135,-1.578 5.713,0c1.578,1.577 1.578,4.135 0,5.713l-40.386,40.386c-0.791,0.791 -1.825,1.185 -2.859,1.185Z" style="fill:#fff;fill-rule:nonzero;"/><path d="M109.807,38.458l-13.462,0c-2.229,0 -4.039,-1.809 -4.039,-4.038l0,-13.462c0,-1.072 0.426,-2.1 1.185,-2.854l16.154,-16.155c1.158,-1.157 2.897,-1.497 4.4,-0.877c1.508,0.624 2.493,2.1 2.493,3.731l0,9.424l9.423,0c1.632,0 3.107,0.985 3.732,2.493c0.625,1.508 0.28,3.247 -0.878,4.399l-16.154,16.155c-0.754,0.759 -1.782,1.184 -2.854,1.184Zm-9.423,-8.077l7.748,0l8.078,-8.077l-3.711,0c-2.229,0 -4.038,-1.809 -4.038,-4.039l0,-3.71l-8.077,8.077l0,7.749Z" style="fill:#fff;fill-rule:nonzero;"/></g></g><path d="M113.846,3.188c1.077,1.346 -0.808,9.803 1.615,12.116c2.423,2.312 11.712,0.818 12.924,1.76c1.211,0.943 -3.372,3.724 -5.654,3.894c-2.558,0.189 -7.405,-0.466 -9.693,-2.755c-2.289,-2.289 -4.173,-8.474 -4.039,-10.977c0.113,-2.099 3.77,-5.384 4.847,-4.038Z"/><path d="M112.808,5.323c0.317,0.381 -0.11,2.801 0.04,4.189c0.173,1.601 1.178,5.254 0.998,5.412c-0.181,0.157 -1.597,-3.184 -2.081,-4.467c-0.391,-1.039 -0.994,-2.375 -0.82,-3.231c0.174,-0.855 1.546,-2.284 1.863,-1.903Z" style="fill:#fff;"/></g></svg>