<?xml version="1.0" encoding="UTF-8" standalone="no"?><!DOCTYPE svg PUBLIC "-//W3C//DTD SVG 1.1//EN" "http://www.w3.org/Graphics/SVG/1.1/DTD/svg11.dtd"><svg width="100%" height="100%" viewBox="0 0 29 29" version="1.1" xmlns="http://www.w3.org/2000/svg" xmlns:xlink="http://www.w3.org/1999/xlink" xml:space="preserve" xmlns:serif="http://www.serif.com/" style="fill-rule:evenodd;clip-rule:evenodd;stroke-linecap:square;stroke-miterlimit:1.5;"><g id="Pulsion"><path d="M6.294,28.8l0,-6.022c0,0 -3.182,-4.268 -4.243,-8.698c-0.727,-3.034 -0.342,-5.967 0.979,-8.364c2.543,-4.616 7.283,-5.937 11.097,-5.687c2.218,0.145 5.082,0.803 6.855,2.342c2.672,2.319 2.296,6.242 3.59,7.694c1.384,1.554 3.155,4.015 3.264,5.353c0.102,1.257 -1.912,1.705 -2.611,2.676c-0.436,1.227 0.23,3.319 0,4.684c-0.544,1.115 -2.176,1.673 -3.264,2.007c-0.834,0.257 -3.264,0 -3.264,0l0,4.015l-12.403,0Z" style="fill:#fff;stroke:#fff;stroke-width:0.17px;"/><path id="surface1" d="M15.192,11.541c0,-1.084 -0.422,-2.103 -1.189,-2.869c-1.171,-1.172 -1.563,-2.874 -1.022,-4.441c0.037,-0.106 0.02,-0.223 -0.045,-0.314c-0.065,-0.092 -0.17,-0.146 -0.282,-0.146l-0.036,0c-1.419,0 -2.573,1.155 -2.573,2.574l0,2.227c0,0.218 -0.178,0.396 -0.396,0.396c-0.218,0 -0.396,-0.178 -0.396,-0.396c0,-0.131 -0.074,-0.251 -0.191,-0.31c-0.118,-0.059 -0.258,-0.046 -0.364,0.033c-0.492,0.37 -0.901,0.855 -1.18,1.403c-0.294,0.574 -0.443,1.194 -0.443,1.844c0,2.218 1.79,4.026 4.001,4.057c0.018,0.001 0.037,0.001 0.056,0.001l0.002,0c0,0 0,0 0,0c0.019,0 0.038,0 0.058,-0.001c2.211,-0.031 4,-1.839 4,-4.058Zm-2.944,2.904c-0.298,0.298 -0.693,0.462 -1.114,0.462l0,0c-0.421,0 -0.817,-0.164 -1.114,-0.462c-0.298,-0.297 -0.462,-0.693 -0.462,-1.113c0,-0.421 0.164,-0.817 0.462,-1.114l1.114,-1.114l1.114,1.114c0.614,0.614 0.614,1.613 0,2.227Z" style="fill-rule:nonzero;"/></g></svg>