<?xml version="1.0" encoding="UTF-8" standalone="no"?><!DOCTYPE svg PUBLIC "-//W3C//DTD SVG 1.1//EN" "http://www.w3.org/Graphics/SVG/1.1/DTD/svg11.dtd"><svg width="100%" height="100%" viewBox="0 0 16 16" version="1.1" xmlns="http://www.w3.org/2000/svg" xmlns:xlink="http://www.w3.org/1999/xlink" xml:space="preserve" xmlns:serif="http://www.serif.com/" style="fill-rule:evenodd;clip-rule:evenodd;stroke-linejoin:round;stroke-miterlimit:2;"><g><path d="M13.909,3.507l-0.225,0.072l-1.195,0.106l-0.337,0.539l-0.245,-0.078l-0.951,-0.857l-0.138,-0.446l-0.185,-0.476l-0.597,-0.536l-0.706,-0.138l-0.016,0.323l0.691,0.674l0.338,0.398l-0.38,0.199l-0.309,-0.091l-0.464,-0.194l0.016,-0.373l-0.608,-0.251l-0.202,0.879l-0.613,0.139l0.06,0.491l0.799,0.153l0.138,-0.783l0.659,0.097l0.307,0.18l0.491,0l0.337,0.674l0.892,0.905l-0.065,0.352l-0.72,-0.092l-1.243,0.628l-0.895,1.074l-0.116,0.475l-0.322,0l-0.598,-0.276l-0.582,0.276l0.145,0.614l0.253,-0.292l0.445,-0.014l-0.031,0.551l0.368,0.108l0.368,0.413l0.602,-0.169l0.686,0.109l0.797,0.214l0.398,0.047l0.676,0.766l1.302,0.766l-0.842,1.61l-0.89,0.414l-0.337,0.92l-1.287,0.859l-0.137,0.495c3.29,-0.792 5.738,-3.748 5.738,-7.281c-0.001,-1.544 -0.469,-2.98 -1.27,-4.173Z" style="fill:#fff;fill-rule:nonzero;"/><path d="M8.543,11.599l-0.546,-1.013l0.501,-1.044l-0.501,-0.15l-0.563,-0.565l-1.247,-0.28l-0.414,-0.866l0,0.514l-0.183,0l-1.074,-1.457l0,-1.197l-0.788,-1.281l-1.251,0.223l-0.842,0l-0.424,-0.278l0.541,-0.428l-0.54,0.124c-0.65,1.111 -1.029,2.399 -1.029,3.779c0,4.141 3.356,7.499 7.497,7.499c0.319,0 0.632,-0.028 0.941,-0.065l-0.078,-0.909c0,0 0.344,-1.349 0.344,-1.395c0,-0.046 -0.344,-1.211 -0.344,-1.211Z" style="fill:#fff;fill-rule:nonzero;"/><path d="M2.969,2.599l1.332,-0.186l0.614,-0.336l0.691,0.199l1.103,-0.061l0.379,-0.595l0.551,0.091l1.339,-0.126l0.369,-0.406l0.52,-0.348l0.737,0.111l0.268,-0.041c-0.97,-0.456 -2.049,-0.72 -3.192,-0.72c-2.327,0 -4.408,1.061 -5.782,2.726l0.003,0l1.068,-0.308Zm5.028,-1.672l0.766,-0.422l0.491,0.284l-0.711,0.542l-0.68,0.068l-0.306,-0.198l0.44,-0.274Zm-2.268,0.061l0.338,0.141l0.442,-0.141l0.241,0.418l-1.021,0.268l-0.491,-0.287c-0.001,0 0.48,-0.31 0.491,-0.399Z" style="fill:#fff;fill-rule:nonzero;"/></g></svg>