<?xml version="1.0" encoding="UTF-8" standalone="no"?><!DOCTYPE svg PUBLIC "-//W3C//DTD SVG 1.1//EN" "http://www.w3.org/Graphics/SVG/1.1/DTD/svg11.dtd"><svg width="100%" height="100%" viewBox="0 0 130 130" version="1.1" xmlns="http://www.w3.org/2000/svg" xmlns:xlink="http://www.w3.org/1999/xlink" xml:space="preserve" xmlns:serif="http://www.serif.com/" style="fill-rule:evenodd;clip-rule:evenodd;stroke-linejoin:round;stroke-miterlimit:2;"><clipPath id="_clip1"><rect id="knife" x="10.5" y="10.214" width="109.286" height="109.286"/></clipPath><g clip-path="url(#_clip1)"><g><path d="M12.822,100.164c-1.661,1.66 -1.661,4.354 0,6.015l12.077,12.075c1.66,1.662 4.352,1.662 6.014,0l6.89,-6.888l-18.09,-18.089l-6.891,6.887Z" style="fill:#fff;fill-rule:nonzero;"/><path d="M115.928,11.477c-0.725,-1.554 -2.878,-1.708 -3.813,-0.27c-1.362,2.094 -2.999,4.123 -4.895,6.019c-6.184,6.184 -13.762,9.592 -20.46,9.829c-0.552,0.019 -1.075,0.246 -1.466,0.637l-37.02,37.022l21.055,21.055l40.658,-40.658c5.813,-5.813 8.72,-13.435 8.722,-21.055c-0.002,-4.303 -0.928,-8.604 -2.781,-12.579Z" style="fill:#fff;fill-rule:nonzero;"/><path d="M33.95,59.669c-1.281,-1.281 -3.358,-1.281 -4.64,0c-1.281,1.281 -1.281,3.358 0,4.639l9.687,9.687l0,0.001l-14.645,14.642l18.091,18.09l5.177,-5.177c2.743,-2.601 5.934,-4.681 9.42,-6.139l2.377,-0.996l0,0l7.742,7.742c0.64,0.641 1.48,0.961 2.319,0.961c0.84,0 1.679,-0.321 2.32,-0.961c1.281,-1.281 1.281,-3.358 0,-4.64l-37.848,-37.849Z" style="fill:#fff;fill-rule:nonzero;"/></g></g></svg>