<?xml version="1.0" encoding="UTF-8" standalone="no"?><!DOCTYPE svg PUBLIC "-//W3C//DTD SVG 1.1//EN" "http://www.w3.org/Graphics/SVG/1.1/DTD/svg11.dtd"><svg width="100%" height="100%" viewBox="0 0 150 150" version="1.1" xmlns="http://www.w3.org/2000/svg" xmlns:xlink="http://www.w3.org/1999/xlink" xml:space="preserve" xmlns:serif="http://www.serif.com/" style="fill-rule:evenodd;clip-rule:evenodd;stroke-linejoin:round;stroke-miterlimit:2;"><g><g><path d="M6.636,41.386l0.367,0.084l0.366,0.086l0.366,0.087l0.365,0.089l0.366,0.089l0.365,0.091l0.366,0.092l0.364,0.094l0.365,0.095l0.365,0.096l0.364,0.097l0.364,0.099l0.363,0.1l0.364,0.101l0.363,0.102l0.363,0.104l0.362,0.105l0.362,0.106l0.362,0.107l0.362,0.109l0.361,0.11l0.361,0.111l0.361,0.112l0.36,0.113l0.36,0.115l0.359,0.116l0.359,0.116l0.359,0.119l0.359,0.119l0.358,0.12l0.357,0.122l0.357,0.122l0.357,0.124l0.356,0.125l0.356,0.126l0.356,0.127l0.355,0.129l0.354,0.129l0.354,0.131l0.354,0.131l0.353,0.133l0.353,0.134l0.352,0.135l0.351,0.136l0.352,0.137l0.35,0.138l0.35,0.139l0.35,0.14l0.349,0.141l0.348,0.143l0.348,0.143l0.348,0.144l0.346,0.146l0.347,0.146l0.345,0.147l0.345,0.149l0.344,0.149l0.344,0.151l0.343,0.151l0.343,0.152l0.342,0.154l0.341,0.154l0.341,0.155l0.34,0.157l0.339,0.157l0.339,0.158l0.338,0.159l0.337,0.16l0.336,0.161l0.336,0.162l0.335,0.163l0.335,0.163l0.333,0.165l0.333,0.166l0.333,0.166l0.331,0.167l0.331,0.169l0.33,0.169l0.329,0.17l0.328,0.17l0.328,0.172l0.326,0.173l0.326,0.173l0.326,0.175l0.324,0.175l0.323,0.176l0.323,0.176l0.322,0.178l0.321,0.179l0.32,0.179l0.319,0.18l0.318,0.181l0.318,0.182l0.317,0.182l0.315,0.183l0.315,0.185l0.314,0.184l0.313,0.186l0.312,0.187l0.311,0.187l0.31,0.188l0.309,0.188l0.308,0.19l0.307,0.19l0.307,0.191l0.305,0.192l0.304,0.192l0.303,0.194l0.303,0.193l0.301,0.195l0.3,0.195l0.299,0.196l0.298,0.197l0.297,0.198l0.296,0.198l0.295,0.199l0.294,0.199l0.293,0.2l0.292,0.201l0.29,0.202l0.29,0.202l0.288,0.203l0.288,0.203l0.286,0.204l0.285,0.205l0.284,0.206l0.282,0.206l0.282,0.207l0.28,0.207l0.279,0.208l0.278,0.209l0.277,0.209l0.276,0.21l0.274,0.21l0.274,0.211l0.271,0.212l0.271,0.212l0.27,0.213l0.268,0.213l0.267,0.214l0.266,0.215l0.264,0.215l0.263,0.216l0.262,0.216l0.261,0.217l0.259,0.217l0.258,0.218l0.257,0.219l0.255,0.219l0.254,0.22l0.253,0.22l0.251,0.22l0.25,0.222l0.249,0.221l0.247,0.223l0.246,0.222l0.244,0.224l0.243,0.224l0.242,0.224l0.24,0.225l0.239,0.225l0.237,0.226l0.236,0.226l0.235,0.227l0.233,0.227l0.231,0.228l0.23,0.229l0.229,0.228l0.227,0.23l0.226,0.229l0.224,0.231l0.222,0.23l0.221,0.231l0.22,0.232l0.218,0.232l0.216,0.233l0.215,0.233l0.214,0.233l0.211,0.234l0.21,0.234l0.209,0.235l0.207,0.235l0.205,0.236l0.204,0.236l0.202,0.237l0.201,0.237l0.198,0.237l0.197,0.238l0.196,0.239l0.194,0.238l0.192,0.24l0.19,0.239l0.189,0.24l0.187,0.241l0.185,0.241l0.184,0.241l0.182,0.242l0.18,0.242l0.178,0.242l0.177,0.243l0.174,0.244l0.173,0.244l0.171,0.244l0.17,0.245l0.167,0.245l0.166,0.245l0.164,0.246l0.162,0.246l0.16,0.247l0.158,0.247l0.156,0.248l0.155,0.248l0.152,0.248l0.151,0.249l0.148,0.249l0.147,0.25l0.145,0.25l0.142,0.25l0.141,0.251l0.139,0.252l0.137,0.251l0.134,0.252l0.133,0.253l0.13,0.253l0.129,0.253l0.126,0.254l0.125,0.254l0.122,0.255l0.12,0.255l0.118,0.255l0.116,0.256l0.113,0.256l0.112,0.256l0.109,0.257l0.107,0.258l0.105,0.258l0.102,0.258l0.1,0.259l0.098,0.259l0.096,0.259l0.093,0.26l0.091,0.26l0.089,0.261l0.086,0.261l0.083,0.261l0.082,0.262l0.079,0.262l0.076,0.262l0.074,0.263l0.071,0.264l0.069,0.263l0.066,0.264l0.064,0.264l0.061,0.265l0.055,0.249l0.056,0.257l0.053,0.239l0.054,0.238l0.055,0.236l0.056,0.235l0.056,0.234l0.057,0.233l0.057,0.231l0.059,0.229l0.059,0.229l0.06,0.227l0.06,0.225l0.062,0.225l0.062,0.223l0.062,0.221l0.064,0.221l0.064,0.218l0.065,0.218l0.065,0.216l0.066,0.215l0.067,0.214l0.068,0.212l0.068,0.211l0.069,0.21l0.069,0.209l0.07,0.207l0.071,0.206l0.071,0.204l0.073,0.203l0.072,0.202l0.074,0.201l0.074,0.199l0.074,0.198l0.075,0.197l0.076,0.196l0.077,0.194l0.077,0.193l0.077,0.192l0.079,0.19l0.078,0.19l0.08,0.188l0.08,0.186l0.08,0.186l0.082,0.184l0.081,0.183l0.083,0.182l0.083,0.18l0.083,0.18l0.084,0.178l0.085,0.177l0.085,0.176l0.085,0.174l0.086,0.173l0.087,0.172l0.087,0.171l0.088,0.17l0.089,0.169l0.088,0.167l0.09,0.166l0.09,0.165l0.09,0.164l0.091,0.162l0.091,0.162l0.092,0.16l0.093,0.159l0.092,0.158l0.094,0.157l0.094,0.156l0.094,0.155l0.095,0.153l0.095,0.152l0.096,0.152l0.096,0.15l0.097,0.149l0.097,0.148l0.098,0.146l0.098,0.146l0.098,0.145l0.099,0.143l0.1,0.142l0.1,0.142l0.1,0.14l0.101,0.139l0.101,0.138l0.102,0.137l0.102,0.136l0.102,0.135l0.103,0.134l0.103,0.133l0.104,0.131l0.104,0.131l0.105,0.13l0.105,0.129l0.105,0.127l0.106,0.127l0.107,0.125l0.106,0.125l0.107,0.124l0.108,0.122l0.107,0.122l0.109,0.12l0.108,0.12l0.109,0.119l0.11,0.117l0.11,0.117l0.11,0.116l0.11,0.114l0.111,0.114l0.112,0.113l0.111,0.112l0.112,0.111l0.113,0.11l0.113,0.109l0.113,0.108l0.114,0.107l0.114,0.106l0.114,0.106l0.115,0.104l0.115,0.104l0.115,0.102l0.116,0.102l0.116,0.101l0.116,0.099l0.117,0.099l0.118,0.098l0.117,0.098l0.118,0.096l0.118,0.095l0.119,0.095l0.119,0.094l0.119,0.092l0.12,0.092l0.12,0.091l0.12,0.09l0.121,0.09l0.121,0.088l0.122,0.088l0.121,0.087l0.122,0.086l0.123,0.085l0.123,0.084l0.123,0.083l0.123,0.083l0.124,0.082l0.124,0.081l0.124,0.08l0.125,0.079l0.125,0.079l0.126,0.078l0.126,0.076l0.126,0.076l0.126,0.076l0.127,0.074l0.127,0.074l0.128,0.073l0.127,0.072l0.128,0.071l0.129,0.071l0.128,0.069l0.129,0.069l0.13,0.068l0.129,0.068l0.13,0.066l0.131,0.066l0.13,0.065l0.131,0.065l0.132,0.063l0.131,0.063l0.132,0.062l0.132,0.061l0.133,0.06l0.132,0.06l0.134,0.059l0.133,0.058l0.134,0.058l0.134,0.056l0.134,0.056l0.134,0.055l0.135,0.055l0.136,0.053l0.135,0.053l0.136,0.053l0.136,0.051l0.136,0.051l0.137,0.05l0.137,0.049l0.137,0.049l0.137,0.047l0.138,0.047l0.138,0.047l0.139,0.045l0.138,0.045l0.139,0.044l0.139,0.044l0.14,0.043l0.14,0.042l0.14,0.041l0.14,0.04l0.14,0.04l0.141,0.039l0.141,0.039l0.141,0.037l0.142,0.037l0.141,0.037l0.143,0.035l0.142,0.035l0.142,0.034l0.143,0.034l0.143,0.032l0.143,0.032l0.144,0.032l0.143,0.03l0.144,0.03l0.145,0.03l0.144,0.028l0.144,0.028l0.145,0.027l0.146,0.026l0.145,0.026l0.145,0.025l0.146,0.025l0.146,0.023l0.146,0.023l0.147,0.023l0.146,0.021l0.147,0.021l0.147,0.02l0.147,0.02l0.147,0.019l0.147,0.018l0.148,0.018l0.148,0.016l0.148,0.017l0.148,0.015l0.149,0.015l0.148,0.014l0.149,0.014l0.149,0.012l0.149,0.012l0.149,0.012l0.15,0.011l0.149,0.01l0.15,0.009l0.15,0.009l0.149,0.008l0.151,0.008l0.15,0.006l0.15,0.007l0.151,0.005l0.15,0.005l0.151,0.004l0.146,0.003l0.307,0.006l0.302,0.002l0.303,0l0.304,-0.003l0.304,-0.005l0.303,-0.008l0.305,-0.01l0.304,-0.013l0.305,-0.016l0.305,-0.018l0.306,-0.02l0.305,-0.023l0.306,-0.026l0.305,-0.028l0.306,-0.03l0.306,-0.033l0.306,-0.035l0.306,-0.038l0.305,-0.04l0.306,-0.043l0.306,-0.045l0.305,-0.047l0.306,-0.049l0.305,-0.052l0.305,-0.055l0.305,-0.056l0.304,-0.059l0.304,-0.062l0.304,-0.063l0.304,-0.066l0.303,-0.068l0.303,-0.07l0.302,-0.072l0.301,-0.075l0.302,-0.077l0.3,-0.079l0.301,-0.081l0.299,-0.083l0.299,-0.085l0.298,-0.088l0.298,-0.089l0.297,-0.092l0.296,-0.094l0.295,-0.095l0.294,-0.098l0.294,-0.1l0.293,-0.101l0.292,-0.104l0.291,-0.106l0.29,-0.107l0.289,-0.11l0.288,-0.111l0.287,-0.113l0.285,-0.115l0.285,-0.117l0.284,-0.119l0.282,-0.12l0.281,-0.123l0.28,-0.124l0.279,-0.126l0.277,-0.127l0.276,-0.129l0.275,-0.131l0.273,-0.133l0.272,-0.134l0.271,-0.136l0.269,-0.137l0.267,-0.139l0.266,-0.141l0.264,-0.142l0.263,-0.144l0.261,-0.145l0.26,-0.147l0.258,-0.148l0.256,-0.149l0.254,-0.151l0.253,-0.152l0.251,-0.154l0.249,-0.155l0.247,-0.156l0.245,-0.158l0.243,-0.159l0.242,-0.16l0.239,-0.161l0.238,-0.163l0.235,-0.164l0.233,-0.165l0.231,-0.166l0.23,-0.167l0.226,-0.168l0.225,-0.169l0.223,-0.17l0.22,-0.172l0.218,-0.172l0.216,-0.173l0.214,-0.174l0.211,-0.175l0.208,-0.176l0.207,-0.177l0.204,-0.177l0.201,-0.179l0.199,-0.179l0.197,-0.18l0.194,-0.18l0.191,-0.181l0.189,-0.182l0.187,-0.183l0.183,-0.183l0.181,-0.183l0.179,-0.184l0.175,-0.185l0.173,-0.185l0.17,-0.185l0.168,-0.186l0.164,-0.186l0.162,-0.187l0.159,-0.187l0.156,-0.187l0.154,-0.187l0.15,-0.188l0.148,-0.188l0.144,-0.188l0.142,-0.187l0.139,-0.189l0.135,-0.188l0.137,-0.193l0.061,-0.089l0.065,-0.094l0.064,-0.094l0.063,-0.094l0.062,-0.094l0.061,-0.094l0.061,-0.094l2.676,-4.189l8.169,5.218l-2.691,4.212l-0.09,0.139l-0.091,0.139l-0.091,0.138l-0.092,0.137l-0.093,0.138l-0.094,0.137l-0.099,0.142l-0.188,0.266l-0.195,0.27l-0.198,0.269l-0.201,0.267l-0.205,0.266l-0.207,0.263l-0.21,0.263l-0.214,0.26l-0.216,0.259l-0.219,0.258l-0.222,0.255l-0.224,0.255l-0.228,0.252l-0.23,0.251l-0.233,0.249l-0.236,0.248l-0.238,0.246l-0.241,0.244l-0.244,0.243l-0.246,0.241l-0.248,0.24l-0.252,0.237l-0.253,0.236l-0.257,0.235l-0.258,0.232l-0.261,0.231l-0.264,0.23l-0.266,0.227l-0.268,0.226l-0.27,0.225l-0.273,0.222l-0.275,0.221l-0.277,0.219l-0.28,0.217l-0.282,0.216l-0.283,0.213l-0.286,0.212l-0.289,0.211l-0.29,0.208l-0.292,0.206l-0.294,0.205l-0.297,0.203l-0.298,0.201l-0.3,0.2l-0.303,0.197l-0.304,0.196l-0.306,0.193l-0.308,0.192l-0.31,0.19l-0.312,0.188l-0.313,0.186l-0.315,0.184l-0.318,0.182l-0.319,0.18l-0.32,0.178l-0.322,0.176l-0.324,0.174l-0.326,0.173l-0.327,0.17l-0.329,0.168l-0.33,0.166l-0.332,0.164l-0.334,0.161l-0.335,0.16l-0.337,0.158l-0.338,0.155l-0.339,0.153l-0.341,0.151l-0.343,0.149l-0.343,0.147l-0.345,0.145l-0.347,0.142l-0.348,0.14l-0.349,0.138l-0.35,0.135l-0.352,0.133l-0.353,0.131l-0.354,0.129l-0.355,0.126l-0.356,0.124l-0.358,0.121l-0.359,0.119l-0.36,0.117l-0.36,0.114l-0.362,0.111l-0.363,0.11l-0.364,0.106l-0.365,0.105l-0.367,0.101l-0.366,0.1l-0.368,0.096l-0.369,0.094l-0.37,0.092l-0.37,0.088l-0.372,0.086l-0.372,0.084l-0.373,0.081l-0.374,0.078l-0.374,0.075l-0.375,0.073l-0.376,0.07l-0.377,0.067l-0.377,0.064l-0.378,0.061l-0.379,0.059l-0.379,0.056l-0.379,0.052l-0.381,0.05l-0.38,0.047l-0.382,0.044l-0.381,0.041l-0.383,0.038l-0.382,0.035l-0.383,0.032l-0.384,0.029l-0.384,0.026l-0.384,0.023l-0.384,0.019l-0.385,0.016l-0.385,0.014l-0.385,0.01l-0.385,0.006l-0.386,0.004l-0.386,0l-0.386,-0.003l-0.381,-0.007l-0.198,-0.004l-0.193,-0.006l-0.193,-0.006l-0.193,-0.007l-0.193,-0.008l-0.193,-0.008l-0.193,-0.01l-0.194,-0.011l-0.193,-0.011l-0.193,-0.012l-0.193,-0.013l-0.193,-0.014l-0.193,-0.015l-0.193,-0.016l-0.193,-0.016l-0.193,-0.018l-0.193,-0.018l-0.193,-0.019l-0.193,-0.02l-0.193,-0.022l-0.192,-0.021l-0.193,-0.023l-0.193,-0.024l-0.192,-0.025l-0.193,-0.025l-0.192,-0.027l-0.193,-0.027l-0.192,-0.029l-0.193,-0.029l-0.192,-0.03l-0.192,-0.031l-0.192,-0.033l-0.192,-0.033l-0.192,-0.034l-0.191,-0.035l-0.192,-0.035l-0.191,-0.037l-0.192,-0.038l-0.191,-0.039l-0.191,-0.04l-0.191,-0.04l-0.191,-0.042l-0.191,-0.043l-0.191,-0.043l-0.19,-0.045l-0.191,-0.046l-0.19,-0.046l-0.19,-0.048l-0.19,-0.048l-0.189,-0.05l-0.19,-0.051l-0.189,-0.051l-0.189,-0.053l-0.19,-0.053l-0.189,-0.055l-0.188,-0.056l-0.189,-0.056l-0.188,-0.058l-0.188,-0.059l-0.188,-0.059l-0.188,-0.061l-0.187,-0.062l-0.187,-0.063l-0.187,-0.063l-0.187,-0.065l-0.186,-0.066l-0.187,-0.067l-0.186,-0.068l-0.185,-0.07l-0.186,-0.07l-0.185,-0.071l-0.185,-0.072l-0.185,-0.074l-0.184,-0.074l-0.184,-0.075l-0.184,-0.077l-0.184,-0.078l-0.183,-0.078l-0.183,-0.08l-0.183,-0.081l-0.182,-0.082l-0.182,-0.083l-0.182,-0.084l-0.181,-0.086l-0.182,-0.086l-0.18,-0.087l-0.181,-0.089l-0.18,-0.09l-0.179,-0.09l-0.18,-0.092l-0.179,-0.093l-0.178,-0.094l-0.178,-0.095l-0.178,-0.097l-0.178,-0.097l-0.177,-0.099l-0.176,-0.099l-0.176,-0.101l-0.176,-0.102l-0.176,-0.103l-0.175,-0.104l-0.174,-0.106l-0.175,-0.106l-0.173,-0.108l-0.173,-0.108l-0.173,-0.11l-0.173,-0.111l-0.172,-0.112l-0.171,-0.114l-0.171,-0.114l-0.17,-0.116l-0.171,-0.116l-0.169,-0.118l-0.169,-0.119l-0.168,-0.12l-0.168,-0.122l-0.168,-0.122l-0.167,-0.124l-0.166,-0.124l-0.166,-0.126l-0.166,-0.127l-0.165,-0.129l-0.164,-0.129l-0.164,-0.13l-0.163,-0.132l-0.163,-0.133l-0.162,-0.134l-0.162,-0.135l-0.161,-0.136l-0.16,-0.138l-0.16,-0.139l-0.159,-0.139l-0.159,-0.141l-0.158,-0.143l-0.157,-0.143l-0.157,-0.144l-0.156,-0.146l-0.156,-0.147l-0.155,-0.148l-0.154,-0.149l-0.154,-0.15l-0.153,-0.152l-0.152,-0.152l-0.152,-0.154l-0.151,-0.155l-0.151,-0.156l-0.149,-0.157l-0.149,-0.159l-0.149,-0.159l-0.148,-0.161l-0.147,-0.162l-0.146,-0.163l-0.146,-0.165l-0.145,-0.165l-0.144,-0.167l-0.144,-0.167l-0.143,-0.169l-0.142,-0.17l-0.141,-0.172l-0.141,-0.172l-0.14,-0.174l-0.139,-0.174l-0.139,-0.176l-0.138,-0.178l-0.137,-0.178l-0.136,-0.179l-0.136,-0.181l-0.134,-0.181l-0.135,-0.183l-0.133,-0.184l-0.132,-0.186l-0.132,-0.186l-0.131,-0.188l-0.13,-0.188l-0.13,-0.19l-0.128,-0.191l-0.128,-0.193l-0.127,-0.193l-0.127,-0.194l-0.125,-0.196l-0.125,-0.197l-0.124,-0.198l-0.123,-0.199l-0.122,-0.201l-0.122,-0.201l-0.12,-0.203l-0.12,-0.204l-0.119,-0.205l-0.118,-0.206l-0.117,-0.207l-0.117,-0.209l-0.116,-0.209l-0.114,-0.211l-0.114,-0.212l-0.114,-0.213l-0.112,-0.214l-0.111,-0.216l-0.111,-0.216l-0.11,-0.218l-0.109,-0.219l-0.108,-0.22l-0.107,-0.222l-0.106,-0.222l-0.106,-0.224l-0.104,-0.224l-0.104,-0.226l-0.103,-0.227l-0.102,-0.229l-0.101,-0.229l-0.1,-0.231l-0.099,-0.231l-0.099,-0.233l-0.097,-0.234l-0.097,-0.236l-0.096,-0.236l-0.094,-0.238l-0.094,-0.239l-0.093,-0.24l-0.093,-0.241l-0.091,-0.242l-0.09,-0.244l-0.09,-0.244l-0.088,-0.246l-0.088,-0.247l-0.086,-0.248l-0.086,-0.25l-0.085,-0.25l-0.084,-0.252l-0.083,-0.253l-0.082,-0.254l-0.081,-0.255l-0.08,-0.257l-0.08,-0.258l-0.078,-0.258l-0.077,-0.261l-0.077,-0.261l-0.075,-0.262l-0.075,-0.264l-0.074,-0.265l-0.072,-0.266l-0.072,-0.267l-0.071,-0.269l-0.07,-0.269l-0.069,-0.271l-0.067,-0.272l-0.067,-0.273l-0.066,-0.275l-0.065,-0.275l-0.065,-0.277l-0.063,-0.279l-0.062,-0.279l-0.057,-0.264l-0.042,-0.189l-0.04,-0.174l-0.042,-0.175l-0.044,-0.175l-0.046,-0.176l-0.048,-0.176l-0.05,-0.178l-0.052,-0.178l-0.054,-0.178l-0.055,-0.18l-0.058,-0.18l-0.06,-0.18l-0.061,-0.182l-0.064,-0.182l-0.065,-0.182l-0.068,-0.183l-0.069,-0.184l-0.072,-0.185l-0.073,-0.185l-0.076,-0.185l-0.077,-0.186l-0.079,-0.187l-0.082,-0.187l-0.083,-0.188l-0.085,-0.189l-0.087,-0.188l-0.09,-0.19l-0.091,-0.19l-0.093,-0.19l-0.095,-0.191l-0.097,-0.191l-0.099,-0.192l-0.101,-0.192l-0.103,-0.192l-0.105,-0.193l-0.106,-0.194l-0.109,-0.194l-0.111,-0.194l-0.112,-0.194l-0.115,-0.195l-0.116,-0.195l-0.119,-0.196l-0.12,-0.196l-0.122,-0.196l-0.124,-0.196l-0.126,-0.197l-0.128,-0.197l-0.129,-0.198l-0.132,-0.197l-0.134,-0.198l-0.135,-0.198l-0.137,-0.198l-0.139,-0.199l-0.141,-0.198l-0.143,-0.199l-0.144,-0.199l-0.147,-0.199l-0.148,-0.2l-0.15,-0.199l-0.152,-0.2l-0.153,-0.2l-0.156,-0.199l-0.157,-0.2l-0.159,-0.2l-0.161,-0.2l-0.162,-0.201l-0.164,-0.2l-0.166,-0.2l-0.168,-0.2l-0.17,-0.201l-0.171,-0.2l-0.173,-0.201l-0.174,-0.2l-0.176,-0.2l-0.178,-0.201l-0.18,-0.2l-0.181,-0.2l-0.183,-0.201l-0.185,-0.2l-0.186,-0.2l-0.188,-0.2l-0.19,-0.2l-0.191,-0.2l-0.193,-0.2l-0.194,-0.199l-0.196,-0.2l-0.197,-0.199l-0.2,-0.2l-0.2,-0.199l-0.203,-0.199l-0.203,-0.199l-0.206,-0.198l-0.207,-0.199l-0.208,-0.198l-0.21,-0.198l-0.211,-0.198l-0.213,-0.198l-0.215,-0.197l-0.215,-0.197l-0.218,-0.197l-0.218,-0.197l-0.221,-0.196l-0.221,-0.197l-0.224,-0.196l-0.224,-0.195l-0.226,-0.196l-0.227,-0.195l-0.229,-0.194l-0.23,-0.195l-0.232,-0.194l-0.233,-0.194l-0.234,-0.193l-0.236,-0.193l-0.236,-0.193l-0.239,-0.192l-0.239,-0.192l-0.241,-0.192l-0.242,-0.191l-0.244,-0.191l-0.245,-0.191l-0.246,-0.19l-0.247,-0.19l-0.249,-0.189l-0.25,-0.189l-0.251,-0.188l-0.252,-0.188l-0.254,-0.188l-0.254,-0.187l-0.256,-0.186l-0.257,-0.186l-0.259,-0.186l-0.259,-0.185l-0.261,-0.185l-0.262,-0.184l-0.263,-0.184l-0.264,-0.183l-0.265,-0.182l-0.266,-0.183l-0.268,-0.181l-0.268,-0.181l-0.27,-0.181l-0.271,-0.18l-0.272,-0.179l-0.272,-0.179l-0.274,-0.178l-0.275,-0.178l-0.276,-0.177l-0.277,-0.176l-0.278,-0.176l-0.279,-0.175l-0.281,-0.175l-0.281,-0.174l-0.282,-0.174l-0.283,-0.172l-0.284,-0.172l-0.284,-0.172l-0.286,-0.171l-0.287,-0.17l-0.288,-0.169l-0.288,-0.169l-0.29,-0.168l-0.29,-0.168l-0.292,-0.166l-0.292,-0.167l-0.293,-0.165l-0.294,-0.164l-0.295,-0.164l-0.295,-0.164l-0.297,-0.162l-0.297,-0.162l-0.298,-0.161l-0.299,-0.16l-0.299,-0.159l-0.301,-0.159l-0.301,-0.158l-0.302,-0.157l-0.303,-0.156l-0.303,-0.156l-0.305,-0.155l-0.305,-0.154l-0.305,-0.153l-0.307,-0.152l-0.307,-0.152l-0.307,-0.15l-0.309,-0.15l-0.309,-0.149l-0.31,-0.148l-0.31,-0.148l-0.311,-0.146l-0.312,-0.146l-0.312,-0.144l-0.313,-0.144l-0.314,-0.143l-0.314,-0.142l-0.315,-0.141l-0.315,-0.141l-0.316,-0.139l-0.317,-0.138l-0.317,-0.138l-0.317,-0.137l-0.318,-0.135l-0.319,-0.135l-0.319,-0.134l-0.319,-0.133l-0.321,-0.131l-0.32,-0.131l-0.321,-0.13l-0.322,-0.129l-0.322,-0.128l-0.322,-0.127l-0.323,-0.126l-0.323,-0.125l-0.324,-0.124l-0.324,-0.123l-0.325,-0.122l-0.325,-0.121l-0.325,-0.12l-0.326,-0.119l-0.326,-0.118l-0.326,-0.116l-0.327,-0.116l-0.327,-0.115l-0.327,-0.114l-0.328,-0.112l-0.328,-0.112l-0.328,-0.11l-0.329,-0.109l-0.329,-0.109l-0.329,-0.107l-0.329,-0.106l-0.33,-0.105l-0.33,-0.103l-0.33,-0.103l-0.33,-0.102l-0.331,-0.1l-0.33,-0.099l-0.331,-0.099l-0.331,-0.097l-0.332,-0.095l-0.331,-0.095l-0.332,-0.094l-0.331,-0.092l-0.332,-0.091l-0.332,-0.09l-0.332,-0.089l-0.333,-0.088l-0.332,-0.086l-0.332,-0.085l-0.333,-0.084l-0.332,-0.083l-0.333,-0.082l-0.333,-0.08l-0.332,-0.079l-0.333,-0.078l-0.333,-0.077l-5.068,-1.148l2.143,-9.453l5.084,1.152Z" style="fill:#fff;"/><path d="M82.036,20.355l0.457,0.102l0.45,0.102l0.442,0.103l0.434,0.105l0.427,0.106l0.42,0.107l0.413,0.109l0.406,0.11l0.394,0.11l0.201,0.058l0.195,0.056l0.194,0.058l0.191,0.057l0.191,0.058l0.188,0.058l0.187,0.059l0.185,0.059l0.183,0.06l0.182,0.06l0.181,0.061l0.179,0.061l0.177,0.061l0.176,0.062l0.174,0.063l0.173,0.063l0.171,0.064l0.17,0.064l0.168,0.064l0.167,0.066l0.165,0.066l0.164,0.066l0.163,0.067l0.161,0.068l0.16,0.069l0.158,0.069l0.157,0.07l0.156,0.071l0.155,0.071l0.153,0.072l0.152,0.073l0.151,0.074l0.149,0.075l0.149,0.076l0.147,0.076l0.145,0.078l0.145,0.078l0.144,0.08l0.142,0.081l0.141,0.081l0.14,0.083l0.139,0.084l0.138,0.086l0.137,0.086l0.135,0.088l0.135,0.089l0.133,0.091l0.132,0.092l0.132,0.093l0.13,0.095l0.129,0.097l0.127,0.098l0.127,0.1l0.126,0.102l0.124,0.103l0.123,0.105l0.122,0.108l0.121,0.109l0.119,0.111l0.118,0.113l0.117,0.116l0.115,0.118l0.114,0.119l0.112,0.123l0.111,0.124l0.109,0.127l0.107,0.129l0.105,0.132l0.104,0.134l0.101,0.136l0.1,0.139l0.097,0.142l0.095,0.144l0.092,0.146l0.09,0.149l0.087,0.151l0.085,0.154l0.081,0.155l0.079,0.159l0.076,0.16l0.072,0.163l0.069,0.164l0.066,0.166l0.062,0.168l0.059,0.17l0.054,0.171l0.052,0.173l0.047,0.174l0.043,0.175l0.04,0.176l0.035,0.176l0.031,0.178l0.028,0.177l0.023,0.178l0.019,0.178l0.016,0.178l0.011,0.177l0.007,0.177l0.004,0.176l0,0.176l-0.004,0.175l-0.008,0.174l-0.011,0.173l-0.015,0.172l-0.018,0.17l-0.021,0.169l-0.024,0.168l-0.028,0.165l-0.031,0.165l-0.033,0.163l-0.037,0.161l-0.039,0.159l-0.041,0.158l-0.044,0.156l-0.047,0.154l-0.048,0.152l-0.051,0.151l-0.053,0.149l-0.055,0.147l-0.057,0.146l-0.059,0.143l-0.061,0.142l-0.062,0.141l-0.064,0.139l-0.066,0.137l-0.067,0.136l-0.068,0.134l-0.07,0.133l-0.072,0.132l-0.073,0.13l-0.074,0.128l-0.075,0.128l-0.077,0.126l-0.078,0.125l-0.079,0.124l-0.08,0.123l-0.082,0.122l-0.082,0.12l-0.083,0.12l-0.085,0.119l-0.086,0.117l-0.086,0.117l-0.088,0.116l-0.089,0.116l-0.089,0.114l-0.091,0.114l-0.091,0.113l-0.093,0.113l-0.093,0.111l-0.095,0.111l-0.095,0.111l-0.096,0.11l-0.098,0.109l-0.098,0.109l-0.099,0.109l-0.105,0.114l-0.197,0.208l-0.206,0.214l-0.21,0.212l-0.213,0.21l-0.217,0.21l-0.221,0.208l-0.224,0.208l-0.227,0.207l-0.231,0.206l-0.235,0.206l-0.238,0.205l-0.242,0.205l-0.245,0.205l-0.248,0.205l-0.252,0.204l-0.256,0.205l-0.259,0.204l-0.262,0.205l-0.266,0.204l-0.269,0.205l-0.273,0.205l-0.276,0.205l-0.279,0.206l-0.283,0.206l-0.286,0.206l-0.289,0.207l-0.293,0.207l-0.296,0.207l-0.299,0.208l-0.302,0.209l-0.306,0.209l-0.309,0.21l-0.312,0.21l-0.315,0.211l-0.318,0.211l-0.321,0.212l-0.324,0.213l-0.327,0.213l-0.331,0.214l-0.333,0.215l-0.336,0.215l-0.339,0.217l-0.342,0.217l-0.345,0.217l-0.348,0.219l-0.352,0.22l-0.707,0.44l-0.719,0.444l-0.731,0.448l-0.74,0.451l-0.75,0.454l-0.76,0.458l-0.769,0.461l-0.779,0.465l-0.787,0.469l-0.795,0.472l-0.805,0.476l-1.629,0.963l-3.347,1.972l-1.711,1.011l-0.863,0.51l-0.869,0.515l-0.873,0.519l-0.878,0.523l-0.882,0.527l-0.886,0.531l-0.889,0.535l-0.893,0.54l-0.895,0.543l-0.898,0.548l-0.9,0.551l-0.902,0.556l-0.905,0.561l-0.451,0.281l-0.452,0.282l-0.453,0.284l-0.453,0.284l-0.453,0.286l-0.453,0.287l-0.453,0.288l-0.453,0.289l-0.453,0.29l-0.453,0.291l-0.453,0.292l-0.453,0.293l-0.452,0.294l-0.453,0.295l-0.452,0.296l-0.452,0.298l-0.451,0.298l-0.451,0.299l-0.451,0.301l-0.45,0.301l-0.449,0.303l-0.449,0.303l-0.449,0.305l-0.447,0.306l-0.447,0.307l-0.447,0.308l-0.445,0.308l-0.445,0.31l-0.444,0.311l-0.443,0.312l-0.442,0.314l-0.441,0.314l-0.44,0.315l-0.439,0.316l-0.438,0.317l-0.436,0.319l-0.436,0.319l-0.434,0.321l-0.433,0.321l-0.432,0.323l-0.43,0.323l-0.429,0.325l-0.427,0.326l-0.426,0.326l-0.424,0.328l-0.423,0.329l-0.421,0.33l-0.42,0.33l-0.418,0.332l-0.416,0.333l-0.414,0.334l-0.413,0.335l-0.41,0.336l-0.409,0.337l-0.407,0.338l-0.405,0.339l-0.403,0.34l-0.397,0.338l-0.056,0.048l-0.051,0.045l-0.05,0.044l-0.05,0.045l-0.048,0.044l-0.047,0.044l-0.046,0.043l-0.046,0.044l-0.044,0.043l-0.044,0.043l-0.042,0.043l-0.042,0.042l-0.041,0.042l-0.04,0.042l-0.039,0.042l-0.038,0.042l-0.037,0.041l-0.037,0.041l-0.035,0.04l-0.035,0.041l-0.034,0.04l-0.034,0.04l-0.032,0.04l-0.032,0.039l-0.031,0.04l-0.03,0.039l-0.03,0.039l-0.029,0.038l-0.028,0.039l-0.028,0.038l-0.027,0.038l-0.026,0.038l-0.026,0.038l-0.025,0.037l-0.024,0.037l-0.024,0.037l-0.023,0.037l-0.023,0.037l-0.022,0.036l-0.022,0.037l-0.021,0.036l-0.021,0.036l-0.02,0.036l-0.019,0.036l-0.02,0.036l-0.018,0.036l-0.019,0.036l-0.017,0.036l-0.018,0.035l-0.017,0.036l-0.016,0.035l-0.017,0.036l-0.015,0.035l-0.016,0.036l-0.015,0.036l-0.01,0.025l-0.033,0.081l-0.026,0.072l-0.026,0.072l-0.024,0.072l-0.023,0.073l-0.022,0.074l-0.02,0.074l-0.02,0.075l-0.018,0.076l-0.017,0.077l-0.016,0.078l-0.015,0.08l-0.014,0.08l-0.012,0.082l-0.012,0.083l-0.01,0.085l-0.009,0.086l-0.008,0.088l-0.006,0.089l-0.006,0.091l-0.004,0.092l-0.003,0.094l-0.001,0.096l0,0.098l0.001,0.099l0.002,0.101l0.004,0.103l0.005,0.105l0.007,0.106l0.008,0.108l0.01,0.11l0.011,0.112l0.012,0.114l0.014,0.115l0.016,0.117l0.016,0.119l0.019,0.12l0.02,0.122l0.021,0.124l0.023,0.125l0.025,0.127l0.026,0.129l0.027,0.13l0.029,0.132l0.031,0.133l0.032,0.135l0.033,0.137l0.035,0.138l0.037,0.139l0.038,0.141l0.039,0.142l0.041,0.143l0.042,0.145l0.043,0.146l0.045,0.148l0.046,0.148l0.047,0.15l0.049,0.152l0.05,0.152l0.051,0.154l0.053,0.155l0.053,0.156l0.055,0.157l0.055,0.154l0.117,0.324l0.119,0.324l0.123,0.328l0.128,0.332l0.131,0.336l0.134,0.34l0.137,0.343l0.14,0.347l0.143,0.351l0.144,0.352l0.297,0.72l0.302,0.73l0.304,0.74l0.154,0.378l0.154,0.378l0.154,0.382l0.153,0.385l0.152,0.388l0.152,0.391l0.15,0.394l0.149,0.397l0.145,0.396l0.074,0.205l0.072,0.202l0.071,0.203l0.071,0.203l0.07,0.205l0.069,0.205l0.068,0.206l0.068,0.207l0.067,0.207l0.066,0.209l0.064,0.209l0.064,0.21l0.063,0.211l0.062,0.212l0.06,0.212l0.06,0.214l0.058,0.214l0.057,0.216l0.055,0.216l0.055,0.217l0.052,0.218l0.052,0.219l0.049,0.22l0.048,0.22l0.047,0.222l0.045,0.223l0.043,0.223l0.041,0.225l0.039,0.225l0.038,0.227l0.035,0.227l0.034,0.229l0.031,0.229l0.029,0.231l0.027,0.231l0.025,0.232l0.022,0.233l0.02,0.235l0.017,0.235l0.015,0.236l0.012,0.237l0.01,0.237l0.006,0.239l0.004,0.24l0.001,0.24l-0.002,0.242l-0.005,0.242l-0.009,0.242l-0.011,0.244l-0.015,0.244l-0.018,0.245l-0.021,0.246l-0.025,0.246l-0.029,0.247l-0.031,0.247l-0.036,0.247l-0.039,0.248l-0.044,0.249l-0.047,0.248l-0.05,0.249l-0.055,0.249l-0.059,0.249l-0.062,0.249l-0.067,0.249l-0.071,0.248l-0.075,0.249l-0.079,0.248l-0.084,0.248l-0.087,0.248l-0.092,0.247l-0.096,0.247l-0.097,0.237l-0.055,0.131l-0.053,0.123l-0.054,0.122l-0.055,0.122l-0.056,0.122l-0.057,0.122l-0.058,0.121l-0.059,0.121l-0.061,0.121l-0.061,0.121l-0.063,0.121l-0.063,0.12l-0.065,0.12l-0.065,0.12l-0.067,0.119l-0.068,0.119l-0.069,0.119l-0.07,0.118l-0.071,0.119l-0.072,0.118l-0.073,0.117l-0.074,0.117l-0.075,0.117l-0.077,0.117l-0.077,0.116l-0.078,0.116l-0.08,0.115l-0.08,0.115l-0.082,0.115l-0.082,0.115l-0.084,0.114l-0.084,0.113l-0.086,0.114l-0.087,0.113l-0.087,0.112l-0.089,0.112l-0.09,0.112l-0.091,0.111l-0.091,0.111l-0.093,0.111l-0.094,0.11l-0.095,0.11l-0.096,0.11l-0.097,0.109l-0.098,0.108l-0.098,0.108l-0.1,0.108l-0.101,0.108l-0.102,0.107l-0.103,0.106l-0.104,0.106l-0.105,0.106l-0.106,0.106l-0.107,0.105l-0.108,0.104l-0.109,0.105l-0.109,0.103l-0.111,0.104l-0.112,0.103l-0.113,0.102l-0.114,0.103l-0.115,0.102l-0.116,0.101l-0.117,0.101l-0.118,0.101l-0.118,0.1l-0.12,0.1l-0.121,0.099l-0.122,0.1l-0.123,0.098l-0.124,0.099l-0.124,0.098l-0.126,0.097l-0.133,0.102l-0.251,0.189l-0.261,0.192l-0.264,0.191l-0.269,0.189l-4.246,2.919l-5.492,-7.987l4.204,-2.89l0.184,-0.13l0.18,-0.129l0.175,-0.129l0.175,-0.132l0.078,-0.06l0.082,-0.064l0.081,-0.063l0.08,-0.064l0.079,-0.063l0.077,-0.063l0.077,-0.063l0.075,-0.063l0.074,-0.062l0.074,-0.063l0.071,-0.062l0.071,-0.062l0.07,-0.062l0.069,-0.062l0.068,-0.061l0.066,-0.062l0.066,-0.061l0.064,-0.061l0.064,-0.061l0.062,-0.06l0.062,-0.061l0.06,-0.06l0.06,-0.06l0.058,-0.06l0.058,-0.059l0.056,-0.06l0.056,-0.059l0.055,-0.059l0.053,-0.058l0.053,-0.059l0.052,-0.059l0.051,-0.058l0.05,-0.057l0.049,-0.058l0.048,-0.058l0.048,-0.057l0.046,-0.057l0.046,-0.057l0.045,-0.057l0.044,-0.057l0.043,-0.056l0.043,-0.056l0.041,-0.056l0.041,-0.056l0.04,-0.055l0.04,-0.056l0.038,-0.055l0.038,-0.055l0.037,-0.055l0.036,-0.054l0.036,-0.055l0.035,-0.054l0.034,-0.054l0.034,-0.054l0.033,-0.054l0.032,-0.053l0.032,-0.054l0.03,-0.053l0.031,-0.054l0.029,-0.053l0.03,-0.053l0.028,-0.053l0.028,-0.052l0.027,-0.053l0.027,-0.053l0.026,-0.052l0.026,-0.052l0.025,-0.053l0.024,-0.052l0.024,-0.052l0.024,-0.052l0.023,-0.052l0.022,-0.052l0.018,-0.043l0.046,-0.113l0.041,-0.104l0.038,-0.103l0.037,-0.104l0.035,-0.104l0.033,-0.104l0.031,-0.105l0.03,-0.104l0.028,-0.106l0.027,-0.105l0.025,-0.106l0.023,-0.107l0.022,-0.107l0.021,-0.108l0.019,-0.108l0.017,-0.11l0.016,-0.11l0.014,-0.111l0.013,-0.112l0.011,-0.113l0.01,-0.114l0.009,-0.115l0.007,-0.116l0.005,-0.117l0.004,-0.118l0.003,-0.119l0.001,-0.121l-0.001,-0.121l-0.002,-0.123l-0.003,-0.124l-0.005,-0.125l-0.006,-0.126l-0.008,-0.128l-0.01,-0.129l-0.011,-0.13l-0.012,-0.131l-0.014,-0.132l-0.016,-0.134l-0.017,-0.135l-0.019,-0.136l-0.02,-0.137l-0.021,-0.138l-0.023,-0.14l-0.025,-0.141l-0.026,-0.142l-0.028,-0.143l-0.029,-0.144l-0.03,-0.145l-0.032,-0.147l-0.033,-0.147l-0.035,-0.149l-0.036,-0.149l-0.038,-0.151l-0.039,-0.151l-0.04,-0.153l-0.042,-0.154l-0.043,-0.154l-0.044,-0.156l-0.046,-0.156l-0.047,-0.158l-0.048,-0.158l-0.049,-0.159l-0.051,-0.16l-0.051,-0.161l-0.053,-0.162l-0.054,-0.162l-0.055,-0.164l-0.056,-0.164l-0.058,-0.165l-0.058,-0.165l-0.059,-0.167l-0.059,-0.163l-0.125,-0.341l-0.127,-0.339l-0.131,-0.342l-0.133,-0.344l-0.137,-0.348l-0.139,-0.349l-0.141,-0.352l-0.144,-0.354l-0.145,-0.355l-0.297,-0.722l-0.301,-0.728l-0.302,-0.734l-0.153,-0.372l-0.152,-0.373l-0.151,-0.376l-0.151,-0.377l-0.15,-0.38l-0.149,-0.381l-0.147,-0.384l-0.145,-0.386l-0.143,-0.388l-0.139,-0.386l-0.071,-0.201l-0.069,-0.196l-0.068,-0.198l-0.067,-0.198l-0.066,-0.199l-0.065,-0.199l-0.065,-0.2l-0.063,-0.201l-0.063,-0.201l-0.061,-0.202l-0.06,-0.203l-0.059,-0.204l-0.058,-0.204l-0.057,-0.206l-0.055,-0.205l-0.054,-0.207l-0.053,-0.208l-0.051,-0.208l-0.05,-0.209l-0.048,-0.21l-0.046,-0.211l-0.045,-0.212l-0.043,-0.213l-0.041,-0.214l-0.04,-0.214l-0.037,-0.216l-0.036,-0.216l-0.033,-0.218l-0.031,-0.218l-0.029,-0.22l-0.027,-0.22l-0.024,-0.221l-0.022,-0.223l-0.019,-0.223l-0.017,-0.224l-0.014,-0.226l-0.012,-0.226l-0.008,-0.227l-0.006,-0.228l-0.002,-0.229l0,-0.23l0.004,-0.231l0.007,-0.232l0.01,-0.232l0.014,-0.234l0.017,-0.234l0.021,-0.234l0.025,-0.236l0.029,-0.236l0.032,-0.236l0.036,-0.237l0.04,-0.237l0.045,-0.238l0.048,-0.237l0.053,-0.238l0.057,-0.238l0.062,-0.238l0.065,-0.237l0.071,-0.238l0.074,-0.237l0.079,-0.236l0.084,-0.236l0.089,-0.235l0.088,-0.225l0.053,-0.127l0.049,-0.116l0.05,-0.117l0.052,-0.116l0.053,-0.116l0.054,-0.116l0.055,-0.115l0.056,-0.115l0.057,-0.114l0.059,-0.115l0.059,-0.114l0.061,-0.113l0.062,-0.114l0.063,-0.113l0.064,-0.112l0.065,-0.112l0.067,-0.112l0.067,-0.111l0.069,-0.111l0.069,-0.11l0.071,-0.11l0.072,-0.11l0.073,-0.109l0.074,-0.108l0.075,-0.108l0.077,-0.108l0.077,-0.107l0.078,-0.107l0.08,-0.106l0.08,-0.105l0.081,-0.105l0.083,-0.105l0.084,-0.104l0.084,-0.103l0.086,-0.103l0.087,-0.102l0.087,-0.102l0.089,-0.101l0.09,-0.101l0.09,-0.1l0.092,-0.1l0.093,-0.099l0.093,-0.098l0.095,-0.098l0.095,-0.098l0.097,-0.096l0.097,-0.097l0.099,-0.095l0.099,-0.095l0.101,-0.095l0.101,-0.094l0.102,-0.094l0.104,-0.093l0.104,-0.092l0.105,-0.092l0.103,-0.088l0.433,-0.369l0.432,-0.365l0.434,-0.363l0.436,-0.362l0.437,-0.361l0.439,-0.359l0.44,-0.357l0.442,-0.356l0.443,-0.354l0.444,-0.353l0.446,-0.352l0.447,-0.35l0.449,-0.349l0.449,-0.347l0.451,-0.346l0.452,-0.344l0.453,-0.343l0.455,-0.342l0.455,-0.34l0.456,-0.339l0.457,-0.337l0.458,-0.336l0.459,-0.335l0.46,-0.333l0.461,-0.332l0.461,-0.33l0.462,-0.329l0.463,-0.328l0.463,-0.327l0.464,-0.325l0.464,-0.323l0.465,-0.323l0.465,-0.321l0.466,-0.319l0.466,-0.319l0.467,-0.317l0.467,-0.315l0.467,-0.315l0.467,-0.313l0.468,-0.312l0.467,-0.31l0.468,-0.309l0.468,-0.308l0.467,-0.306l0.468,-0.306l0.468,-0.303l0.467,-0.303l0.468,-0.301l0.467,-0.3l0.467,-0.299l0.467,-0.298l0.466,-0.296l0.466,-0.295l0.465,-0.294l0.466,-0.292l0.464,-0.291l0.464,-0.29l0.465,-0.29l0.924,-0.572l0.923,-0.569l0.919,-0.563l0.916,-0.559l0.912,-0.553l0.908,-0.549l0.904,-0.544l0.899,-0.539l0.894,-0.534l0.888,-0.529l0.883,-0.524l0.876,-0.52l0.87,-0.515l1.718,-1.014l3.346,-1.972l1.621,-0.958l0.795,-0.471l0.786,-0.466l0.776,-0.462l0.765,-0.457l0.753,-0.452l0.743,-0.447l0.73,-0.442l0.718,-0.438l0.706,-0.432l0.692,-0.428l0.682,-0.423l0.332,-0.208l0.331,-0.208l0.328,-0.207l0.323,-0.206l0.321,-0.204l0.316,-0.203l0.313,-0.201l0.309,-0.2l0.305,-0.199l0.301,-0.198l0.297,-0.196l0.293,-0.195l0.289,-0.193l0.285,-0.192l0.281,-0.191l0.276,-0.189l0.272,-0.187l0.268,-0.187l0.263,-0.184l0.259,-0.183l0.254,-0.182l0.25,-0.18l0.245,-0.178l0.24,-0.177l0.235,-0.175l0.231,-0.174l0.225,-0.171l0.221,-0.17l0.215,-0.168l0.211,-0.166l0.205,-0.164l0.2,-0.162l0.194,-0.16l0.189,-0.158l0.184,-0.156l0.178,-0.153l0.172,-0.152l0.166,-0.148l0.161,-0.146l0.155,-0.144l0.149,-0.141l0.142,-0.138l0.137,-0.135l0.131,-0.131l0.124,-0.129l0.123,-0.131l0.052,-0.055l0.055,-0.06l0.053,-0.06l0.052,-0.058l0.05,-0.058l0.049,-0.056l0.047,-0.055l0.045,-0.054l0.044,-0.053l0.042,-0.052l0.04,-0.051l0.039,-0.049l0.037,-0.049l0.019,-0.025l-0.008,-0.005l-0.057,-0.034l-0.059,-0.036l-0.062,-0.036l-0.065,-0.036l-0.067,-0.038l-0.07,-0.037l-0.072,-0.039l-0.075,-0.039l-0.077,-0.039l-0.08,-0.04l-0.083,-0.041l-0.085,-0.041l-0.087,-0.041l-0.091,-0.042l-0.092,-0.042l-0.095,-0.042l-0.098,-0.042l-0.1,-0.043l-0.103,-0.044l-0.105,-0.043l-0.107,-0.044l-0.11,-0.044l-0.113,-0.044l-0.115,-0.044l-0.117,-0.044l-0.12,-0.045l-0.123,-0.045l-0.125,-0.044l-0.127,-0.045l-0.13,-0.045l-0.132,-0.046l-0.134,-0.045l-0.137,-0.045l-0.14,-0.045l-0.142,-0.046l-0.144,-0.045l-0.146,-0.045l-0.15,-0.046l-0.151,-0.045l-0.154,-0.046l-0.156,-0.045l-0.154,-0.044l-0.329,-0.092l-0.335,-0.091l-0.343,-0.09l-0.353,-0.091l-0.363,-0.09l-0.372,-0.089l-0.382,-0.09l-0.391,-0.089l-0.401,-0.088l-5.162,-1.11l2.038,-9.476l5.189,1.115Z" style="fill:#fff;"/><path d="M127.471,58.702l0.232,0.003l0.232,0.005l0.231,0.008l0.231,0.01l0.231,0.013l0.23,0.015l0.229,0.017l0.229,0.02l0.228,0.022l0.228,0.025l0.227,0.027l0.226,0.029l0.226,0.031l0.225,0.034l0.225,0.036l0.224,0.038l0.223,0.04l0.222,0.043l0.222,0.045l0.221,0.047l0.22,0.049l0.22,0.051l0.218,0.054l0.218,0.055l0.217,0.058l0.216,0.059l0.216,0.062l0.214,0.064l0.214,0.066l0.213,0.067l0.211,0.07l0.211,0.072l0.21,0.074l0.209,0.076l0.209,0.078l0.207,0.079l0.206,0.082l0.205,0.083l0.204,0.086l0.204,0.087l0.202,0.09l0.201,0.091l0.2,0.093l0.199,0.094l0.198,0.097l0.197,0.099l0.195,0.1l0.195,0.102l0.193,0.104l0.192,0.106l0.192,0.107l0.19,0.109l0.188,0.111l0.188,0.113l0.186,0.114l0.185,0.117l0.184,0.117l0.183,0.12l0.181,0.121l0.18,0.123l0.179,0.125l0.178,0.126l0.176,0.128l0.174,0.13l0.174,0.131l0.172,0.133l0.171,0.135l0.169,0.136l0.168,0.138l0.166,0.139l0.165,0.141l0.164,0.143l0.162,0.144l0.161,0.146l0.159,0.148l0.157,0.149l0.156,0.15l0.155,0.152l0.152,0.154l0.152,0.155l0.149,0.157l0.148,0.159l0.147,0.159l0.144,0.162l0.143,0.163l0.142,0.164l0.139,0.166l0.138,0.167l0.136,0.169l0.134,0.171l0.133,0.172l0.13,0.173l0.129,0.175l0.127,0.176l0.125,0.178l0.123,0.179l0.121,0.181l0.119,0.182l0.117,0.184l0.115,0.185l0.113,0.186l0.111,0.188l0.109,0.189l0.107,0.191l0.104,0.192l0.103,0.193l0.1,0.195l0.098,0.196l0.096,0.197l0.093,0.199l0.091,0.2l0.089,0.201l0.086,0.203l0.084,0.204l0.082,0.205l0.079,0.206l0.077,0.208l0.074,0.209l0.071,0.21l0.069,0.211l0.066,0.212l1.44,4.828l-9.289,2.77l-1.422,-4.769l-0.029,-0.093l-0.03,-0.094l-0.032,-0.093l-0.033,-0.094l-0.035,-0.093l-0.036,-0.094l-0.037,-0.093l-0.038,-0.094l-0.04,-0.093l-0.041,-0.093l-0.043,-0.093l-0.043,-0.093l-0.045,-0.093l-0.047,-0.093l-0.047,-0.092l-0.049,-0.093l-0.051,-0.092l-0.051,-0.093l-0.053,-0.091l-0.054,-0.092l-0.056,-0.092l-0.057,-0.091l-0.058,-0.092l-0.06,-0.091l-0.06,-0.09l-0.062,-0.09l-0.064,-0.091l-0.064,-0.089l-0.066,-0.09l-0.067,-0.089l-0.069,-0.089l-0.069,-0.088l-0.071,-0.088l-0.072,-0.088l-0.074,-0.087l-0.074,-0.087l-0.076,-0.086l-0.077,-0.086l-0.078,-0.085l-0.079,-0.085l-0.081,-0.085l-0.081,-0.083l-0.083,-0.084l-0.084,-0.082l-0.085,-0.082l-0.086,-0.082l-0.088,-0.081l-0.088,-0.08l-0.09,-0.08l-0.09,-0.079l-0.092,-0.078l-0.092,-0.078l-0.094,-0.076l-0.094,-0.077l-0.096,-0.075l-0.097,-0.075l-0.097,-0.074l-0.099,-0.073l-0.099,-0.072l-0.101,-0.071l-0.101,-0.071l-0.103,-0.07l-0.103,-0.069l-0.104,-0.068l-0.105,-0.067l-0.105,-0.067l-0.107,-0.065l-0.107,-0.065l-0.108,-0.063l-0.109,-0.063l-0.11,-0.061l-0.11,-0.061l-0.111,-0.06l-0.112,-0.059l-0.113,-0.057l-0.113,-0.057l-0.114,-0.056l-0.115,-0.054l-0.115,-0.054l-0.116,-0.052l-0.116,-0.052l-0.117,-0.05l-0.118,-0.049l-0.118,-0.048l-0.119,-0.047l-0.119,-0.046l-0.12,-0.045l-0.12,-0.044l-0.121,-0.042l-0.121,-0.041l-0.122,-0.04l-0.122,-0.039l-0.122,-0.038l-0.123,-0.037l-0.123,-0.035l-0.124,-0.034l-0.124,-0.033l-0.124,-0.032l-0.125,-0.03l-0.125,-0.029l-0.125,-0.028l-0.126,-0.027l-0.126,-0.025l-0.126,-0.024l-0.126,-0.023l-0.127,-0.022l-0.127,-0.02l-0.127,-0.019l-0.127,-0.018l-0.128,-0.016l-0.127,-0.015l-0.128,-0.014l-0.128,-0.013l-0.128,-0.011l-0.128,-0.009l-0.128,-0.009l-0.129,-0.007l-0.128,-0.006l-0.129,-0.004l-0.128,-0.003l-0.129,-0.002l-0.129,0l-0.129,0.001l-0.129,0.003l-0.129,0.004l-0.129,0.005l-0.143,0.007l-1.407,0.081l-1.531,0.087l-0.801,0.047l-0.824,0.05l-0.847,0.053l-0.868,0.057l-0.891,0.061l-0.45,0.031l-0.456,0.033l-0.461,0.034l-0.464,0.036l-0.47,0.036l-0.473,0.038l-0.477,0.039l-0.481,0.041l-0.485,0.042l-0.488,0.044l-0.492,0.045l-0.495,0.046l-0.497,0.048l-0.501,0.05l-0.504,0.052l-0.506,0.053l-0.508,0.055l-0.511,0.057l-0.513,0.059l-0.515,0.06l-0.517,0.063l-0.519,0.065l-0.52,0.066l-0.522,0.069l-0.523,0.071l-0.524,0.073l-0.525,0.075l-0.525,0.077l-0.527,0.08l-0.527,0.082l-0.527,0.085l-0.527,0.087l-0.528,0.089l-0.527,0.092l-0.527,0.094l-0.526,0.097l-0.526,0.099l-0.525,0.102l-0.528,0.106l-0.258,0.052l-0.262,0.054l-0.261,0.055l-0.26,0.056l-0.261,0.056l-0.26,0.057l-0.259,0.057l-0.26,0.058l-0.259,0.059l-0.258,0.06l-0.258,0.06l-0.257,0.061l-0.257,0.062l-0.256,0.062l-0.256,0.064l-0.255,0.064l-0.255,0.064l-0.254,0.066l-0.253,0.066l-0.253,0.067l-0.252,0.068l-0.251,0.068l-0.251,0.069l-0.25,0.07l-0.249,0.071l-0.248,0.071l-0.248,0.072l-0.246,0.073l-0.246,0.074l-0.245,0.075l-0.244,0.075l-0.243,0.076l-0.243,0.077l-0.241,0.078l-0.24,0.078l-0.24,0.079l-0.238,0.08l-0.238,0.081l-0.236,0.082l-0.235,0.082l-0.234,0.083l-0.233,0.084l-0.232,0.085l-0.231,0.085l-0.229,0.087l-0.229,0.087l-0.227,0.088l-0.226,0.089l-0.225,0.089l-0.223,0.09l-0.222,0.092l-0.221,0.091l-0.22,0.093l-0.218,0.094l-0.216,0.094l-0.216,0.095l-0.214,0.096l-0.212,0.096l-0.211,0.098l-0.21,0.098l-0.208,0.099l-0.206,0.1l-0.205,0.101l-0.204,0.101l-0.202,0.102l-0.2,0.103l-0.199,0.103l-0.197,0.105l-0.195,0.105l-0.194,0.106l-0.192,0.107l-0.191,0.107l-0.188,0.108l-0.187,0.109l-0.185,0.11l-0.184,0.11l-0.182,0.111l-0.179,0.112l-0.178,0.113l-0.177,0.113l-0.174,0.114l-0.172,0.115l-0.171,0.115l-0.169,0.116l-0.167,0.117l-0.165,0.117l-0.163,0.119l-0.161,0.118l-0.159,0.12l-0.157,0.12l-0.155,0.121l-0.153,0.121l-0.152,0.122l-0.149,0.123l-0.147,0.123l-0.145,0.124l-0.144,0.125l-0.141,0.125l-0.139,0.126l-0.137,0.126l-0.135,0.127l-0.133,0.128l-0.131,0.128l-0.129,0.129l-0.127,0.129l-0.125,0.13l-0.123,0.131l-0.121,0.131l-0.119,0.132l-0.116,0.132l-0.115,0.133l-0.113,0.134l-0.11,0.134l-0.109,0.135l-0.106,0.135l-0.105,0.137l-0.102,0.136l-0.101,0.138l-0.098,0.138l-0.097,0.138l-0.094,0.14l-0.093,0.14l-0.09,0.141l-0.089,0.141l-0.086,0.143l-0.085,0.143l-0.083,0.144l-0.081,0.144l-0.078,0.146l-0.077,0.146l-0.075,0.147l-0.073,0.148l-0.071,0.15l-0.07,0.15l-0.067,0.151l-0.068,0.159l-0.029,0.069l-0.032,0.077l-0.031,0.077l-0.03,0.077l-0.03,0.078l-0.03,0.077l-0.029,0.079l-0.029,0.078l-0.028,0.079l-0.028,0.079l-0.027,0.079l-0.031,0.093l-0.075,0.225l-0.082,0.24l-0.084,0.241l-0.085,0.243l-0.086,0.244l-0.089,0.246l-0.09,0.246l-0.091,0.249l-0.094,0.25l-0.094,0.251l-0.096,0.253l-0.099,0.257l-0.198,0.51l-0.205,0.519l-0.21,0.525l-0.216,0.531l-0.219,0.537l-0.225,0.543l-0.229,0.55l-0.233,0.555l-0.236,0.56l-0.241,0.568l-0.489,1.148l-0.502,1.172l-0.511,1.193l-0.519,1.213l-0.261,0.613l-0.262,0.617l-0.263,0.622l-0.264,0.627l-0.265,0.63l-0.264,0.634l-0.264,0.638l-0.263,0.642l-0.263,0.645l-0.262,0.648l-0.261,0.651l-0.26,0.655l-0.257,0.657l-0.257,0.662l-0.126,0.328l-0.127,0.331l-0.125,0.332l-0.126,0.333l-0.124,0.333l-0.124,0.333l-0.123,0.334l-0.122,0.334l-0.122,0.335l-0.12,0.335l-0.12,0.335l-0.119,0.336l-0.118,0.336l-0.117,0.336l-0.115,0.337l-0.115,0.337l-0.114,0.337l-0.113,0.337l-0.111,0.338l-0.111,0.338l-0.109,0.337l-0.108,0.338l-0.107,0.338l-0.106,0.338l-0.104,0.338l-0.103,0.339l-0.101,0.338l-0.1,0.338l-0.099,0.338l-0.097,0.337l-0.096,0.338l-0.094,0.338l-0.092,0.337l-0.091,0.337l-0.09,0.337l-0.087,0.337l-0.086,0.336l-0.085,0.336l-0.082,0.336l-0.081,0.335l-0.079,0.335l-0.078,0.335l-0.075,0.334l-0.074,0.334l-0.071,0.333l-0.07,0.332l-0.068,0.332l-0.065,0.332l-0.064,0.331l-0.062,0.33l-0.06,0.33l-0.895,5.116l-9.548,-1.67l0.901,-5.145l0.069,-0.384l0.072,-0.384l0.074,-0.384l0.076,-0.383l0.078,-0.383l0.08,-0.383l0.082,-0.382l0.085,-0.382l0.086,-0.382l0.088,-0.381l0.089,-0.38l0.092,-0.38l0.094,-0.38l0.095,-0.379l0.097,-0.379l0.098,-0.378l0.1,-0.378l0.102,-0.377l0.103,-0.376l0.105,-0.376l0.107,-0.375l0.107,-0.375l0.11,-0.374l0.11,-0.374l0.112,-0.372l0.113,-0.372l0.115,-0.372l0.115,-0.371l0.117,-0.37l0.118,-0.369l0.12,-0.368l0.12,-0.368l0.121,-0.367l0.122,-0.366l0.124,-0.365l0.124,-0.365l0.125,-0.363l0.126,-0.363l0.127,-0.362l0.128,-0.361l0.128,-0.36l0.13,-0.359l0.13,-0.358l0.13,-0.357l0.131,-0.356l0.132,-0.355l0.133,-0.354l0.133,-0.353l0.133,-0.352l0.134,-0.351l0.135,-0.352l0.269,-0.693l0.271,-0.692l0.272,-0.686l0.273,-0.682l0.273,-0.676l0.274,-0.671l0.274,-0.665l0.273,-0.66l0.272,-0.654l0.272,-0.648l0.27,-0.642l0.269,-0.636l0.267,-0.628l0.266,-0.623l0.522,-1.223l0.512,-1.194l0.498,-1.163l0.483,-1.133l0.234,-0.551l0.229,-0.544l0.224,-0.535l0.219,-0.525l0.213,-0.516l0.208,-0.506l0.2,-0.496l0.195,-0.485l0.187,-0.474l0.181,-0.467l0.086,-0.224l0.086,-0.225l0.083,-0.221l0.082,-0.218l0.079,-0.215l0.077,-0.213l0.075,-0.209l0.074,-0.205l0.071,-0.202l0.068,-0.199l0.067,-0.196l0.069,-0.205l0.042,-0.127l0.048,-0.14l0.049,-0.14l0.05,-0.139l0.05,-0.138l0.052,-0.138l0.052,-0.138l0.053,-0.137l0.054,-0.136l0.055,-0.136l0.056,-0.136l0.059,-0.142l0.113,-0.261l0.118,-0.267l0.122,-0.264l0.125,-0.263l0.129,-0.26l0.131,-0.258l0.135,-0.256l0.137,-0.254l0.141,-0.251l0.143,-0.25l0.146,-0.247l0.149,-0.245l0.152,-0.243l0.155,-0.241l0.157,-0.238l0.161,-0.236l0.162,-0.234l0.166,-0.232l0.168,-0.23l0.17,-0.227l0.173,-0.225l0.175,-0.223l0.178,-0.221l0.18,-0.218l0.182,-0.216l0.185,-0.215l0.187,-0.212l0.189,-0.209l0.191,-0.208l0.193,-0.205l0.195,-0.204l0.197,-0.201l0.2,-0.199l0.201,-0.197l0.203,-0.195l0.205,-0.193l0.207,-0.19l0.209,-0.189l0.211,-0.187l0.212,-0.184l0.214,-0.183l0.216,-0.181l0.217,-0.179l0.219,-0.176l0.221,-0.175l0.222,-0.173l0.224,-0.171l0.225,-0.169l0.227,-0.168l0.229,-0.165l0.23,-0.164l0.231,-0.162l0.233,-0.16l0.234,-0.158l0.235,-0.156l0.237,-0.155l0.238,-0.153l0.239,-0.152l0.241,-0.149l0.242,-0.148l0.243,-0.147l0.245,-0.144l0.245,-0.144l0.247,-0.141l0.248,-0.14l0.249,-0.138l0.25,-0.137l0.251,-0.135l0.253,-0.134l0.253,-0.132l0.255,-0.131l0.255,-0.129l0.257,-0.128l0.257,-0.126l0.259,-0.125l0.259,-0.124l0.261,-0.122l0.261,-0.12l0.262,-0.119l0.263,-0.118l0.264,-0.117l0.265,-0.115l0.266,-0.114l0.266,-0.112l0.267,-0.112l0.268,-0.11l0.269,-0.108l0.27,-0.108l0.27,-0.106l0.271,-0.105l0.272,-0.104l0.273,-0.102l0.273,-0.101l0.274,-0.1l0.274,-0.099l0.275,-0.098l0.276,-0.097l0.276,-0.095l0.277,-0.094l0.278,-0.093l0.278,-0.092l0.278,-0.091l0.279,-0.09l0.28,-0.089l0.28,-0.087l0.281,-0.087l0.281,-0.085l0.281,-0.085l0.282,-0.083l0.282,-0.083l0.283,-0.081l0.283,-0.08l0.283,-0.08l0.284,-0.078l0.284,-0.077l0.285,-0.077l0.284,-0.075l0.285,-0.074l0.285,-0.074l0.286,-0.073l0.286,-0.071l0.286,-0.071l0.286,-0.07l0.286,-0.068l0.286,-0.068l0.287,-0.068l0.287,-0.066l0.287,-0.065l0.287,-0.064l0.287,-0.064l0.287,-0.063l0.287,-0.062l0.287,-0.061l0.288,-0.06l0.287,-0.059l0.29,-0.06l0.572,-0.114l0.574,-0.111l0.574,-0.109l0.573,-0.105l0.572,-0.103l0.572,-0.099l0.571,-0.097l0.57,-0.094l0.569,-0.091l0.567,-0.088l0.566,-0.086l0.564,-0.083l0.563,-0.081l0.561,-0.078l0.558,-0.076l0.557,-0.073l0.554,-0.071l0.552,-0.069l0.549,-0.066l0.546,-0.064l0.544,-0.063l0.541,-0.06l0.537,-0.058l0.535,-0.056l0.53,-0.055l0.528,-0.052l0.523,-0.051l0.52,-0.049l0.516,-0.047l0.511,-0.046l0.508,-0.044l0.502,-0.042l0.499,-0.041l0.493,-0.039l0.489,-0.038l0.484,-0.037l0.478,-0.036l0.473,-0.034l0.47,-0.033l0.916,-0.062l0.894,-0.059l0.87,-0.054l0.843,-0.051l0.816,-0.048l1.54,-0.089l1.432,-0.081l0.22,-0.011l0.234,-0.01l0.233,-0.007l0.234,-0.005l0.233,-0.002l0.232,0.001Z" style="fill:#fff;"/><path d="M110.5,42.834l0.021,0.155l0.041,0.328l0.047,0.396l0.052,0.461l0.057,0.528l0.061,0.592l0.066,0.656l0.069,0.716l0.072,0.776l0.076,0.831l0.077,0.886l0.079,0.935l0.04,0.488l0.04,0.499l0.04,0.51l0.041,0.521l0.04,0.532l0.04,0.543l0.04,0.553l0.04,0.563l0.039,0.572l0.039,0.581l0.039,0.591l0.038,0.599l0.038,0.607l0.037,0.615l0.036,0.623l0.036,0.629l0.034,0.637l0.034,0.644l0.032,0.649l0.032,0.656l0.031,0.661l0.029,0.667l0.028,0.671l0.026,0.676l0.026,0.68l0.023,0.685l0.022,0.688l0.021,0.691l0.019,0.694l0.017,0.697l0.015,0.7l0.013,0.701l0.011,0.703l0.009,0.705l0.007,0.706l0.005,0.706l0.003,0.707l0,0.707l-0.003,0.707l-0.004,0.706l-0.008,0.706l-0.01,0.704l-0.013,0.704l-0.016,0.701l-0.018,0.697l-0.011,0.351l-0.011,0.348l-0.012,0.348l-0.013,0.347l-0.013,0.346l-0.014,0.346l-0.015,0.344l-0.016,0.344l-0.017,0.343l-0.018,0.342l-0.018,0.341l-0.02,0.34l-0.02,0.339l-0.021,0.338l-0.022,0.337l-0.023,0.336l-0.024,0.335l-0.024,0.334l-0.026,0.332l-0.027,0.331l-0.027,0.33l-0.029,0.329l-0.03,0.327l-0.03,0.326l-0.032,0.324l-0.033,0.323l-0.033,0.322l-0.035,0.32l-0.036,0.318l-0.037,0.317l-0.038,0.316l-0.039,0.314l-0.041,0.312l-0.041,0.31l-0.043,0.309l-0.044,0.308l-0.045,0.305l-0.047,0.304l-0.047,0.302l-0.049,0.3l-0.05,0.299l-0.052,0.296l-0.053,0.295l-0.054,0.293l-0.056,0.291l-0.057,0.289l-0.059,0.287l-0.06,0.286l-0.062,0.283l-0.063,0.282l-0.065,0.279l-0.067,0.278l-0.068,0.276l-0.07,0.273l-0.072,0.272l-0.073,0.27l-0.076,0.268l-0.077,0.266l-0.079,0.264l-0.082,0.262l-0.084,0.26l-0.085,0.259l-0.089,0.256l-0.09,0.255l-0.093,0.252l-0.096,0.251l-0.098,0.249l-0.101,0.247l-0.104,0.245l-0.107,0.244l-0.11,0.241l-0.114,0.24l-0.117,0.238l-0.116,0.228l-0.066,0.125l-0.063,0.117l-0.064,0.117l-0.064,0.116l-0.066,0.116l-0.067,0.115l-0.068,0.115l-0.07,0.114l-0.07,0.114l-0.072,0.114l-0.073,0.113l-0.074,0.112l-0.075,0.112l-0.077,0.111l-0.078,0.111l-0.08,0.111l-0.081,0.109l-0.082,0.109l-0.084,0.109l-0.086,0.108l-0.087,0.107l-0.089,0.107l-0.091,0.106l-0.092,0.106l-0.094,0.104l-0.095,0.104l-0.098,0.103l-0.1,0.103l-0.101,0.101l-0.103,0.1l-0.105,0.1l-0.107,0.098l-0.11,0.097l-0.111,0.096l-0.113,0.095l-0.115,0.094l-0.118,0.092l-0.12,0.091l-0.121,0.089l-0.124,0.088l-0.126,0.086l-0.128,0.085l-0.131,0.082l-0.132,0.081l-0.134,0.079l-0.137,0.077l-0.138,0.074l-0.141,0.072l-0.142,0.071l-0.144,0.067l-0.146,0.065l-0.148,0.063l-0.15,0.06l-0.151,0.057l-0.153,0.054l-0.154,0.052l-0.156,0.049l-0.157,0.045l-0.158,0.043l-0.159,0.039l-0.16,0.037l-0.16,0.033l-0.162,0.03l-0.162,0.027l-0.163,0.024l-0.163,0.02l-0.164,0.017l-0.163,0.014l-0.164,0.011l-0.163,0.007l-0.164,0.005l-0.163,0.001l-0.163,-0.002l-0.163,-0.005l-0.162,-0.008l-0.161,-0.011l-0.161,-0.014l-0.16,-0.016l-0.16,-0.02l-0.158,-0.022l-0.157,-0.025l-0.157,-0.028l-0.156,-0.03l-0.155,-0.033l-0.153,-0.035l-0.153,-0.038l-0.152,-0.039l-0.151,-0.043l-0.193,-0.057l-0.192,-0.06l-0.191,-0.064l-0.189,-0.066l-0.188,-0.069l-0.187,-0.072l-0.185,-0.075l-0.184,-0.078l-0.181,-0.08l-0.181,-0.084l-0.178,-0.086l-0.177,-0.088l-0.175,-0.092l-0.173,-0.094l-0.171,-0.096l-0.169,-0.099l-0.168,-0.101l-0.165,-0.104l-0.163,-0.106l-0.161,-0.108l-0.158,-0.11l-0.157,-0.113l-0.155,-0.114l-0.152,-0.117l-0.15,-0.118l-0.148,-0.12l-0.145,-0.122l-0.144,-0.123l-0.141,-0.126l-0.139,-0.127l-0.137,-0.128l-0.135,-0.13l-0.132,-0.131l-0.13,-0.132l-0.129,-0.134l-0.126,-0.135l-0.124,-0.137l-0.122,-0.137l-0.12,-0.138l-0.117,-0.14l-0.116,-0.141l-0.114,-0.141l-0.112,-0.142l-0.11,-0.144l-0.109,-0.144l-0.106,-0.145l-0.105,-0.146l-0.103,-0.147l-0.101,-0.147l-0.1,-0.148l-0.098,-0.149l-0.096,-0.149l-0.095,-0.15l-0.093,-0.151l-0.092,-0.152l-0.091,-0.152l-0.088,-0.152l-0.088,-0.153l-0.086,-0.154l-0.085,-0.154l-0.084,-0.155l-0.082,-0.155l-0.082,-0.156l-0.08,-0.157l-0.079,-0.157l-0.077,-0.157l-0.077,-0.158l-0.076,-0.158l-0.074,-0.159l-0.074,-0.159l-0.073,-0.16l-0.071,-0.16l-0.071,-0.161l-0.07,-0.161l-0.069,-0.162l-0.069,-0.162l-0.067,-0.163l-0.069,-0.168l-0.129,-0.322l-0.128,-0.329l-0.126,-0.331l-0.123,-0.332l-0.12,-0.335l-0.119,-0.336l-0.117,-0.338l-0.115,-0.339l-0.113,-0.341l-0.111,-0.343l-0.11,-0.344l-0.109,-0.346l-0.107,-0.347l-0.107,-0.349l-0.106,-0.351l-0.104,-0.352l-0.104,-0.353l-0.104,-0.355l-0.103,-0.358l-0.204,-0.714l-0.204,-0.721l-0.204,-0.726l-0.412,-1.466l-0.208,-0.738l-0.213,-0.744l-0.106,-0.37l-0.108,-0.372l-0.11,-0.373l-0.11,-0.374l-0.112,-0.374l-0.113,-0.374l-0.114,-0.375l-0.116,-0.376l-0.117,-0.375l-0.119,-0.376l-0.121,-0.376l-0.122,-0.376l-0.125,-0.376l-0.126,-0.376l-0.128,-0.375l-0.131,-0.376l-0.132,-0.376l-0.135,-0.375l-0.137,-0.375l-0.139,-0.375l-0.142,-0.374l-0.145,-0.373l-0.147,-0.374l-0.151,-0.376l-0.074,-0.182l-0.077,-0.186l-0.077,-0.186l-0.078,-0.185l-0.078,-0.185l-0.08,-0.186l-0.08,-0.184l-0.081,-0.185l-0.081,-0.185l-0.082,-0.184l-0.084,-0.184l-0.083,-0.184l-0.085,-0.183l-0.086,-0.183l-0.086,-0.183l-0.087,-0.183l-0.088,-0.183l-0.088,-0.182l-0.09,-0.182l-0.09,-0.181l-0.092,-0.182l-0.092,-0.181l-0.093,-0.18l-0.093,-0.181l-0.095,-0.18l-0.096,-0.18l-0.096,-0.179l-0.098,-0.179l-0.098,-0.179l-0.099,-0.178l-0.101,-0.178l-0.101,-0.178l-0.102,-0.177l-0.103,-0.177l-0.104,-0.177l-0.105,-0.176l-0.106,-0.176l-0.107,-0.175l-0.109,-0.175l-0.109,-0.175l-0.11,-0.174l-0.111,-0.174l-0.112,-0.173l-0.114,-0.173l-0.114,-0.173l-0.115,-0.172l-0.117,-0.172l-0.118,-0.171l-0.118,-0.171l-0.12,-0.17l-0.121,-0.17l-0.122,-0.17l-0.124,-0.169l-0.124,-0.168l-0.126,-0.168l-0.127,-0.168l-0.128,-0.167l-0.129,-0.167l-0.13,-0.166l-0.132,-0.166l-0.133,-0.165l-0.134,-0.165l-0.135,-0.164l-0.133,-0.159l-0.061,-0.071l-0.058,-0.067l-0.059,-0.068l-0.062,-0.067l-0.063,-0.069l-0.065,-0.069l-0.067,-0.069l-0.068,-0.069l-0.07,-0.07l-0.072,-0.071l-0.074,-0.071l-0.075,-0.071l-0.077,-0.071l-0.079,-0.071l-0.08,-0.072l-0.082,-0.072l-0.084,-0.073l-0.086,-0.072l-0.087,-0.073l-0.088,-0.073l-0.091,-0.073l-0.092,-0.073l-0.093,-0.073l-0.095,-0.074l-0.097,-0.073l-0.099,-0.074l-0.1,-0.073l-0.101,-0.074l-0.103,-0.074l-0.105,-0.073l-0.106,-0.074l-0.108,-0.074l-0.109,-0.073l-0.11,-0.074l-0.112,-0.073l-0.114,-0.074l-0.115,-0.073l-0.116,-0.074l-0.118,-0.073l-0.119,-0.073l-0.12,-0.073l-0.122,-0.073l-0.123,-0.073l-0.125,-0.072l-0.125,-0.073l-0.127,-0.072l-0.129,-0.072l-0.129,-0.072l-0.131,-0.071l-0.132,-0.072l-0.133,-0.071l-0.135,-0.071l-0.135,-0.071l-0.137,-0.071l-0.138,-0.07l-0.139,-0.071l-0.14,-0.07l-0.141,-0.069l-0.142,-0.07l-0.143,-0.069l-0.145,-0.069l-0.145,-0.068l-0.146,-0.069l-0.143,-0.066l-0.302,-0.137l-0.301,-0.134l-0.305,-0.133l-0.309,-0.132l-0.312,-0.13l-0.315,-0.13l-0.318,-0.127l-0.321,-0.127l-0.324,-0.125l-0.327,-0.123l-0.329,-0.123l-0.332,-0.12l-0.334,-0.12l-0.336,-0.118l-0.339,-0.116l-0.34,-0.115l-0.343,-0.114l-0.344,-0.111l-0.346,-0.111l-0.347,-0.109l-0.349,-0.107l-0.35,-0.106l-0.351,-0.104l-0.352,-0.102l-0.353,-0.101l-0.354,-0.1l-0.355,-0.098l-0.355,-0.096l-0.355,-0.095l-0.356,-0.093l-0.356,-0.091l-0.356,-0.09l-0.356,-0.088l-0.356,-0.086l-0.356,-0.085l-0.355,-0.084l-0.355,-0.081l-0.354,-0.08l-0.354,-0.079l-0.353,-0.077l-0.351,-0.075l-0.351,-0.073l-0.349,-0.072l-0.348,-0.07l-0.347,-0.069l-0.345,-0.067l-0.344,-0.065l-0.341,-0.063l-0.34,-0.062l-0.338,-0.061l-0.336,-0.058l-0.333,-0.057l-0.331,-0.056l-0.329,-0.054l-0.326,-0.052l-0.323,-0.05l-0.32,-0.049l-0.318,-0.047l-0.314,-0.046l-0.311,-0.044l-0.308,-0.042l-0.305,-0.041l-0.3,-0.039l-0.298,-0.037l-0.293,-0.036l-0.289,-0.034l-0.285,-0.033l-0.281,-0.031l-0.277,-0.029l-0.272,-0.028l-0.267,-0.026l-0.263,-0.024l-0.258,-0.023l-0.252,-0.022l-0.248,-0.019l-0.242,-0.019l-0.236,-0.016l-0.231,-0.015l-0.224,-0.014l-0.219,-0.012l-0.212,-0.01l-0.206,-0.009l-0.199,-0.008l-0.192,-0.006l-0.185,-0.004l-0.177,-0.003l-0.169,-0.002l-0.161,-0.001l-0.153,0.001l-0.144,0.002l-0.134,0.003l-0.124,0.004l-0.114,0.005l-0.103,0.006l-0.091,0.006l-4.944,0.404l-0.789,-9.661l5.01,-0.409l0.218,-0.015l0.219,-0.012l0.222,-0.01l0.224,-0.007l0.227,-0.005l0.231,-0.003l0.234,-0.002l0.237,0.001l0.242,0.003l0.246,0.004l0.249,0.006l0.254,0.008l0.259,0.01l0.262,0.011l0.267,0.013l0.271,0.015l0.275,0.017l0.28,0.018l0.284,0.02l0.287,0.022l0.293,0.023l0.296,0.025l0.3,0.027l0.304,0.028l0.309,0.03l0.312,0.032l0.315,0.034l0.32,0.035l0.323,0.037l0.327,0.038l0.33,0.041l0.334,0.042l0.337,0.043l0.34,0.046l0.344,0.047l0.347,0.049l0.349,0.051l0.353,0.052l0.355,0.054l0.358,0.056l0.361,0.058l0.363,0.059l0.366,0.062l0.368,0.063l0.371,0.064l0.372,0.067l0.375,0.068l0.377,0.07l0.379,0.072l0.38,0.074l0.383,0.076l0.384,0.077l0.385,0.079l0.387,0.081l0.388,0.083l0.39,0.085l0.391,0.087l0.392,0.088l0.393,0.091l0.393,0.092l0.395,0.094l0.395,0.096l0.396,0.098l0.397,0.1l0.397,0.102l0.397,0.104l0.398,0.106l0.397,0.108l0.398,0.11l0.398,0.111l0.398,0.114l0.397,0.116l0.397,0.118l0.397,0.12l0.396,0.122l0.396,0.124l0.395,0.126l0.395,0.128l0.393,0.13l0.393,0.133l0.391,0.134l0.391,0.137l0.389,0.139l0.389,0.142l0.386,0.143l0.386,0.146l0.384,0.148l0.382,0.151l0.38,0.153l0.379,0.155l0.377,0.158l0.375,0.16l0.373,0.162l0.371,0.166l0.365,0.165l0.188,0.087l0.183,0.086l0.182,0.086l0.182,0.087l0.181,0.087l0.181,0.088l0.18,0.089l0.179,0.09l0.179,0.09l0.178,0.091l0.178,0.092l0.176,0.092l0.176,0.094l0.176,0.093l0.174,0.095l0.174,0.096l0.174,0.096l0.172,0.097l0.172,0.097l0.171,0.099l0.17,0.099l0.17,0.1l0.169,0.101l0.168,0.102l0.167,0.103l0.166,0.103l0.166,0.105l0.165,0.105l0.163,0.106l0.163,0.107l0.163,0.108l0.161,0.109l0.16,0.11l0.16,0.11l0.158,0.112l0.158,0.113l0.157,0.113l0.156,0.115l0.154,0.116l0.154,0.117l0.153,0.117l0.152,0.119l0.151,0.12l0.15,0.121l0.149,0.123l0.148,0.123l0.146,0.125l0.146,0.125l0.144,0.127l0.144,0.128l0.142,0.13l0.141,0.131l0.14,0.131l0.139,0.134l0.137,0.134l0.136,0.136l0.135,0.138l0.134,0.138l0.132,0.14l0.131,0.142l0.129,0.143l0.128,0.144l0.127,0.146l0.121,0.143l0.179,0.214l0.173,0.209l0.171,0.21l0.169,0.211l0.168,0.211l0.166,0.212l0.164,0.212l0.163,0.212l0.161,0.213l0.16,0.214l0.158,0.213l0.156,0.215l0.154,0.214l0.153,0.215l0.152,0.215l0.15,0.216l0.148,0.215l0.147,0.217l0.145,0.216l0.143,0.217l0.142,0.217l0.141,0.217l0.139,0.217l0.138,0.218l0.136,0.218l0.135,0.218l0.133,0.219l0.132,0.218l0.13,0.219l0.129,0.218l0.128,0.219l0.126,0.219l0.125,0.22l0.123,0.219l0.122,0.219l0.121,0.22l0.12,0.219l0.118,0.22l0.117,0.22l0.115,0.219l0.114,0.22l0.114,0.22l0.111,0.219l0.111,0.22l0.109,0.22l0.108,0.22l0.107,0.219l0.106,0.22l0.104,0.219l0.104,0.22l0.102,0.219l0.101,0.219l0.1,0.219l0.099,0.219l0.098,0.219l0.097,0.219l0.095,0.218l0.095,0.219l0.093,0.218l0.093,0.218l0.091,0.218l0.091,0.217l0.089,0.218l0.091,0.221l0.172,0.429l0.17,0.433l0.167,0.432l0.163,0.43l0.16,0.429l0.156,0.427l0.153,0.427l0.15,0.424l0.147,0.423l0.144,0.422l0.141,0.419l0.138,0.418l0.135,0.416l0.133,0.414l0.131,0.412l0.128,0.409l0.126,0.408l0.123,0.405l0.121,0.402l0.12,0.4l0.117,0.398l0.116,0.395l0.114,0.392l0.112,0.391l0.22,0.767l0.214,0.758l0.414,1.474l0.201,0.717l0.198,0.7l0.197,0.688l0.096,0.334l0.097,0.331l0.096,0.328l0.096,0.322l0.096,0.318l0.096,0.314l0.095,0.308l0.096,0.304l0.095,0.298l0.095,0.294l0.096,0.287l0.095,0.283l0.096,0.277l0.096,0.271l0.096,0.266l0.096,0.259l0.096,0.253l0.096,0.248l0.099,0.246l0.046,0.113l0.048,0.117l0.049,0.115l0.048,0.113l0.049,0.111l0.048,0.11l0.048,0.109l0.049,0.106l0.048,0.105l0.049,0.103l0.048,0.101l0.049,0.1l0.048,0.098l0.048,0.096l0.048,0.094l0.049,0.092l0.048,0.091l0.048,0.089l0.048,0.087l0.047,0.085l0.048,0.083l0.048,0.082l0.047,0.08l0.047,0.077l0.047,0.076l0.047,0.074l0.047,0.073l0.046,0.07l0.046,0.069l0.046,0.067l0.046,0.065l0.045,0.063l0.045,0.061l0.045,0.06l0.044,0.057l0.045,0.057l0.043,0.054l0.044,0.052l0.043,0.051l0.042,0.05l0.042,0.047l0.042,0.046l0.041,0.044l0.041,0.043l0.041,0.041l0.04,0.04l0.04,0.039l0.039,0.036l0.039,0.036l0.039,0.034l0.038,0.033l0.038,0.032l0.038,0.031l0.037,0.029l0.037,0.028l0.037,0.028l0.037,0.026l0.037,0.025l0.036,0.025l0.036,0.024l0.037,0.022l0.036,0.022l0.037,0.022l0.036,0.02l0.008,0.005l0.016,-0.027l0.023,-0.039l0.024,-0.041l0.024,-0.042l0.025,-0.044l0.024,-0.045l0.025,-0.047l0.021,-0.039l0.056,-0.11l0.053,-0.107l0.053,-0.113l0.054,-0.118l0.055,-0.125l0.055,-0.129l0.055,-0.135l0.055,-0.141l0.056,-0.145l0.055,-0.151l0.056,-0.156l0.055,-0.161l0.055,-0.165l0.055,-0.171l0.054,-0.175l0.054,-0.179l0.054,-0.184l0.053,-0.189l0.053,-0.193l0.052,-0.197l0.051,-0.201l0.051,-0.205l0.05,-0.209l0.049,-0.213l0.049,-0.217l0.048,-0.22l0.047,-0.224l0.047,-0.228l0.046,-0.232l0.045,-0.234l0.044,-0.238l0.043,-0.242l0.043,-0.244l0.041,-0.248l0.041,-0.251l0.04,-0.254l0.04,-0.257l0.038,-0.259l0.038,-0.263l0.036,-0.265l0.036,-0.269l0.035,-0.27l0.034,-0.274l0.034,-0.276l0.032,-0.278l0.032,-0.281l0.031,-0.283l0.03,-0.286l0.029,-0.287l0.028,-0.29l0.028,-0.293l0.026,-0.294l0.026,-0.296l0.025,-0.298l0.024,-0.301l0.024,-0.302l0.022,-0.304l0.022,-0.305l0.021,-0.308l0.02,-0.309l0.019,-0.311l0.019,-0.312l0.018,-0.314l0.017,-0.315l0.016,-0.317l0.016,-0.318l0.015,-0.32l0.014,-0.321l0.013,-0.322l0.013,-0.323l0.012,-0.324l0.011,-0.326l0.01,-0.326l0.01,-0.325l0.017,-0.66l0.015,-0.662l0.012,-0.664l0.01,-0.667l0.007,-0.669l0.005,-0.671l0.002,-0.673l0,-0.674l-0.003,-0.675l-0.004,-0.676l-0.007,-0.675l-0.009,-0.675l-0.01,-0.675l-0.013,-0.674l-0.015,-0.673l-0.016,-0.67l-0.018,-0.669l-0.02,-0.667l-0.021,-0.664l-0.023,-0.661l-0.024,-0.657l-0.026,-0.654l-0.027,-0.649l-0.028,-0.645l-0.03,-0.641l-0.031,-0.635l-0.031,-0.63l-0.033,-0.624l-0.034,-0.617l-0.034,-0.611l-0.035,-0.605l-0.036,-0.597l-0.036,-0.589l-0.038,-0.582l-0.037,-0.573l-0.038,-0.565l-0.038,-0.556l-0.039,-0.547l-0.039,-0.536l-0.039,-0.527l-0.039,-0.517l-0.039,-0.506l-0.039,-0.495l-0.039,-0.483l-0.039,-0.47l-0.076,-0.909l-0.075,-0.856l-0.073,-0.802l-0.069,-0.745l-0.067,-0.686l-0.062,-0.622l-0.058,-0.557l-0.052,-0.487l-0.046,-0.413l-0.04,-0.333l-0.031,-0.25l-0.01,-0.076l-0.694,-4.874l9.596,-1.366l0.699,4.913Z" style="fill:#fff;"/><path d="M11.272,74.556l0.136,0.001l0.135,0.003l0.136,0.003l0.135,0.004l0.144,0.006l0.26,0.014l0.268,0.018l0.267,0.022l0.266,0.025l0.266,0.03l0.264,0.034l0.264,0.037l0.262,0.041l0.261,0.044l0.26,0.048l0.259,0.051l0.257,0.055l0.257,0.058l0.255,0.061l0.254,0.065l0.253,0.067l0.252,0.071l0.25,0.073l0.249,0.077l0.248,0.079l0.247,0.083l0.246,0.084l0.244,0.088l0.243,0.09l0.242,0.093l0.241,0.095l0.24,0.098l0.238,0.1l0.238,0.102l0.236,0.105l0.235,0.107l0.234,0.109l0.233,0.112l0.232,0.113l0.231,0.116l0.23,0.117l0.229,0.12l0.228,0.121l0.226,0.123l0.226,0.126l0.225,0.127l0.224,0.128l0.224,0.131l0.222,0.132l0.221,0.134l0.221,0.136l0.219,0.137l0.219,0.138l0.218,0.141l0.217,0.141l0.217,0.144l0.216,0.144l0.214,0.146l0.215,0.148l0.213,0.148l0.213,0.151l0.212,0.151l0.211,0.152l0.211,0.154l0.21,0.155l0.21,0.157l0.208,0.157l0.209,0.158l0.207,0.16l0.207,0.16l0.206,0.162l0.206,0.163l0.205,0.163l0.205,0.165l0.204,0.165l0.204,0.167l0.203,0.167l0.202,0.168l0.202,0.169l0.202,0.17l0.201,0.17l0.201,0.171l0.2,0.172l0.202,0.175l0.395,0.345l0.396,0.349l0.394,0.352l0.392,0.354l0.391,0.356l0.389,0.357l0.387,0.359l0.386,0.36l0.384,0.361l0.383,0.362l0.381,0.362l0.379,0.363l0.379,0.363l0.377,0.364l0.747,0.723l0.743,0.723l0.737,0.718l0.731,0.712l0.727,0.705l0.359,0.348l0.359,0.346l0.357,0.343l0.356,0.341l0.354,0.337l0.352,0.333l0.351,0.33l0.349,0.326l0.347,0.322l0.345,0.317l0.344,0.313l0.341,0.308l0.34,0.303l0.34,0.3l0.165,0.145l0.168,0.145l0.167,0.144l0.166,0.143l0.166,0.141l0.165,0.14l0.164,0.138l0.164,0.136l0.163,0.135l0.163,0.133l0.162,0.132l0.162,0.13l0.16,0.128l0.16,0.127l0.16,0.124l0.158,0.123l0.158,0.121l0.157,0.12l0.157,0.117l0.155,0.116l0.155,0.113l0.154,0.112l0.153,0.11l0.153,0.108l0.151,0.105l0.151,0.104l0.149,0.102l0.149,0.099l0.147,0.098l0.147,0.095l0.146,0.094l0.144,0.091l0.144,0.089l0.142,0.086l0.142,0.085l0.14,0.082l0.139,0.08l0.138,0.078l0.137,0.076l0.135,0.073l0.134,0.071l0.133,0.069l0.131,0.066l0.131,0.065l0.128,0.062l0.128,0.059l0.125,0.057l0.125,0.055l0.123,0.053l0.121,0.051l0.12,0.048l0.118,0.046l0.117,0.044l0.115,0.041l0.113,0.039l0.112,0.038l0.11,0.035l0.108,0.032l0.107,0.031l0.105,0.029l0.103,0.026l0.102,0.025l0.1,0.023l0.098,0.02l0.097,0.019l0.095,0.017l0.093,0.015l0.092,0.014l0.09,0.011l0.089,0.01l0.087,0.008l0.086,0.007l0.095,0.006l0.032,0.001l0.041,0.002l0.041,0.001l0.041,0.001l0.041,0l0.04,0l0.04,0l0.04,0l0.039,-0.001l0.04,-0.002l0.039,-0.002l0.039,-0.002l0.038,-0.002l0.039,-0.003l0.038,-0.003l0.038,-0.003l0.039,-0.004l0.038,-0.004l0.037,-0.005l0.038,-0.005l0.038,-0.005l0.043,-0.007l0.507,-0.079l0.511,-0.083l0.512,-0.086l0.511,-0.088l0.511,-0.091l0.511,-0.093l0.51,-0.096l0.509,-0.098l0.51,-0.1l0.508,-0.103l0.509,-0.105l0.508,-0.108l0.507,-0.11l0.507,-0.112l0.506,-0.114l0.506,-0.117l0.505,-0.118l0.504,-0.121l0.504,-0.122l0.503,-0.125l0.503,-0.127l0.501,-0.129l0.502,-0.13l0.5,-0.133l0.5,-0.134l0.498,-0.136l0.498,-0.138l0.498,-0.14l0.496,-0.141l0.495,-0.143l0.495,-0.145l0.494,-0.146l0.493,-0.148l0.492,-0.15l0.491,-0.151l0.49,-0.152l0.489,-0.154l0.487,-0.155l0.487,-0.157l0.486,-0.158l0.485,-0.159l0.484,-0.161l0.482,-0.161l0.482,-0.163l0.48,-0.164l0.479,-0.165l0.478,-0.167l0.477,-0.167l0.475,-0.168l0.475,-0.169l0.473,-0.171l0.471,-0.171l0.471,-0.172l0.469,-0.173l0.467,-0.173l0.467,-0.174l0.465,-0.176l0.463,-0.175l0.462,-0.177l0.461,-0.177l0.459,-0.177l0.458,-0.178l0.456,-0.179l0.455,-0.179l0.453,-0.18l0.452,-0.18l0.45,-0.18l0.449,-0.18l0.447,-0.181l0.445,-0.182l0.444,-0.181l0.442,-0.181l0.44,-0.182l0.437,-0.181l0.874,-0.365l0.865,-0.364l0.858,-0.363l0.851,-0.363l0.843,-0.362l0.836,-0.361l0.828,-0.36l0.82,-0.358l0.813,-0.356l0.804,-0.354l0.796,-0.35l1.568,-0.694l1.534,-0.68l1.498,-0.664l0.736,-0.325l0.727,-0.321l0.718,-0.316l0.709,-0.31l0.7,-0.304l0.691,-0.299l0.681,-0.293l0.672,-0.286l0.662,-0.28l0.651,-0.271l0.325,-0.135l0.321,-0.132l0.318,-0.13l0.316,-0.128l0.314,-0.126l0.312,-0.124l0.309,-0.122l0.307,-0.121l0.304,-0.118l0.303,-0.116l0.3,-0.114l0.298,-0.111l0.296,-0.11l0.294,-0.107l0.291,-0.105l0.289,-0.103l0.288,-0.1l0.285,-0.098l0.284,-0.096l0.281,-0.093l0.28,-0.091l0.277,-0.088l0.276,-0.086l0.275,-0.083l0.272,-0.08l0.272,-0.078l0.269,-0.075l0.269,-0.072l0.267,-0.069l0.266,-0.067l0.265,-0.063l0.264,-0.06l0.264,-0.057l0.263,-0.054l0.263,-0.051l0.262,-0.047l0.262,-0.043l0.263,-0.039l0.253,-0.035l0.141,-0.017l0.132,-0.015l0.132,-0.015l0.132,-0.013l0.133,-0.011l0.133,-0.011l0.133,-0.01l0.134,-0.008l0.134,-0.007l0.134,-0.005l0.135,-0.005l0.136,-0.002l0.136,-0.002l0.137,0.001l0.137,0.001l0.138,0.004l0.139,0.005l0.139,0.007l0.14,0.009l0.141,0.011l0.142,0.012l0.143,0.015l0.143,0.017l0.144,0.019l0.145,0.022l0.146,0.024l0.147,0.027l0.147,0.029l0.149,0.033l0.149,0.035l0.15,0.038l0.15,0.041l0.152,0.044l0.152,0.048l0.152,0.051l0.153,0.055l0.154,0.059l0.153,0.062l0.153,0.066l0.154,0.071l0.153,0.074l0.153,0.078l0.152,0.083l0.152,0.087l0.15,0.091l0.149,0.095l0.148,0.099l0.146,0.104l0.145,0.108l0.142,0.112l0.14,0.117l0.138,0.12l0.134,0.123l0.132,0.128l0.128,0.131l0.125,0.134l0.122,0.137l0.118,0.141l0.114,0.143l0.111,0.145l0.106,0.148l0.102,0.15l0.097,0.151l0.094,0.154l0.09,0.155l0.085,0.155l0.081,0.158l0.077,0.157l0.072,0.158l0.069,0.159l0.064,0.159l0.061,0.159l0.057,0.159l0.053,0.159l0.049,0.159l0.046,0.159l0.042,0.158l0.039,0.157l0.036,0.158l0.033,0.156l0.03,0.157l0.027,0.155l0.024,0.155l0.021,0.154l0.019,0.154l0.016,0.153l0.014,0.153l0.011,0.152l0.01,0.152l0.007,0.151l0.005,0.15l0.003,0.151l0.001,0.149l-0.001,0.149l-0.002,0.15l-0.004,0.149l-0.006,0.148l-0.008,0.148l-0.01,0.148l-0.011,0.148l-0.012,0.148l-0.014,0.148l-0.015,0.148l-0.017,0.148l-0.019,0.149l-0.019,0.148l-0.022,0.148l-0.022,0.149l-0.024,0.149l-0.025,0.149l-0.026,0.15l-0.028,0.149l-0.029,0.151l-0.03,0.15l-0.031,0.152l-0.033,0.152l-0.033,0.152l-0.035,0.153l-0.036,0.153l-0.038,0.155l-0.038,0.154l-0.04,0.156l-0.041,0.156l-0.042,0.157l-0.043,0.158l-0.046,0.165l-0.091,0.313l-0.096,0.323l-0.102,0.326l-0.106,0.331l-0.111,0.334l-0.115,0.339l-0.119,0.343l-0.125,0.347l-0.129,0.352l-0.134,0.357l-0.138,0.361l-0.143,0.366l-0.148,0.372l-0.152,0.376l-0.157,0.382l-0.162,0.387l-0.167,0.392l-0.171,0.398l-0.177,0.403l-0.181,0.409l-0.186,0.415l-0.191,0.421l-0.196,0.426l-0.2,0.432l-0.206,0.439l-2.283,4.815l-8.758,-4.151l2.274,-4.799l0.19,-0.403l0.183,-0.396l0.179,-0.389l0.173,-0.382l0.168,-0.374l0.162,-0.366l0.157,-0.36l0.152,-0.352l0.147,-0.344l0.141,-0.338l0.135,-0.329l0.131,-0.323l0.125,-0.315l0.12,-0.307l0.115,-0.3l0.11,-0.293l0.104,-0.284l0.1,-0.277l0.094,-0.27l0.089,-0.262l0.084,-0.253l0.078,-0.246l0.074,-0.238l0.069,-0.23l0.066,-0.228l0.028,-0.102l0.029,-0.105l0.028,-0.104l0.027,-0.101l0.025,-0.099l0.006,-0.025l-0.067,0.016l-0.176,0.044l-0.181,0.047l-0.188,0.05l-0.192,0.054l-0.198,0.056l-0.204,0.06l-0.208,0.063l-0.213,0.066l-0.218,0.07l-0.223,0.072l-0.228,0.075l-0.232,0.079l-0.236,0.081l-0.241,0.084l-0.245,0.087l-0.25,0.09l-0.254,0.093l-0.257,0.095l-0.262,0.099l-0.266,0.101l-0.27,0.103l-0.274,0.106l-0.277,0.109l-0.282,0.111l-0.285,0.114l-0.288,0.116l-0.293,0.118l-0.295,0.121l-0.3,0.123l-0.301,0.124l-0.618,0.259l-0.63,0.265l-0.643,0.274l-0.657,0.282l-0.668,0.29l-0.682,0.296l-0.693,0.304l-0.706,0.31l-0.718,0.317l-0.728,0.322l-1.494,0.661l-1.536,0.681l-1.577,0.698l-0.806,0.355l-0.815,0.359l-0.825,0.361l-0.835,0.364l-0.844,0.367l-0.854,0.369l-0.863,0.37l-0.872,0.373l-0.881,0.373l-0.89,0.374l-0.897,0.374l-0.454,0.189l-0.455,0.187l-0.457,0.188l-0.459,0.188l-0.461,0.187l-0.462,0.187l-0.465,0.188l-0.467,0.187l-0.469,0.186l-0.471,0.187l-0.473,0.186l-0.475,0.186l-0.476,0.186l-0.479,0.185l-0.48,0.184l-0.482,0.184l-0.485,0.184l-0.485,0.183l-0.488,0.182l-0.49,0.182l-0.491,0.181l-0.493,0.18l-0.495,0.179l-0.496,0.179l-0.498,0.178l-0.5,0.177l-0.502,0.176l-0.503,0.175l-0.505,0.174l-0.506,0.173l-0.508,0.172l-0.51,0.171l-0.511,0.169l-0.513,0.169l-0.514,0.167l-0.516,0.166l-0.517,0.164l-0.519,0.164l-0.52,0.161l-0.522,0.161l-0.523,0.159l-0.525,0.157l-0.526,0.156l-0.527,0.154l-0.529,0.153l-0.53,0.151l-0.531,0.149l-0.533,0.148l-0.534,0.146l-0.535,0.144l-0.537,0.142l-0.537,0.14l-0.539,0.138l-0.541,0.136l-0.541,0.134l-0.543,0.133l-0.544,0.13l-0.545,0.128l-0.546,0.125l-0.547,0.124l-0.549,0.121l-0.549,0.119l-0.551,0.117l-0.551,0.114l-0.553,0.112l-0.554,0.109l-0.554,0.107l-0.556,0.104l-0.557,0.102l-0.557,0.099l-0.559,0.096l-0.559,0.094l-0.561,0.091l-0.567,0.089l-0.124,0.018l-0.13,0.018l-0.13,0.017l-0.13,0.016l-0.13,0.014l-0.129,0.013l-0.13,0.012l-0.13,0.011l-0.129,0.009l-0.13,0.008l-0.129,0.007l-0.129,0.006l-0.129,0.004l-0.129,0.003l-0.129,0.002l-0.129,0.001l-0.128,0l-0.128,-0.001l-0.128,-0.003l-0.128,-0.004l-0.128,-0.004l-0.137,-0.007l-0.244,-0.015l-0.252,-0.019l-0.252,-0.024l-0.251,-0.028l-0.249,-0.032l-0.248,-0.036l-0.247,-0.04l-0.245,-0.044l-0.244,-0.048l-0.243,-0.051l-0.242,-0.055l-0.24,-0.058l-0.238,-0.061l-0.238,-0.065l-0.235,-0.068l-0.235,-0.071l-0.233,-0.074l-0.231,-0.077l-0.231,-0.08l-0.229,-0.082l-0.227,-0.086l-0.227,-0.088l-0.225,-0.09l-0.224,-0.093l-0.222,-0.096l-0.221,-0.098l-0.221,-0.1l-0.219,-0.103l-0.217,-0.104l-0.217,-0.107l-0.216,-0.109l-0.214,-0.112l-0.214,-0.113l-0.213,-0.115l-0.211,-0.117l-0.211,-0.119l-0.21,-0.121l-0.209,-0.122l-0.208,-0.125l-0.207,-0.126l-0.206,-0.128l-0.206,-0.129l-0.205,-0.131l-0.204,-0.133l-0.203,-0.134l-0.203,-0.136l-0.202,-0.137l-0.201,-0.139l-0.201,-0.14l-0.2,-0.142l-0.199,-0.143l-0.199,-0.144l-0.198,-0.146l-0.198,-0.147l-0.198,-0.148l-0.197,-0.15l-0.196,-0.15l-0.196,-0.152l-0.195,-0.153l-0.195,-0.154l-0.195,-0.156l-0.194,-0.156l-0.194,-0.157l-0.193,-0.159l-0.193,-0.159l-0.193,-0.161l-0.192,-0.161l-0.192,-0.162l-0.192,-0.163l-0.192,-0.164l-0.191,-0.165l-0.19,-0.166l-0.194,-0.169l-0.377,-0.333l-0.379,-0.338l-0.378,-0.342l-0.378,-0.343l-0.376,-0.346l-0.376,-0.348l-0.374,-0.351l-0.374,-0.351l-0.374,-0.354l-0.372,-0.355l-0.372,-0.356l-0.372,-0.357l-0.371,-0.357l-0.371,-0.359l-0.737,-0.717l-0.737,-0.717l-0.734,-0.715l-0.732,-0.712l-0.732,-0.708l-0.363,-0.35l-0.363,-0.349l-0.363,-0.347l-0.363,-0.345l-0.361,-0.342l-0.361,-0.339l-0.36,-0.336l-0.36,-0.333l-0.359,-0.329l-0.358,-0.326l-0.357,-0.323l-0.356,-0.318l-0.355,-0.313l-0.358,-0.312l-0.174,-0.151l-0.176,-0.151l-0.176,-0.151l-0.176,-0.149l-0.176,-0.148l-0.175,-0.147l-0.175,-0.145l-0.175,-0.144l-0.174,-0.142l-0.175,-0.141l-0.173,-0.14l-0.174,-0.138l-0.173,-0.137l-0.172,-0.135l-0.172,-0.134l-0.172,-0.132l-0.172,-0.13l-0.171,-0.129l-0.17,-0.127l-0.17,-0.126l-0.17,-0.124l-0.169,-0.122l-0.169,-0.12l-0.168,-0.119l-0.168,-0.117l-0.167,-0.115l-0.166,-0.113l-0.166,-0.111l-0.166,-0.11l-0.165,-0.107l-0.164,-0.106l-0.164,-0.104l-0.163,-0.101l-0.162,-0.1l-0.162,-0.098l-0.161,-0.096l-0.16,-0.094l-0.16,-0.091l-0.158,-0.09l-0.159,-0.088l-0.157,-0.085l-0.156,-0.084l-0.156,-0.081l-0.155,-0.079l-0.154,-0.077l-0.153,-0.075l-0.152,-0.073l-0.152,-0.07l-0.15,-0.069l-0.15,-0.066l-0.148,-0.064l-0.148,-0.062l-0.147,-0.06l-0.145,-0.058l-0.145,-0.055l-0.144,-0.053l-0.142,-0.051l-0.142,-0.049l-0.14,-0.047l-0.14,-0.045l-0.138,-0.042l-0.138,-0.041l-0.136,-0.038l-0.136,-0.036l-0.134,-0.034l-0.133,-0.032l-0.132,-0.03l-0.132,-0.028l-0.13,-0.026l-0.129,-0.024l-0.128,-0.021l-0.128,-0.02l-0.126,-0.018l-0.126,-0.016l-0.124,-0.014l-0.124,-0.012l-0.123,-0.01l-0.122,-0.008l-0.131,-0.007l-0.051,-0.002l-0.061,-0.002l-0.06,-0.002l-0.06,-0.001l-0.06,0l-0.06,0l-0.06,0l-0.059,0.001l-0.06,0.001l-0.059,0.002l-0.059,0.002l-0.059,0.003l-0.06,0.003l-0.059,0.004l-0.058,0.004l-0.059,0.005l-0.059,0.005l-0.059,0.005l-0.059,0.007l-0.059,0.006l-0.058,0.007l-0.059,0.008l-0.059,0.008l-0.059,0.008l-0.058,0.009l-0.059,0.01l-0.059,0.01l-0.059,0.01l-0.059,0.011l-0.059,0.012l-0.059,0.012l-0.059,0.012l-0.059,0.013l-4.802,1.105l-2.173,-9.446l4.841,-1.114l0.137,-0.03l0.138,-0.029l0.137,-0.028l0.138,-0.027l0.137,-0.026l0.138,-0.025l0.137,-0.023l0.138,-0.022l0.138,-0.021l0.137,-0.02l0.138,-0.019l0.137,-0.017l0.138,-0.017l0.137,-0.015l0.137,-0.014l0.137,-0.013l0.138,-0.012l0.137,-0.011l0.137,-0.01l0.137,-0.008l0.136,-0.008l0.137,-0.006l0.137,-0.005l0.136,-0.004l0.136,-0.003l0.136,-0.002l0.136,-0.001l0.136,0Z" style="fill:#fff;"/></g></g></svg>