<?xml version="1.0" encoding="UTF-8" standalone="no"?><!DOCTYPE svg PUBLIC "-//W3C//DTD SVG 1.1//EN" "http://www.w3.org/Graphics/SVG/1.1/DTD/svg11.dtd"><svg width="100%" height="100%" viewBox="0 0 29 29" version="1.1" xmlns="http://www.w3.org/2000/svg" xmlns:xlink="http://www.w3.org/1999/xlink" xml:space="preserve" xmlns:serif="http://www.serif.com/" style="fill-rule:evenodd;clip-rule:evenodd;stroke-linejoin:round;stroke-miterlimit:2;"><g><path d="M0.035,24.875c-0.019,-0.018 -0.021,-0.048 -0.003,-0.068c8.755,-9.805 18.644,-19.929 28.524,-24.807c-0.755,7.827 -3.258,15.04 -10.349,20.638c-0.02,0.016 -0.048,0.014 -0.065,-0.005c-0.35,-0.375 -3.648,-3.902 -4.042,-4.323c-0.009,-0.01 -0.023,-0.016 -0.037,-0.015c-0.014,0 -0.027,0.007 -0.036,0.018c-0.609,0.784 -9.082,11.691 -9.668,12.446c-0.009,0.011 -0.021,0.017 -0.034,0.018c-0.014,0.001 -0.027,-0.003 -0.037,-0.012c-0.404,-0.37 -3.867,-3.537 -4.253,-3.89Z" style="fill:#fff;"/><path d="M9.8,19.637c0.046,0.038 0.115,0.031 0.152,-0.016l2.426,-3.047c0.037,-0.047 0.03,-0.117 -0.016,-0.155l-1.52,-1.25c-0.047,-0.038 -0.115,-0.031 -0.153,0.016l-2.426,3.047c-0.037,0.048 -0.03,0.117 0.017,0.155l1.52,1.25Z"/><path d="M9.868,19.254c0.021,0.017 0.051,0.014 0.068,-0.008l1.095,-1.374c0.017,-0.022 0.014,-0.053 -0.007,-0.07l-0.686,-0.564c-0.021,-0.018 -0.052,-0.014 -0.069,0.007l-1.095,1.375c-0.017,0.021 -0.013,0.052 0.008,0.07l0.686,0.564Z" style="fill:#fff;"/><path d="M27.799,1.099c0.48,0 -3.247,12.968 -9.194,17.808l-1.515,-1.539c5.534,-4.223 11.195,-16.392 10.709,-16.269Z"/><path d="M23.589,11.84c0.184,0 -2.553,4.634 -4.829,6.486l-0.579,-0.589c2.117,-1.616 5.594,-5.944 5.408,-5.897Z" style="fill:#fff;"/></g></svg>